G04*
G04 #@! TF.GenerationSoftware,Altium Limited,Altium Designer,20.2.5 (213)*
G04*
G04 Layer_Physical_Order=1*
G04 Layer_Color=255*
%FSLAX25Y25*%
%MOIN*%
G70*
G04*
G04 #@! TF.SameCoordinates,E836E871-874D-4870-97CC-98E8EA56924C*
G04*
G04*
G04 #@! TF.FilePolarity,Positive*
G04*
G01*
G75*
%ADD27C,0.01378*%
%ADD28C,0.05906*%
%ADD29C,0.01575*%
%ADD30C,0.03937*%
%ADD31R,0.09843X0.06299*%
%ADD32O,0.09843X0.06299*%
%ADD33O,0.06299X0.09843*%
%ADD34R,0.06299X0.09843*%
%ADD35C,0.06299*%
%ADD36C,0.07087*%
%ADD37R,0.07087X0.07087*%
%ADD38C,0.05512*%
%ADD39O,0.06299X0.04724*%
%ADD40R,0.06299X0.04724*%
%ADD41C,0.06693*%
%ADD42R,0.06693X0.06693*%
%ADD43O,0.06299X0.09843*%
%ADD44C,0.01968*%
%ADD45C,0.02756*%
%ADD46C,0.05906*%
G36*
X246317Y274320D02*
X247507Y273827D01*
X248578Y273111D01*
X249489Y272200D01*
X250205Y271129D01*
X250698Y269939D01*
X250949Y268676D01*
X250949Y268032D01*
X250949Y265932D01*
X250487Y265741D01*
X247144Y269084D01*
X246655Y269410D01*
X246079Y269525D01*
X234000D01*
X233424Y269410D01*
X232936Y269084D01*
X223337Y259486D01*
X217275D01*
X217146Y259986D01*
X217783Y260816D01*
X218219Y261870D01*
X218368Y263000D01*
X218219Y264130D01*
X217783Y265184D01*
X217089Y266089D01*
X216184Y266783D01*
X215130Y267219D01*
X214000Y267368D01*
X212870Y267219D01*
X211816Y266783D01*
X210911Y266089D01*
X210217Y265184D01*
X209781Y264130D01*
X209686Y263413D01*
X208450D01*
X207874Y263298D01*
X207668Y263161D01*
X207132Y263404D01*
X207043Y264083D01*
X206625Y265093D01*
X205960Y265960D01*
X205093Y266625D01*
X204083Y267043D01*
X203500Y267120D01*
Y263000D01*
X203000D01*
Y262500D01*
X198880D01*
X198957Y261917D01*
X199375Y260907D01*
X200041Y260040D01*
X200907Y259375D01*
X201753Y259025D01*
X201654Y258525D01*
X190001D01*
X182099Y266427D01*
X181611Y266753D01*
X181035Y266867D01*
X178996D01*
X178492Y266968D01*
X177877Y266846D01*
X177356Y266498D01*
X177295Y266437D01*
X176767Y266616D01*
X176665Y267394D01*
X176266Y268356D01*
X175633Y269181D01*
X174807Y269815D01*
X173846Y270213D01*
X173314Y270283D01*
Y266362D01*
X172814D01*
Y265862D01*
X168893D01*
X168963Y265330D01*
X169361Y264369D01*
X169690Y263940D01*
X169443Y263440D01*
X166594D01*
X156843Y273190D01*
X156323Y273538D01*
X155708Y273661D01*
X155708Y273661D01*
X138817D01*
X138203Y273538D01*
X137682Y273190D01*
X137682Y273190D01*
X130746Y266255D01*
X130398Y265735D01*
X130276Y265120D01*
X130276Y265120D01*
X129776Y264919D01*
X120625Y274071D01*
X120832Y274571D01*
X244409Y274571D01*
X245054D01*
X246317Y274320D01*
D02*
G37*
G36*
X101780Y263621D02*
X101375Y263093D01*
X100957Y262083D01*
X100880Y261500D01*
X105000D01*
Y260500D01*
X100880D01*
X100957Y259917D01*
X101270Y259162D01*
X100970Y258666D01*
X100963Y258662D01*
X88363D01*
X88156Y259162D01*
X93114Y264121D01*
X101534D01*
X101780Y263621D01*
D02*
G37*
G36*
X31591Y274571D02*
X58688D01*
X58895Y274071D01*
X48865Y264041D01*
X48517Y263520D01*
X48394Y262906D01*
X48394Y262906D01*
Y261331D01*
X45669D01*
Y254167D01*
X45169Y253959D01*
X43938Y255191D01*
X44219Y255870D01*
X44368Y257000D01*
X44219Y258131D01*
X43783Y259184D01*
X43089Y260089D01*
X42184Y260783D01*
X41131Y261219D01*
X40000Y261368D01*
X38870Y261219D01*
X37816Y260783D01*
X36911Y260089D01*
X36217Y259184D01*
X35781Y258131D01*
X35632Y257000D01*
X35781Y255870D01*
X36217Y254816D01*
X36911Y253911D01*
X37816Y253217D01*
X38870Y252781D01*
X40000Y252632D01*
X41131Y252781D01*
X41809Y253062D01*
X43955Y250916D01*
X44444Y250590D01*
X45020Y250475D01*
X77299D01*
X77586Y249975D01*
X77446Y249721D01*
X76484Y249322D01*
X75579Y248628D01*
X74885Y247723D01*
X74449Y246670D01*
X74300Y245539D01*
X74449Y244409D01*
X74885Y243355D01*
X74896Y243342D01*
Y236105D01*
X74832Y235952D01*
X74697Y234925D01*
X74832Y233897D01*
X74971Y233562D01*
Y223772D01*
X67952D01*
X67799Y223836D01*
X66772Y223971D01*
X63228D01*
X62201Y223836D01*
X61243Y223439D01*
X60420Y222808D01*
X59789Y221986D01*
X59393Y221028D01*
X59257Y220000D01*
X59393Y218972D01*
X59789Y218015D01*
X60277Y217379D01*
X60038Y216879D01*
X40709D01*
Y223937D01*
X29291D01*
Y216131D01*
X25709D01*
Y223937D01*
X14291D01*
Y216063D01*
X14940D01*
X15120Y215563D01*
X12538Y212981D01*
X12212Y212492D01*
X12097Y211916D01*
Y194626D01*
X12212Y194050D01*
X12538Y193562D01*
X14592Y191508D01*
X14393Y191028D01*
X14257Y190000D01*
X14393Y188972D01*
X14789Y188014D01*
X15420Y187192D01*
X16243Y186561D01*
X17201Y186164D01*
X18228Y186029D01*
X21772D01*
X22799Y186164D01*
X23757Y186561D01*
X24580Y187192D01*
X25211Y188014D01*
X25409Y188495D01*
X29590D01*
X29789Y188014D01*
X30420Y187192D01*
X31243Y186561D01*
X32201Y186164D01*
X33228Y186029D01*
X36772D01*
X37799Y186164D01*
X38757Y186561D01*
X39580Y187192D01*
X40211Y188014D01*
X40607Y188972D01*
X40743Y190000D01*
X40607Y191028D01*
X40211Y191985D01*
X39580Y192808D01*
X38757Y193439D01*
X37799Y193836D01*
X36772Y193971D01*
X33228D01*
X32201Y193836D01*
X31243Y193439D01*
X30420Y192808D01*
X29789Y191985D01*
X29590Y191505D01*
X25409D01*
X25211Y191985D01*
X24580Y192808D01*
X23757Y193439D01*
X22799Y193836D01*
X21772Y193971D01*
X18228D01*
X17201Y193836D01*
X16720Y193637D01*
X15108Y195249D01*
Y196810D01*
X15608Y197048D01*
X16243Y196561D01*
X17201Y196164D01*
X18228Y196029D01*
X21772D01*
X22799Y196164D01*
X23757Y196561D01*
X24580Y197192D01*
X25211Y198014D01*
X25409Y198495D01*
X29590D01*
X29789Y198014D01*
X30420Y197192D01*
X31243Y196561D01*
X32201Y196164D01*
X33228Y196029D01*
X36772D01*
X37799Y196164D01*
X38757Y196561D01*
X39580Y197192D01*
X40211Y198014D01*
X40607Y198972D01*
X40743Y200000D01*
X40607Y201028D01*
X40211Y201986D01*
X39580Y202808D01*
X38757Y203439D01*
X37799Y203836D01*
X36772Y203971D01*
X33228D01*
X32201Y203836D01*
X31243Y203439D01*
X30420Y202808D01*
X29789Y201986D01*
X29590Y201505D01*
X25409D01*
X25211Y201986D01*
X24580Y202808D01*
X23757Y203439D01*
X22799Y203836D01*
X21772Y203971D01*
X18228D01*
X17201Y203836D01*
X16243Y203439D01*
X15608Y202952D01*
X15108Y203190D01*
Y206810D01*
X15608Y207048D01*
X16243Y206561D01*
X17201Y206164D01*
X18228Y206029D01*
X21772D01*
X22799Y206164D01*
X23757Y206561D01*
X24580Y207192D01*
X25211Y208014D01*
X25409Y208495D01*
X29590D01*
X29789Y208014D01*
X30420Y207192D01*
X31243Y206561D01*
X32201Y206164D01*
X33228Y206029D01*
X36772D01*
X37799Y206164D01*
X38280Y206363D01*
X47736Y196907D01*
X47717Y196833D01*
X47148Y196619D01*
X46774Y196869D01*
X46500Y196924D01*
Y195000D01*
Y193076D01*
X46774Y193131D01*
X47431Y193569D01*
X47508Y193684D01*
X48008Y193533D01*
Y187173D01*
X48122Y186597D01*
X48448Y186109D01*
X60248Y174310D01*
X60736Y173983D01*
X61084Y173914D01*
X61171Y173652D01*
X61174Y173386D01*
X60420Y172808D01*
X59789Y171985D01*
X59393Y171028D01*
X59257Y170000D01*
X59393Y168972D01*
X59789Y168015D01*
X60420Y167192D01*
X61174Y166614D01*
X61171Y166348D01*
X61084Y166086D01*
X60736Y166017D01*
X60248Y165690D01*
X56936Y162378D01*
X56609Y161890D01*
X56495Y161314D01*
Y155598D01*
X56439Y155561D01*
X55960Y154845D01*
X55792Y154000D01*
X55960Y153155D01*
X56439Y152439D01*
X57088Y152005D01*
X57081Y151735D01*
X57005Y151505D01*
X55181D01*
X55144Y151561D01*
X54428Y152040D01*
X53583Y152208D01*
X52738Y152040D01*
X52022Y151561D01*
X51543Y150845D01*
X51375Y150000D01*
X51543Y149155D01*
X52022Y148439D01*
X52738Y147960D01*
X53583Y147792D01*
X54428Y147960D01*
X55144Y148439D01*
X55181Y148495D01*
X59591D01*
X59789Y148014D01*
X60420Y147192D01*
X60874Y146844D01*
X60852Y146230D01*
X60659Y146101D01*
X38219Y123662D01*
X37799Y123836D01*
X36772Y123971D01*
X33228D01*
X32201Y123836D01*
X31243Y123439D01*
X30420Y122808D01*
X29789Y121985D01*
X29590Y121505D01*
X25409D01*
X25211Y121985D01*
X24580Y122808D01*
X23757Y123439D01*
X22799Y123836D01*
X21772Y123971D01*
X18228D01*
X17201Y123836D01*
X16243Y123439D01*
X15420Y122808D01*
X14789Y121985D01*
X14393Y121028D01*
X14257Y120000D01*
X14393Y118972D01*
X14789Y118015D01*
X15420Y117192D01*
X16243Y116561D01*
X17201Y116164D01*
X18228Y116029D01*
X21772D01*
X22799Y116164D01*
X23757Y116561D01*
X24580Y117192D01*
X25211Y118015D01*
X25409Y118495D01*
X29590D01*
X29789Y118015D01*
X30420Y117192D01*
X31243Y116561D01*
X32201Y116164D01*
X33228Y116029D01*
X36772D01*
X37799Y116164D01*
X38757Y116561D01*
X39580Y117192D01*
X40211Y118015D01*
X40607Y118972D01*
X40743Y120000D01*
X40607Y121028D01*
X40383Y121568D01*
X58766Y139951D01*
X59288Y139766D01*
X59393Y138972D01*
X59789Y138014D01*
X60420Y137192D01*
X60904Y136821D01*
X60861Y136224D01*
X60622Y136064D01*
X38219Y113662D01*
X37799Y113836D01*
X36772Y113971D01*
X33228D01*
X32201Y113836D01*
X31243Y113439D01*
X30420Y112808D01*
X29789Y111986D01*
X29590Y111505D01*
X25409D01*
X25211Y111986D01*
X24580Y112808D01*
X23757Y113439D01*
X22799Y113836D01*
X21772Y113971D01*
X18228D01*
X17201Y113836D01*
X16243Y113439D01*
X15420Y112808D01*
X14789Y111986D01*
X14393Y111028D01*
X14257Y110000D01*
X14393Y108972D01*
X14789Y108015D01*
X15420Y107192D01*
X16243Y106561D01*
X17201Y106164D01*
X18228Y106029D01*
X21772D01*
X22799Y106164D01*
X23757Y106561D01*
X24580Y107192D01*
X25211Y108015D01*
X25409Y108495D01*
X29590D01*
X29789Y108015D01*
X30420Y107192D01*
X31243Y106561D01*
X32201Y106164D01*
X33228Y106029D01*
X36772D01*
X37799Y106164D01*
X38757Y106561D01*
X39580Y107192D01*
X40211Y108015D01*
X40607Y108972D01*
X40743Y110000D01*
X40607Y111028D01*
X40383Y111568D01*
X58766Y129951D01*
X59288Y129766D01*
X59393Y128972D01*
X59592Y128492D01*
X57538Y126438D01*
X57212Y125950D01*
X57097Y125374D01*
Y118084D01*
X57212Y117508D01*
X57538Y117019D01*
X60622Y113936D01*
X60861Y113776D01*
X60904Y113179D01*
X60420Y112808D01*
X59789Y111986D01*
X59393Y111028D01*
X59257Y110000D01*
X59393Y108972D01*
X59789Y108015D01*
X60420Y107192D01*
X60664Y107005D01*
X60494Y106505D01*
X41772D01*
X41196Y106391D01*
X40707Y106064D01*
X38280Y103637D01*
X37799Y103836D01*
X36772Y103971D01*
X33228D01*
X32201Y103836D01*
X31243Y103439D01*
X30420Y102808D01*
X29789Y101986D01*
X29590Y101505D01*
X25409D01*
X25211Y101986D01*
X24580Y102808D01*
X23757Y103439D01*
X22799Y103836D01*
X21772Y103971D01*
X18228D01*
X17201Y103836D01*
X16243Y103439D01*
X15420Y102808D01*
X14789Y101986D01*
X14393Y101028D01*
X14257Y100000D01*
X14393Y98972D01*
X14789Y98014D01*
X15420Y97192D01*
X16243Y96561D01*
X17201Y96164D01*
X18228Y96029D01*
X21772D01*
X22799Y96164D01*
X23757Y96561D01*
X24580Y97192D01*
X25211Y98014D01*
X25409Y98495D01*
X29590D01*
X29789Y98014D01*
X30420Y97192D01*
X31243Y96561D01*
X32201Y96164D01*
X33228Y96029D01*
X36772D01*
X37799Y96164D01*
X38757Y96561D01*
X39580Y97192D01*
X40211Y98014D01*
X40607Y98972D01*
X40743Y100000D01*
X40607Y101028D01*
X40408Y101508D01*
X42395Y103495D01*
X60494D01*
X60664Y102995D01*
X60420Y102808D01*
X59789Y101986D01*
X59393Y101028D01*
X59257Y100000D01*
X59393Y98972D01*
X59789Y98014D01*
X60420Y97192D01*
X61243Y96561D01*
X62201Y96164D01*
X63228Y96029D01*
X66772D01*
X67799Y96164D01*
X68757Y96561D01*
X69580Y97192D01*
X70211Y98014D01*
X70410Y98495D01*
X74590D01*
X74789Y98014D01*
X75420Y97192D01*
X76243Y96561D01*
X77201Y96164D01*
X78228Y96029D01*
X81772D01*
X82799Y96164D01*
X83280Y96363D01*
X85333Y94310D01*
X85822Y93983D01*
X86398Y93869D01*
X119632D01*
X119802Y93369D01*
X119269Y92959D01*
X118604Y92093D01*
X118185Y91083D01*
X118109Y90500D01*
X129891D01*
X129815Y91083D01*
X129396Y92093D01*
X128731Y92959D01*
X128103Y93441D01*
X128228Y93976D01*
X128264Y93983D01*
X128752Y94310D01*
X130054Y95611D01*
X130489Y95339D01*
X130648Y94540D01*
X131126Y93824D01*
X131182Y93786D01*
Y83442D01*
X130310Y82570D01*
X129983Y82082D01*
X129869Y81505D01*
Y77368D01*
X129369Y77198D01*
X128960Y77731D01*
X128093Y78396D01*
X127083Y78815D01*
X126500Y78891D01*
Y73000D01*
Y67109D01*
X127083Y67185D01*
X128093Y67604D01*
X128960Y68269D01*
X129369Y68802D01*
X129869Y68632D01*
Y55940D01*
X129983Y55364D01*
X130310Y54875D01*
X135951Y49234D01*
X135766Y48712D01*
X134972Y48607D01*
X134014Y48211D01*
X133192Y47580D01*
X133005Y47336D01*
X132505Y47506D01*
Y49686D01*
X132391Y50262D01*
X132064Y50751D01*
X116049Y66766D01*
X116234Y67288D01*
X117028Y67393D01*
X117985Y67789D01*
X118808Y68420D01*
X119439Y69243D01*
X119836Y70201D01*
X119971Y71228D01*
Y74772D01*
X119836Y75799D01*
X119439Y76757D01*
X118808Y77580D01*
X117985Y78211D01*
X117028Y78607D01*
X116000Y78743D01*
X114972Y78607D01*
X114014Y78211D01*
X113379Y77723D01*
X112879Y77962D01*
Y83485D01*
X113379Y83692D01*
X115159Y81912D01*
X115044Y81336D01*
X115212Y80491D01*
X115691Y79774D01*
X116407Y79296D01*
X117252Y79128D01*
X118097Y79296D01*
X118813Y79774D01*
X119291Y80491D01*
X119459Y81336D01*
X119291Y82181D01*
X118813Y82897D01*
X118097Y83375D01*
X117918Y83411D01*
X110244Y91084D01*
X109756Y91410D01*
X109180Y91525D01*
X96695D01*
X96119Y91410D01*
X96043Y91360D01*
X85470D01*
X85211Y91985D01*
X84580Y92808D01*
X83757Y93439D01*
X82799Y93836D01*
X81772Y93971D01*
X78228D01*
X77201Y93836D01*
X76243Y93439D01*
X75420Y92808D01*
X74789Y91985D01*
X74590Y91505D01*
X70410D01*
X70211Y91985D01*
X69580Y92808D01*
X68757Y93439D01*
X67799Y93836D01*
X66772Y93971D01*
X63228D01*
X62201Y93836D01*
X61243Y93439D01*
X60420Y92808D01*
X59789Y91985D01*
X59393Y91028D01*
X59257Y90000D01*
X59393Y88972D01*
X59789Y88015D01*
X60420Y87192D01*
X61243Y86561D01*
X62201Y86164D01*
X63228Y86029D01*
X66772D01*
X67799Y86164D01*
X68757Y86561D01*
X69580Y87192D01*
X70211Y88015D01*
X70410Y88495D01*
X74590D01*
X74789Y88015D01*
X75420Y87192D01*
X76243Y86561D01*
X77201Y86164D01*
X78228Y86029D01*
X81507D01*
X81714Y85529D01*
X77223Y81038D01*
X69393D01*
X69242Y81538D01*
X69596Y81775D01*
X70034Y82431D01*
X70089Y82705D01*
X66242D01*
X66296Y82431D01*
X66735Y81775D01*
X67089Y81538D01*
X66937Y81038D01*
X42788D01*
X42751Y81094D01*
X42035Y81573D01*
X41190Y81741D01*
X40345Y81573D01*
X39629Y81094D01*
X39150Y80378D01*
X38982Y79533D01*
X39150Y78688D01*
X39629Y77972D01*
X40345Y77493D01*
X41190Y77325D01*
X42035Y77493D01*
X42751Y77972D01*
X42788Y78028D01*
X77847D01*
X78423Y78142D01*
X78911Y78469D01*
X86332Y85890D01*
X88307D01*
X88543Y85449D01*
X88501Y85385D01*
X88333Y84541D01*
X88348Y84464D01*
X85466Y81582D01*
X84763D01*
X84187Y81467D01*
X83698Y81141D01*
X79936Y77378D01*
X79609Y76890D01*
X79495Y76314D01*
Y69686D01*
X79609Y69110D01*
X79936Y68622D01*
X85875Y62683D01*
X86363Y62357D01*
X86939Y62242D01*
X88666D01*
X91375Y59533D01*
X91230Y59054D01*
X91155Y59040D01*
X90439Y58561D01*
X90402Y58505D01*
X83542D01*
X82966Y58391D01*
X82478Y58064D01*
X77658Y53244D01*
X77130Y53424D01*
X77043Y54083D01*
X76625Y55093D01*
X75959Y55959D01*
X75093Y56625D01*
X74083Y57043D01*
X73426Y57129D01*
X73135Y57536D01*
X73227Y58000D01*
X73120Y58540D01*
X73440Y59068D01*
X73481Y59092D01*
X74028Y59164D01*
X74985Y59561D01*
X75808Y60192D01*
X76439Y61014D01*
X76836Y61972D01*
X76971Y63000D01*
X76836Y64028D01*
X76439Y64986D01*
X75808Y65808D01*
X74985Y66439D01*
X74028Y66836D01*
X73000Y66971D01*
X71972Y66836D01*
X71014Y66439D01*
X70192Y65808D01*
X69561Y64986D01*
X69164Y64028D01*
X69029Y63000D01*
X69062Y62748D01*
X68768Y62603D01*
X68584Y62553D01*
X68130Y62856D01*
X67554Y62971D01*
X48055D01*
X48018Y63026D01*
X47302Y63505D01*
X46457Y63673D01*
X45612Y63505D01*
X44896Y63026D01*
X44417Y62310D01*
X44249Y61465D01*
X44417Y60620D01*
X44896Y59904D01*
X45612Y59426D01*
X46457Y59258D01*
X47302Y59426D01*
X48018Y59904D01*
X48055Y59960D01*
X66931D01*
X68825Y58066D01*
X68812Y58000D01*
X68980Y57155D01*
X69459Y56439D01*
X69685Y56288D01*
X69781Y55622D01*
X69375Y55093D01*
X68957Y54083D01*
X68880Y53500D01*
X73000D01*
Y52500D01*
X68880D01*
X68957Y51917D01*
X69375Y50907D01*
X69780Y50379D01*
X69534Y49879D01*
X39024D01*
X38448Y49765D01*
X37959Y49438D01*
X34608Y46087D01*
X34000Y46208D01*
X33155Y46040D01*
X32439Y45561D01*
X31960Y44845D01*
X31792Y44000D01*
X31960Y43155D01*
X32439Y42439D01*
X33155Y41960D01*
X34000Y41792D01*
X34845Y41960D01*
X35561Y42439D01*
X36040Y43155D01*
X36066Y43288D01*
X39647Y46869D01*
X56068D01*
X56310Y46369D01*
X55960Y45845D01*
X55792Y45000D01*
X55960Y44155D01*
X56439Y43439D01*
X56495Y43402D01*
Y35346D01*
X56609Y34770D01*
X56936Y34282D01*
X58632Y32585D01*
X58363Y32179D01*
X57406Y32576D01*
X56378Y32711D01*
X55350Y32576D01*
X54392Y32179D01*
X53570Y31548D01*
X52939Y30726D01*
X52542Y29768D01*
X52407Y28740D01*
Y25197D01*
X52542Y24169D01*
X52939Y23211D01*
X53426Y22576D01*
X53188Y22076D01*
X49568D01*
X49330Y22576D01*
X49817Y23211D01*
X50214Y24169D01*
X50349Y25197D01*
Y28740D01*
X50214Y29768D01*
X49817Y30726D01*
X49186Y31548D01*
X48363Y32179D01*
X47406Y32576D01*
X46378Y32711D01*
X45350Y32576D01*
X44392Y32179D01*
X43570Y31548D01*
X42939Y30726D01*
X42542Y29768D01*
X42407Y28740D01*
Y25197D01*
X42542Y24169D01*
X42939Y23211D01*
X43426Y22576D01*
X43188Y22076D01*
X39568D01*
X39329Y22576D01*
X39817Y23211D01*
X40214Y24169D01*
X40349Y25197D01*
Y28740D01*
X40214Y29768D01*
X39817Y30726D01*
X39186Y31548D01*
X38363Y32179D01*
X37406Y32576D01*
X36378Y32711D01*
X35350Y32576D01*
X34392Y32179D01*
X33570Y31548D01*
X32939Y30726D01*
X32542Y29768D01*
X32407Y28740D01*
Y25197D01*
X32542Y24169D01*
X32939Y23211D01*
X33426Y22576D01*
X33188Y22076D01*
X29568D01*
X29329Y22576D01*
X29817Y23211D01*
X30214Y24169D01*
X30349Y25197D01*
Y28740D01*
X30214Y29768D01*
X29817Y30726D01*
X29186Y31548D01*
X28363Y32179D01*
X27406Y32576D01*
X26378Y32711D01*
X25350Y32576D01*
X24393Y32179D01*
X23570Y31548D01*
X22939Y30726D01*
X22542Y29768D01*
X22407Y28740D01*
Y25197D01*
X22542Y24169D01*
X22939Y23211D01*
X23426Y22576D01*
X23188Y22076D01*
X19568D01*
X19330Y22576D01*
X19817Y23211D01*
X20214Y24169D01*
X20349Y25197D01*
Y28740D01*
X20214Y29768D01*
X19817Y30726D01*
X19186Y31548D01*
X18363Y32179D01*
X17406Y32576D01*
X16378Y32711D01*
X15350Y32576D01*
X14392Y32179D01*
X13570Y31548D01*
X12939Y30726D01*
X12542Y29768D01*
X12407Y28740D01*
Y25197D01*
X12542Y24169D01*
X12939Y23211D01*
X13426Y22576D01*
X13188Y22076D01*
X11627D01*
X10015Y23689D01*
X10214Y24169D01*
X10349Y25197D01*
Y28740D01*
X10214Y29768D01*
X9817Y30726D01*
X9186Y31548D01*
X8363Y32179D01*
X7406Y32576D01*
X6378Y32711D01*
X5350Y32576D01*
X4392Y32179D01*
X3570Y31548D01*
X2939Y30726D01*
X2542Y29768D01*
X2407Y28740D01*
Y25197D01*
X2542Y24169D01*
X2939Y23211D01*
X3570Y22389D01*
X4392Y21758D01*
X5350Y21361D01*
X6378Y21226D01*
X7406Y21361D01*
X7886Y21560D01*
X9939Y19507D01*
X10428Y19180D01*
X11004Y19066D01*
X20767D01*
X21002Y18625D01*
X20960Y18561D01*
X20792Y17717D01*
X20960Y16872D01*
X21002Y16808D01*
X20767Y16367D01*
X11594D01*
X11018Y16253D01*
X10530Y15927D01*
X7886Y13282D01*
X7406Y13481D01*
X6378Y13617D01*
X5350Y13481D01*
X4392Y13085D01*
X3570Y12454D01*
X2939Y11631D01*
X2542Y10673D01*
X2407Y9646D01*
Y6102D01*
X2542Y5075D01*
X2939Y4117D01*
X3570Y3294D01*
X4392Y2663D01*
X5350Y2267D01*
X6378Y2131D01*
X7406Y2267D01*
X8363Y2663D01*
X9186Y3294D01*
X9817Y4117D01*
X10214Y5075D01*
X10349Y6102D01*
Y9646D01*
X10214Y10673D01*
X10015Y11154D01*
X12218Y13357D01*
X13926D01*
X14096Y12857D01*
X13570Y12454D01*
X12939Y11631D01*
X12542Y10673D01*
X12407Y9646D01*
Y6102D01*
X12542Y5075D01*
X12939Y4117D01*
X13570Y3294D01*
X14392Y2663D01*
X15350Y2267D01*
X16378Y2131D01*
X17406Y2267D01*
X18363Y2663D01*
X19186Y3294D01*
X19817Y4117D01*
X20214Y5075D01*
X20349Y6102D01*
Y9646D01*
X20214Y10673D01*
X19817Y11631D01*
X19186Y12454D01*
X18660Y12857D01*
X18830Y13357D01*
X23926D01*
X24096Y12857D01*
X23570Y12454D01*
X22939Y11631D01*
X22542Y10673D01*
X22407Y9646D01*
Y6102D01*
X22542Y5075D01*
X22939Y4117D01*
X23570Y3294D01*
X24393Y2663D01*
X25350Y2267D01*
X26378Y2131D01*
X27406Y2267D01*
X28363Y2663D01*
X29186Y3294D01*
X29817Y4117D01*
X30214Y5075D01*
X30349Y6102D01*
Y9646D01*
X30214Y10673D01*
X29817Y11631D01*
X29186Y12454D01*
X28660Y12857D01*
X28830Y13357D01*
X33926D01*
X34096Y12857D01*
X33570Y12454D01*
X32939Y11631D01*
X32542Y10673D01*
X32407Y9646D01*
Y6102D01*
X32542Y5075D01*
X32939Y4117D01*
X33570Y3294D01*
X34392Y2663D01*
X35350Y2267D01*
X36378Y2131D01*
X37406Y2267D01*
X38363Y2663D01*
X39186Y3294D01*
X39817Y4117D01*
X40214Y5075D01*
X40349Y6102D01*
Y9646D01*
X40214Y10673D01*
X39817Y11631D01*
X39186Y12454D01*
X38660Y12857D01*
X38830Y13357D01*
X43926D01*
X44096Y12857D01*
X43570Y12454D01*
X42939Y11631D01*
X42542Y10673D01*
X42407Y9646D01*
Y6102D01*
X42542Y5075D01*
X42939Y4117D01*
X43570Y3294D01*
X44392Y2663D01*
X45350Y2267D01*
X46378Y2131D01*
X47406Y2267D01*
X48363Y2663D01*
X49186Y3294D01*
X49817Y4117D01*
X50214Y5075D01*
X50349Y6102D01*
Y9646D01*
X50214Y10673D01*
X49817Y11631D01*
X49186Y12454D01*
X48660Y12857D01*
X48830Y13357D01*
X53926D01*
X54096Y12857D01*
X53570Y12454D01*
X52939Y11631D01*
X52542Y10673D01*
X52407Y9646D01*
Y6102D01*
X52542Y5075D01*
X52939Y4117D01*
X53570Y3294D01*
X54392Y2663D01*
X55350Y2267D01*
X56378Y2131D01*
X57406Y2267D01*
X58363Y2663D01*
X59186Y3294D01*
X59817Y4117D01*
X60214Y5075D01*
X60349Y6102D01*
Y9646D01*
X60214Y10673D01*
X59817Y11631D01*
X59186Y12454D01*
X58660Y12857D01*
X58830Y13357D01*
X63926D01*
X64096Y12857D01*
X63570Y12454D01*
X62939Y11631D01*
X62542Y10673D01*
X62407Y9646D01*
Y6102D01*
X62542Y5075D01*
X62939Y4117D01*
X63570Y3294D01*
X64392Y2663D01*
X65350Y2267D01*
X66378Y2131D01*
X67406Y2267D01*
X68363Y2663D01*
X69186Y3294D01*
X69817Y4117D01*
X70214Y5075D01*
X70349Y6102D01*
Y9646D01*
X70214Y10673D01*
X69817Y11631D01*
X69186Y12454D01*
X68660Y12857D01*
X68830Y13357D01*
X73926D01*
X74096Y12857D01*
X73570Y12454D01*
X72939Y11631D01*
X72542Y10673D01*
X72407Y9646D01*
Y6102D01*
X72542Y5075D01*
X72939Y4117D01*
X73570Y3294D01*
X74392Y2663D01*
X75350Y2267D01*
X76378Y2131D01*
X77406Y2267D01*
X78363Y2663D01*
X79186Y3294D01*
X79817Y4117D01*
X80214Y5075D01*
X80349Y6102D01*
Y9646D01*
X80214Y10673D01*
X79817Y11631D01*
X79186Y12454D01*
X78660Y12857D01*
X78830Y13357D01*
X83926D01*
X84096Y12857D01*
X83570Y12454D01*
X82939Y11631D01*
X82542Y10673D01*
X82407Y9646D01*
Y6102D01*
X82542Y5075D01*
X82939Y4117D01*
X83570Y3294D01*
X84392Y2663D01*
X85350Y2267D01*
X86378Y2131D01*
X87406Y2267D01*
X88363Y2663D01*
X89186Y3294D01*
X89817Y4117D01*
X90214Y5075D01*
X90349Y6102D01*
Y9646D01*
X90214Y10673D01*
X89817Y11631D01*
X89186Y12454D01*
X88660Y12857D01*
X88668Y13062D01*
X88799Y13381D01*
X89256Y13472D01*
X89531Y13655D01*
X90078Y13466D01*
X90086Y13427D01*
X90565Y12710D01*
X91281Y12232D01*
X92126Y12064D01*
X92734Y12185D01*
X93016Y11731D01*
X92939Y11631D01*
X92542Y10673D01*
X92407Y9646D01*
Y6102D01*
X92542Y5075D01*
X92939Y4117D01*
X93570Y3294D01*
X94393Y2663D01*
X95350Y2267D01*
X96378Y2131D01*
X97406Y2267D01*
X98363Y2663D01*
X99186Y3294D01*
X99817Y4117D01*
X100214Y5075D01*
X100349Y6102D01*
Y9646D01*
X100214Y10673D01*
X99817Y11631D01*
X99330Y12266D01*
X99568Y12766D01*
X101128D01*
X102741Y11154D01*
X102542Y10673D01*
X102407Y9646D01*
Y6102D01*
X102542Y5075D01*
X102939Y4117D01*
X103570Y3294D01*
X104393Y2663D01*
X105350Y2267D01*
X106378Y2131D01*
X107406Y2267D01*
X108363Y2663D01*
X109186Y3294D01*
X109817Y4117D01*
X110214Y5075D01*
X110349Y6102D01*
Y9646D01*
X110214Y10673D01*
X109817Y11631D01*
X109426Y12140D01*
X109673Y12640D01*
X113083D01*
X113330Y12140D01*
X112939Y11631D01*
X112542Y10673D01*
X112407Y9646D01*
Y6102D01*
X112542Y5075D01*
X112939Y4117D01*
X113570Y3294D01*
X114392Y2663D01*
X115350Y2267D01*
X116378Y2131D01*
X117406Y2267D01*
X118363Y2663D01*
X119186Y3294D01*
X119817Y4117D01*
X120214Y5075D01*
X120349Y6102D01*
Y9646D01*
X120214Y10673D01*
X120015Y11154D01*
X121627Y12766D01*
X123188D01*
X123426Y12266D01*
X122939Y11631D01*
X122542Y10673D01*
X122407Y9646D01*
Y6102D01*
X122542Y5075D01*
X122939Y4117D01*
X123570Y3294D01*
X124392Y2663D01*
X125350Y2267D01*
X126378Y2131D01*
X127406Y2267D01*
X128363Y2663D01*
X129186Y3294D01*
X129817Y4117D01*
X130214Y5075D01*
X130349Y6102D01*
Y9646D01*
X130214Y10673D01*
X129817Y11631D01*
X129330Y12266D01*
X129568Y12766D01*
X133188D01*
X133426Y12266D01*
X132939Y11631D01*
X132542Y10673D01*
X132407Y9646D01*
Y6102D01*
X132542Y5075D01*
X132939Y4117D01*
X133570Y3294D01*
X134392Y2663D01*
X135350Y2267D01*
X136378Y2131D01*
X137406Y2267D01*
X138363Y2663D01*
X139186Y3294D01*
X139817Y4117D01*
X140214Y5075D01*
X140349Y6102D01*
Y9646D01*
X140214Y10673D01*
X139817Y11631D01*
X139330Y12266D01*
X139568Y12766D01*
X143188D01*
X143426Y12266D01*
X142939Y11631D01*
X142542Y10673D01*
X142407Y9646D01*
Y6102D01*
X142542Y5075D01*
X142939Y4117D01*
X143570Y3294D01*
X144393Y2663D01*
X145350Y2267D01*
X146378Y2131D01*
X147406Y2267D01*
X148363Y2663D01*
X149186Y3294D01*
X149817Y4117D01*
X150214Y5075D01*
X150349Y6102D01*
Y9646D01*
X150214Y10673D01*
X149817Y11631D01*
X149329Y12266D01*
X149568Y12766D01*
X153188D01*
X153426Y12266D01*
X152939Y11631D01*
X152542Y10673D01*
X152407Y9646D01*
Y6102D01*
X152542Y5075D01*
X152939Y4117D01*
X153570Y3294D01*
X154392Y2663D01*
X155350Y2267D01*
X156378Y2131D01*
X157406Y2267D01*
X158363Y2663D01*
X159186Y3294D01*
X159817Y4117D01*
X160214Y5075D01*
X160349Y6102D01*
Y9646D01*
X160214Y10673D01*
X159817Y11631D01*
X159329Y12266D01*
X159568Y12766D01*
X163188D01*
X163426Y12266D01*
X162939Y11631D01*
X162542Y10673D01*
X162407Y9646D01*
Y6102D01*
X162542Y5075D01*
X162939Y4117D01*
X163570Y3294D01*
X164392Y2663D01*
X165350Y2267D01*
X166378Y2131D01*
X167406Y2267D01*
X168363Y2663D01*
X169186Y3294D01*
X169817Y4117D01*
X170214Y5075D01*
X170349Y6102D01*
Y9646D01*
X170214Y10673D01*
X169817Y11631D01*
X169330Y12266D01*
X169568Y12766D01*
X173188D01*
X173426Y12266D01*
X172939Y11631D01*
X172542Y10673D01*
X172407Y9646D01*
Y6102D01*
X172542Y5075D01*
X172939Y4117D01*
X173570Y3294D01*
X174392Y2663D01*
X175350Y2267D01*
X176378Y2131D01*
X177406Y2267D01*
X178363Y2663D01*
X179186Y3294D01*
X179817Y4117D01*
X180214Y5075D01*
X180349Y6102D01*
Y9646D01*
X180214Y10673D01*
X179817Y11631D01*
X179330Y12266D01*
X179568Y12766D01*
X182912D01*
X183158Y12266D01*
X182753Y11738D01*
X182335Y10729D01*
X182193Y9646D01*
Y8374D01*
X186378D01*
X190563D01*
Y9646D01*
X190421Y10729D01*
X190003Y11738D01*
X189597Y12266D01*
X189844Y12766D01*
X192912D01*
X193158Y12266D01*
X192753Y11738D01*
X192335Y10729D01*
X192192Y9646D01*
Y8374D01*
X196378D01*
Y7874D01*
D01*
Y8374D01*
X200563D01*
Y9646D01*
X200421Y10729D01*
X200003Y11738D01*
X199893Y11881D01*
X200114Y12329D01*
X210144D01*
X210720Y12444D01*
X211209Y12770D01*
X211933Y13495D01*
X214138D01*
X214275Y12995D01*
X213570Y12454D01*
X212939Y11631D01*
X212542Y10673D01*
X212407Y9646D01*
Y6102D01*
X212542Y5075D01*
X212939Y4117D01*
X213570Y3294D01*
X214392Y2663D01*
X215350Y2267D01*
X216378Y2131D01*
X217406Y2267D01*
X218363Y2663D01*
X219186Y3294D01*
X219817Y4117D01*
X220214Y5075D01*
X220349Y6102D01*
Y9646D01*
X220214Y10673D01*
X219817Y11631D01*
X219186Y12454D01*
X218481Y12995D01*
X218618Y13495D01*
X222723D01*
X223299Y13609D01*
X223788Y13936D01*
X232068Y22216D01*
X232395Y22705D01*
X232509Y23281D01*
Y38681D01*
X232720Y38807D01*
X233220Y38524D01*
Y20419D01*
X226413Y13612D01*
X226378Y13617D01*
X225350Y13481D01*
X224393Y13085D01*
X223570Y12454D01*
X222939Y11631D01*
X222542Y10673D01*
X222407Y9646D01*
Y6102D01*
X222542Y5075D01*
X222939Y4117D01*
X223570Y3294D01*
X224393Y2663D01*
X225350Y2267D01*
X226378Y2131D01*
X227406Y2267D01*
X228363Y2663D01*
X229186Y3294D01*
X229817Y4117D01*
X230214Y5075D01*
X230349Y6102D01*
Y9646D01*
X230344Y9681D01*
X237965Y17302D01*
X238407Y17878D01*
X238685Y18548D01*
X238780Y19268D01*
Y43500D01*
X238685Y44219D01*
X238407Y44890D01*
X237965Y45465D01*
X222780Y60651D01*
Y67574D01*
X222685Y68293D01*
X222407Y68964D01*
X221966Y69539D01*
X221566Y69939D01*
X221574Y70000D01*
X221452Y70925D01*
X221095Y71787D01*
X220527Y72527D01*
X219787Y73095D01*
X218925Y73452D01*
X218000Y73574D01*
X217075Y73452D01*
X216665Y73282D01*
X216282Y73665D01*
X216452Y74075D01*
X216574Y75000D01*
X216452Y75925D01*
X216095Y76787D01*
X215527Y77527D01*
X214787Y78095D01*
X213925Y78452D01*
X213000Y78574D01*
X212075Y78452D01*
X211213Y78095D01*
X210473Y77527D01*
X209905Y76787D01*
X209548Y75925D01*
X209426Y75000D01*
X209548Y74075D01*
X209905Y73213D01*
X210473Y72473D01*
X211213Y71905D01*
X212075Y71548D01*
X213000Y71426D01*
X213925Y71548D01*
X214335Y71718D01*
X214718Y71335D01*
X214548Y70925D01*
X214426Y70000D01*
X214548Y69075D01*
X214718Y68665D01*
X214335Y68282D01*
X213925Y68452D01*
X213000Y68574D01*
X212075Y68452D01*
X211213Y68095D01*
X210473Y67527D01*
X209905Y66787D01*
X209788Y66505D01*
X203525D01*
X200831Y69199D01*
X201093Y69644D01*
X202131Y69781D01*
X203184Y70217D01*
X204089Y70911D01*
X204783Y71816D01*
X205219Y72869D01*
X205368Y74000D01*
X205219Y75130D01*
X204783Y76184D01*
X204089Y77089D01*
X203184Y77783D01*
X202131Y78219D01*
X201000Y78368D01*
X199870Y78219D01*
X198816Y77783D01*
X197911Y77089D01*
X197790Y76931D01*
X197255Y77055D01*
X197225Y77206D01*
X196899Y77695D01*
X196450Y78144D01*
Y78669D01*
X196891Y78905D01*
X196954Y78862D01*
X197799Y78694D01*
X198644Y78862D01*
X199360Y79341D01*
X199532Y79598D01*
X209417D01*
X209993Y79712D01*
X210481Y80039D01*
X218854Y88411D01*
X219432Y88321D01*
X219604Y87907D01*
X220269Y87041D01*
X221136Y86375D01*
X222145Y85957D01*
X223228Y85815D01*
X224500D01*
Y90000D01*
Y94185D01*
X223228D01*
X222145Y94043D01*
X221136Y93625D01*
X220269Y92959D01*
X219992Y92599D01*
X219493Y92769D01*
Y94135D01*
X221720Y96363D01*
X222201Y96164D01*
X223228Y96029D01*
X226772D01*
X227799Y96164D01*
X228757Y96561D01*
X229580Y97192D01*
X230211Y98014D01*
X230607Y98972D01*
X230743Y100000D01*
X230607Y101028D01*
X230211Y101986D01*
X229580Y102808D01*
X229336Y102995D01*
X229506Y103495D01*
X250494D01*
X250664Y102995D01*
X250420Y102808D01*
X249789Y101986D01*
X249393Y101028D01*
X249257Y100000D01*
X249393Y98972D01*
X249789Y98014D01*
X250420Y97192D01*
X251243Y96561D01*
X252201Y96164D01*
X253228Y96029D01*
X256772D01*
X257799Y96164D01*
X258757Y96561D01*
X259580Y97192D01*
X260211Y98014D01*
X260607Y98972D01*
X260743Y100000D01*
X260607Y101028D01*
X260408Y101508D01*
X267972Y109072D01*
X268298Y109560D01*
X268413Y110136D01*
Y110686D01*
X269130Y110781D01*
X270184Y111217D01*
X271089Y111911D01*
X271783Y112816D01*
X272219Y113870D01*
X272368Y115000D01*
X272219Y116130D01*
X271783Y117184D01*
X271089Y118089D01*
X270184Y118783D01*
X269505Y119064D01*
Y122278D01*
X274109Y126881D01*
X274571Y126690D01*
X274571Y53150D01*
X274571Y52474D01*
X274308Y51150D01*
X273791Y49903D01*
X273041Y48780D01*
X272086Y47825D01*
X270963Y47075D01*
X269716Y46558D01*
X268392Y46295D01*
X262912D01*
X262760Y46795D01*
X264145Y47721D01*
X265794Y49167D01*
X267240Y50816D01*
X268459Y52640D01*
X269429Y54607D01*
X270134Y56684D01*
X270562Y58835D01*
X270705Y61024D01*
X270562Y63212D01*
X270134Y65364D01*
X269429Y67440D01*
X268459Y69408D01*
X267240Y71231D01*
X265794Y72881D01*
X264145Y74327D01*
X262321Y75545D01*
X260354Y76515D01*
X258277Y77220D01*
X256126Y77648D01*
X253937Y77792D01*
X251748Y77648D01*
X249597Y77220D01*
X247682Y76570D01*
X247411Y77007D01*
X253900Y83495D01*
X263936D01*
X264217Y82816D01*
X264911Y81911D01*
X265816Y81217D01*
X266869Y80781D01*
X268000Y80632D01*
X269130Y80781D01*
X270184Y81217D01*
X271089Y81911D01*
X271783Y82816D01*
X272219Y83869D01*
X272368Y85000D01*
X272219Y86130D01*
X271783Y87184D01*
X271089Y88089D01*
X270184Y88783D01*
X269130Y89219D01*
X268000Y89368D01*
X266869Y89219D01*
X265816Y88783D01*
X264911Y88089D01*
X264217Y87184D01*
X263936Y86505D01*
X259506D01*
X259336Y87005D01*
X259580Y87192D01*
X260211Y88015D01*
X260607Y88972D01*
X260743Y90000D01*
X260607Y91028D01*
X260211Y91985D01*
X259580Y92808D01*
X258757Y93439D01*
X257799Y93836D01*
X256772Y93971D01*
X253228D01*
X252201Y93836D01*
X251243Y93439D01*
X250420Y92808D01*
X249789Y91985D01*
X249393Y91028D01*
X249257Y90000D01*
X249393Y88972D01*
X249789Y88015D01*
X250420Y87192D01*
X251243Y86561D01*
X251779Y86339D01*
X251896Y85749D01*
X229033Y62886D01*
X229000Y62892D01*
X228155Y62724D01*
X227439Y62245D01*
X226960Y61529D01*
X226792Y60684D01*
X226960Y59839D01*
X227439Y59123D01*
X228155Y58645D01*
X229000Y58477D01*
X229845Y58645D01*
X230561Y59123D01*
X231040Y59839D01*
X231208Y60684D01*
X231188Y60783D01*
X237954Y67549D01*
X238390Y67278D01*
X237740Y65364D01*
X237312Y63212D01*
X237169Y61024D01*
X237312Y58835D01*
X237740Y56684D01*
X238445Y54607D01*
X239415Y52640D01*
X240634Y50816D01*
X242080Y49167D01*
X243729Y47721D01*
X245553Y46502D01*
X247520Y45532D01*
X247771Y45447D01*
X247844Y44894D01*
X246908Y44269D01*
X246837Y44198D01*
X246754Y44142D01*
X245621Y43010D01*
X245566Y42926D01*
X245495Y42856D01*
X244605Y41524D01*
X244566Y41431D01*
X244511Y41348D01*
X243898Y39868D01*
X243878Y39770D01*
X243840Y39677D01*
X243528Y38107D01*
Y38031D01*
X243509Y37958D01*
X243470Y37157D01*
X243474Y37132D01*
X243469Y37107D01*
Y7874D01*
X243469Y7199D01*
X243205Y5875D01*
X242688Y4627D01*
X241938Y3505D01*
X240984Y2550D01*
X239861Y1800D01*
X238614Y1283D01*
X237289Y1020D01*
X7312D01*
X5964Y1288D01*
X4693Y1814D01*
X3550Y2578D01*
X2578Y3550D01*
X1814Y4693D01*
X1288Y5964D01*
X1020Y7312D01*
X1020Y8000D01*
X1020Y244000D01*
X1020Y244684D01*
X1287Y246027D01*
X1810Y247292D01*
X2571Y248430D01*
X3539Y249398D01*
X4677Y250158D01*
X5942Y250682D01*
X7284Y250949D01*
X7968Y250949D01*
X15590Y250949D01*
X15615Y250954D01*
X15641Y250950D01*
X16428Y250989D01*
X16501Y251007D01*
X16577D01*
X18121Y251314D01*
X18214Y251353D01*
X18312Y251372D01*
X19767Y251975D01*
X19850Y252031D01*
X19943Y252069D01*
X21252Y252944D01*
X21323Y253015D01*
X21407Y253071D01*
X22520Y254184D01*
X22576Y254267D01*
X22647Y254338D01*
X23521Y255647D01*
X23560Y255740D01*
X23616Y255824D01*
X24218Y257278D01*
X24238Y257377D01*
X24276Y257470D01*
X24583Y259014D01*
Y259089D01*
X24602Y259163D01*
X24640Y259950D01*
X24637Y259975D01*
X24642Y260000D01*
X24642Y267622D01*
X24642Y268306D01*
X24909Y269649D01*
X25432Y270914D01*
X26193Y272052D01*
X27161Y273020D01*
X28299Y273780D01*
X29564Y274304D01*
X30906Y274571D01*
X31591Y274571D01*
D02*
G37*
G36*
X118121Y257810D02*
Y252183D01*
X114378Y248441D01*
X114052Y247952D01*
X113937Y247376D01*
Y230702D01*
X114052Y230126D01*
X114378Y229637D01*
X114754Y229261D01*
Y214436D01*
X114699Y214398D01*
X114220Y213682D01*
X114052Y212837D01*
X114220Y211992D01*
X114699Y211276D01*
X115415Y210797D01*
X116260Y210629D01*
X116789Y210735D01*
X116861Y210693D01*
X117174Y210301D01*
X117097Y209916D01*
Y202626D01*
X117212Y202050D01*
X117538Y201562D01*
X119592Y199508D01*
X119393Y199028D01*
X119257Y198000D01*
X119393Y196972D01*
X119789Y196014D01*
X120277Y195379D01*
X120038Y194879D01*
X116803D01*
X112618Y199064D01*
X112129Y199391D01*
X111553Y199505D01*
X100409D01*
X100211Y199986D01*
X99817Y200499D01*
X100163Y200869D01*
X100651Y200543D01*
X101496Y200375D01*
X102341Y200543D01*
X103057Y201021D01*
X103536Y201737D01*
X103688Y202504D01*
X105579Y204394D01*
X112403D01*
X113053Y203960D01*
X113898Y203792D01*
X114743Y203960D01*
X115459Y204439D01*
X115937Y205155D01*
X116105Y206000D01*
X115937Y206845D01*
X115459Y207561D01*
X114743Y208040D01*
X113898Y208208D01*
X113053Y208040D01*
X112403Y207606D01*
X104914D01*
X104299Y207483D01*
X103778Y207135D01*
X103778Y207135D01*
X101418Y204774D01*
X100651Y204622D01*
X99935Y204144D01*
X99456Y203427D01*
X99288Y202582D01*
X99456Y201737D01*
X99737Y201317D01*
X99367Y200971D01*
X98757Y201439D01*
X97799Y201836D01*
X96772Y201971D01*
X96301D01*
X96133Y202471D01*
X96391Y202857D01*
X96505Y203433D01*
Y204029D01*
X96772D01*
X97799Y204164D01*
X98757Y204561D01*
X99580Y205192D01*
X100211Y206014D01*
X100607Y206972D01*
X100743Y208000D01*
X100607Y209028D01*
X100211Y209985D01*
X99580Y210808D01*
X98826Y211386D01*
X98829Y211652D01*
X98916Y211914D01*
X99264Y211983D01*
X99752Y212310D01*
X102462Y215019D01*
X102788Y215508D01*
X102903Y216084D01*
Y219916D01*
X102788Y220492D01*
X102462Y220981D01*
X99752Y223690D01*
X99264Y224017D01*
X98916Y224086D01*
X98829Y224348D01*
X98826Y224614D01*
X99580Y225192D01*
X100211Y226014D01*
X100607Y226972D01*
X100743Y228000D01*
X100607Y229028D01*
X100211Y229985D01*
X99580Y230808D01*
X98757Y231439D01*
X97799Y231836D01*
X96772Y231971D01*
X93228D01*
X92201Y231836D01*
X91243Y231439D01*
X90420Y230808D01*
X89992Y230250D01*
X89492Y230420D01*
Y232135D01*
X91720Y234363D01*
X92201Y234164D01*
X93228Y234029D01*
X96772D01*
X97799Y234164D01*
X98757Y234561D01*
X99580Y235192D01*
X100211Y236015D01*
X100607Y236972D01*
X100743Y238000D01*
X100607Y239028D01*
X100211Y239985D01*
X99580Y240808D01*
X98757Y241439D01*
X97799Y241836D01*
X96772Y241971D01*
X93228D01*
X92201Y241836D01*
X91243Y241439D01*
X90420Y240808D01*
X89789Y239985D01*
X89393Y239028D01*
X89257Y238000D01*
X89393Y236972D01*
X89592Y236492D01*
X86923Y233823D01*
X86597Y233335D01*
X86482Y232759D01*
Y220447D01*
X86184Y220210D01*
X85690Y220398D01*
X85607Y221028D01*
X85211Y221986D01*
X84580Y222808D01*
X83757Y223439D01*
X82799Y223836D01*
X82516Y223873D01*
Y233989D01*
X82639Y234925D01*
X82503Y235952D01*
X82440Y236105D01*
Y243342D01*
X82451Y243355D01*
X82887Y244409D01*
X82889Y244426D01*
X88829Y250366D01*
X89291Y250174D01*
Y244063D01*
X100709D01*
Y250250D01*
X101124Y250528D01*
X101274Y250466D01*
X102250Y250338D01*
X108004D01*
X108980Y250466D01*
X109890Y250843D01*
X110671Y251443D01*
X116651Y257422D01*
X116985Y257561D01*
X117621Y258049D01*
X118121Y257810D01*
D02*
G37*
G36*
X210854Y259986D02*
X210832Y259759D01*
X210678Y259460D01*
X210230Y259371D01*
X209741Y259045D01*
X199182Y248486D01*
X197660D01*
X197414Y248986D01*
X197969Y249709D01*
X198426Y250814D01*
X198517Y251500D01*
X194000D01*
Y252500D01*
X198517D01*
X198426Y253186D01*
X197969Y254291D01*
X197414Y255014D01*
X197660Y255514D01*
X203562D01*
X204138Y255629D01*
X204626Y255955D01*
X209073Y260402D01*
X210535D01*
X210854Y259986D01*
D02*
G37*
G36*
X240854Y266014D02*
X240217Y265184D01*
X239781Y264130D01*
X239632Y263000D01*
X239781Y261870D01*
X240217Y260816D01*
X240641Y260263D01*
X222936Y242558D01*
X222609Y242069D01*
X222495Y241493D01*
Y234064D01*
X221816Y233783D01*
X220911Y233089D01*
X220217Y232184D01*
X219936Y231505D01*
X218331D01*
Y234331D01*
X210331D01*
X210140Y234793D01*
X212191Y236844D01*
X212870Y236563D01*
X214000Y236414D01*
X215130Y236563D01*
X216184Y236999D01*
X217089Y237693D01*
X217783Y238598D01*
X218219Y239651D01*
X218368Y240782D01*
X218219Y241912D01*
X217783Y242966D01*
X217089Y243870D01*
X216184Y244565D01*
X215505Y244846D01*
Y247669D01*
X218331D01*
Y250495D01*
X219936D01*
X220217Y249816D01*
X220911Y248911D01*
X221816Y248217D01*
X222869Y247781D01*
X224000Y247632D01*
X225131Y247781D01*
X226184Y248217D01*
X227089Y248911D01*
X227783Y249816D01*
X228219Y250869D01*
X228368Y252000D01*
X228219Y253131D01*
X227783Y254184D01*
X227089Y255089D01*
X226184Y255783D01*
X225131Y256219D01*
X224923Y256246D01*
X224802Y256767D01*
X225025Y256916D01*
X234624Y266514D01*
X240725D01*
X240854Y266014D01*
D02*
G37*
G36*
X209669Y254062D02*
Y247669D01*
X212495D01*
Y244846D01*
X211816Y244565D01*
X210911Y243870D01*
X210217Y242966D01*
X209781Y241912D01*
X209632Y240782D01*
X209781Y239651D01*
X210062Y238973D01*
X204790Y233701D01*
X204464Y233212D01*
X204349Y232636D01*
Y226233D01*
X203908Y225997D01*
X203845Y226040D01*
X203000Y226208D01*
X202155Y226040D01*
X201439Y225561D01*
X200960Y224845D01*
X200792Y224000D01*
X200805Y223935D01*
X200740Y223837D01*
X200617Y223223D01*
X200617Y223223D01*
Y218460D01*
X200117Y218309D01*
X200084Y218358D01*
X193427Y225015D01*
X193500Y225163D01*
Y229500D01*
X189163D01*
X189015Y229427D01*
X184752Y233690D01*
X184264Y234017D01*
X183916Y234086D01*
X183829Y234348D01*
X183826Y234614D01*
X184580Y235192D01*
X185211Y236015D01*
X185607Y236972D01*
X185743Y238000D01*
X185607Y239028D01*
X185211Y239985D01*
X184723Y240621D01*
X184962Y241121D01*
X197101D01*
X197557Y240439D01*
X198273Y239960D01*
X199118Y239792D01*
X199963Y239960D01*
X200679Y240439D01*
X201158Y241155D01*
X201326Y242000D01*
X201158Y242845D01*
X200679Y243561D01*
X199963Y244040D01*
X199118Y244208D01*
X198426Y244070D01*
X198119Y244131D01*
X183981D01*
X183916Y244256D01*
X183849Y244631D01*
X184580Y245192D01*
X185211Y246014D01*
X185607Y246972D01*
X185743Y248000D01*
X185607Y249028D01*
X185211Y249986D01*
X184723Y250621D01*
X184962Y251121D01*
X186904D01*
X187475Y250549D01*
Y249921D01*
X187590Y249345D01*
X187916Y248856D01*
X190856Y245916D01*
X191345Y245590D01*
X191921Y245475D01*
X199806D01*
X200382Y245590D01*
X200870Y245916D01*
X209207Y254253D01*
X209669Y254062D01*
D02*
G37*
G36*
X144291Y254063D02*
X153580D01*
X156081Y251562D01*
X156570Y251235D01*
X157146Y251121D01*
X175038D01*
X175277Y250621D01*
X174789Y249986D01*
X174393Y249028D01*
X174257Y248000D01*
X174393Y246972D01*
X174789Y246014D01*
X175420Y245192D01*
X176151Y244631D01*
X176084Y244256D01*
X176019Y244131D01*
X166398D01*
X165822Y244017D01*
X165333Y243690D01*
X158365Y236722D01*
X157903Y236913D01*
Y243374D01*
X157788Y243950D01*
X157462Y244438D01*
X155408Y246492D01*
X155607Y246972D01*
X155743Y248000D01*
X155607Y249028D01*
X155211Y249986D01*
X154580Y250808D01*
X153757Y251439D01*
X152799Y251836D01*
X151772Y251971D01*
X148228D01*
X147201Y251836D01*
X146243Y251439D01*
X145420Y250808D01*
X144789Y249986D01*
X144393Y249028D01*
X144257Y248000D01*
X144393Y246972D01*
X144789Y246014D01*
X145420Y245192D01*
X146243Y244561D01*
X147201Y244164D01*
X148228Y244029D01*
X151772D01*
X152799Y244164D01*
X153280Y244363D01*
X154892Y242751D01*
Y241190D01*
X154392Y240952D01*
X153757Y241439D01*
X152799Y241836D01*
X151772Y241971D01*
X148228D01*
X147201Y241836D01*
X146243Y241439D01*
X145420Y240808D01*
X144789Y239985D01*
X144590Y239505D01*
X142785D01*
X141041Y241249D01*
X140552Y241576D01*
X139976Y241690D01*
X134024D01*
X133448Y241576D01*
X132959Y241249D01*
X131215Y239505D01*
X130410D01*
X130211Y239985D01*
X129580Y240808D01*
X129096Y241179D01*
X129139Y241776D01*
X129378Y241936D01*
X136914Y249472D01*
X137241Y249960D01*
X137275Y250135D01*
X143635Y256495D01*
X144291D01*
Y254063D01*
D02*
G37*
G36*
X239669Y254380D02*
Y247669D01*
X240228D01*
Y242980D01*
X240217Y242966D01*
X239781Y241912D01*
X239632Y240782D01*
X239781Y239651D01*
X240217Y238598D01*
X240228Y238584D01*
Y234331D01*
X239669D01*
Y225669D01*
X240228D01*
Y221198D01*
X240217Y221184D01*
X239781Y220130D01*
X239632Y219000D01*
X239781Y217869D01*
X240217Y216816D01*
X240228Y216802D01*
Y212331D01*
X239669D01*
Y203669D01*
X240228D01*
Y200198D01*
X240217Y200184D01*
X239781Y199130D01*
X239632Y198000D01*
X239781Y196870D01*
X240217Y195816D01*
X240228Y195802D01*
Y191331D01*
X239669D01*
Y182669D01*
X240228D01*
Y178198D01*
X240217Y178184D01*
X239781Y177130D01*
X239632Y176000D01*
X239731Y175247D01*
X239258Y175013D01*
X232889Y181382D01*
Y211717D01*
X232889Y211717D01*
X232767Y212331D01*
X232419Y212852D01*
X232419Y212852D01*
X221895Y223376D01*
X221802Y223845D01*
X221323Y224561D01*
X220607Y225040D01*
X219762Y225208D01*
X218917Y225040D01*
X218201Y224561D01*
X217722Y223845D01*
X217554Y223000D01*
X217722Y222155D01*
X218090Y221606D01*
X217683Y221314D01*
X217089Y222089D01*
X216184Y222783D01*
X215505Y223064D01*
Y225669D01*
X218331D01*
Y228495D01*
X219936D01*
X220217Y227816D01*
X220911Y226911D01*
X221816Y226217D01*
X222869Y225781D01*
X224000Y225632D01*
X225131Y225781D01*
X226184Y226217D01*
X227089Y226911D01*
X227783Y227816D01*
X228219Y228870D01*
X228368Y230000D01*
X228219Y231131D01*
X227783Y232184D01*
X227089Y233089D01*
X226184Y233783D01*
X225505Y234064D01*
Y240870D01*
X239207Y254572D01*
X239669Y254380D01*
D02*
G37*
G36*
X175277Y240621D02*
X174789Y239985D01*
X174393Y239028D01*
X174257Y238000D01*
X174393Y236972D01*
X174592Y236492D01*
X157605Y219505D01*
X155410D01*
X155211Y219986D01*
X154580Y220808D01*
X153757Y221439D01*
X152799Y221836D01*
X151772Y221971D01*
X148228D01*
X147201Y221836D01*
X146243Y221439D01*
X145420Y220808D01*
X144789Y219986D01*
X144393Y219028D01*
X144257Y218000D01*
X144393Y216972D01*
X144789Y216015D01*
X145420Y215192D01*
X145837Y214873D01*
X145816Y214258D01*
X141063Y209505D01*
X130410D01*
X130211Y209985D01*
X129580Y210808D01*
X128757Y211439D01*
X127799Y211836D01*
X126772Y211971D01*
X123228D01*
X122201Y211836D01*
X121243Y211439D01*
X121068Y211305D01*
X120619Y211526D01*
Y214474D01*
X121068Y214695D01*
X121243Y214561D01*
X122201Y214164D01*
X123228Y214029D01*
X126772D01*
X127799Y214164D01*
X128757Y214561D01*
X129580Y215192D01*
X130211Y216015D01*
X130607Y216972D01*
X130743Y218000D01*
X130607Y219028D01*
X130408Y219508D01*
X132395Y221495D01*
X132985Y221377D01*
X133217Y220816D01*
X133911Y219911D01*
X134816Y219217D01*
X135870Y218781D01*
X137000Y218632D01*
X138130Y218781D01*
X139184Y219217D01*
X140089Y219911D01*
X140783Y220816D01*
X141219Y221869D01*
X141368Y223000D01*
X141219Y224131D01*
X140783Y225184D01*
X140089Y226089D01*
X139184Y226783D01*
X138130Y227219D01*
X137000Y227368D01*
X135870Y227219D01*
X134816Y226783D01*
X133986Y226146D01*
X133486Y226275D01*
Y229725D01*
X133986Y229854D01*
X134816Y229217D01*
X135870Y228781D01*
X137000Y228632D01*
X138130Y228781D01*
X139184Y229217D01*
X140089Y229911D01*
X140783Y230816D01*
X141219Y231870D01*
X141356Y232907D01*
X141801Y233169D01*
X143035Y231936D01*
X143523Y231609D01*
X144099Y231495D01*
X145494D01*
X145664Y230995D01*
X145420Y230808D01*
X144789Y229985D01*
X144393Y229028D01*
X144257Y228000D01*
X144393Y226972D01*
X144789Y226014D01*
X145420Y225192D01*
X146243Y224561D01*
X147201Y224164D01*
X148228Y224029D01*
X151772D01*
X152799Y224164D01*
X153757Y224561D01*
X154580Y225192D01*
X155211Y226014D01*
X155607Y226972D01*
X155743Y228000D01*
X155607Y229028D01*
X155408Y229508D01*
X167021Y241121D01*
X175038D01*
X175277Y240621D01*
D02*
G37*
G36*
X252951Y254350D02*
X253022Y254279D01*
X253078Y254195D01*
X254195Y253078D01*
X254279Y253022D01*
X254350Y252951D01*
X255664Y252073D01*
X255757Y252034D01*
X255840Y251979D01*
X257301Y251374D01*
X257399Y251354D01*
X257492Y251316D01*
X259042Y251007D01*
X259118D01*
X259191Y250989D01*
X259981Y250950D01*
X260007Y250954D01*
X260032Y250949D01*
X268032D01*
X268676Y250949D01*
X269939Y250698D01*
X271129Y250205D01*
X272200Y249489D01*
X273111Y248578D01*
X273827Y247507D01*
X274320Y246317D01*
X274571Y245054D01*
X274571Y244409D01*
Y217175D01*
X274109Y216984D01*
X272343Y218749D01*
X272181Y218858D01*
X272125Y219055D01*
X272124Y219493D01*
X272539Y220034D01*
X272856Y220800D01*
X272964Y221622D01*
X272856Y222444D01*
X272539Y223210D01*
X272034Y223868D01*
X271376Y224373D01*
X270610Y224691D01*
X269787Y224799D01*
X268213D01*
X267390Y224691D01*
X266624Y224373D01*
X265966Y223868D01*
X265461Y223210D01*
X265144Y222444D01*
X265104Y222138D01*
X264576Y221959D01*
X252887Y233648D01*
Y252938D01*
X252773Y253514D01*
X252446Y254002D01*
X251785Y254663D01*
Y255195D01*
X252285Y255347D01*
X252951Y254350D01*
D02*
G37*
G36*
X218201Y221439D02*
X218917Y220960D01*
X219762Y220792D01*
X219908Y220821D01*
X229678Y211052D01*
Y191203D01*
X229216Y191012D01*
X221163Y199064D01*
X220675Y199391D01*
X220580Y199409D01*
X220580Y199919D01*
X220873Y199978D01*
X221529Y200416D01*
X221968Y201073D01*
X222023Y201347D01*
X218175D01*
X218230Y201073D01*
X218668Y200416D01*
X218894Y200265D01*
X219023Y199586D01*
X218967Y199505D01*
X218064D01*
X217783Y200184D01*
X217089Y201089D01*
X216184Y201783D01*
X215505Y202064D01*
Y203669D01*
X218331D01*
Y206495D01*
X219936D01*
X220217Y205816D01*
X220911Y204911D01*
X221816Y204217D01*
X222869Y203781D01*
X224000Y203632D01*
X225131Y203781D01*
X226184Y204217D01*
X227089Y204911D01*
X227783Y205816D01*
X228219Y206870D01*
X228368Y208000D01*
X228219Y209131D01*
X227783Y210184D01*
X227089Y211089D01*
X226184Y211783D01*
X225131Y212219D01*
X224000Y212368D01*
X222869Y212219D01*
X221816Y211783D01*
X220911Y211089D01*
X220217Y210184D01*
X219936Y209505D01*
X218331D01*
Y212331D01*
X210486D01*
Y213357D01*
X212191Y215062D01*
X212870Y214781D01*
X214000Y214632D01*
X215130Y214781D01*
X216184Y215217D01*
X217089Y215911D01*
X217783Y216816D01*
X218219Y217869D01*
X218368Y219000D01*
X218219Y220130D01*
X217805Y221131D01*
X218177Y221444D01*
X218201Y221439D01*
D02*
G37*
G36*
X197514Y216671D02*
Y211660D01*
X197014Y211414D01*
X196291Y211969D01*
X195186Y212426D01*
X194500Y212517D01*
Y208000D01*
X193500D01*
Y212517D01*
X192814Y212426D01*
X191709Y211969D01*
X190760Y211240D01*
X190031Y210291D01*
X189679Y209440D01*
X189549Y209375D01*
X189112Y209331D01*
X184752Y213690D01*
X184264Y214017D01*
X183916Y214086D01*
X183829Y214348D01*
X183826Y214614D01*
X184580Y215192D01*
X185211Y216015D01*
X185607Y216972D01*
X185743Y218000D01*
X185607Y219028D01*
X185211Y219986D01*
X184580Y220808D01*
X183757Y221439D01*
X182799Y221836D01*
X181772Y221971D01*
X178461D01*
X178254Y222471D01*
X178351Y222568D01*
X178677Y223056D01*
X178792Y223632D01*
Y224029D01*
X181772D01*
X182799Y224164D01*
X183757Y224561D01*
X184580Y225192D01*
X185211Y226014D01*
X185607Y226972D01*
X185712Y227766D01*
X186234Y227951D01*
X197514Y216671D01*
D02*
G37*
G36*
X248889Y253464D02*
X249215Y252976D01*
X249877Y252314D01*
Y233024D01*
X249991Y232448D01*
X250318Y231960D01*
X253919Y228358D01*
X253752Y227818D01*
X253172Y227431D01*
X252734Y226774D01*
X252679Y226500D01*
X254603D01*
Y226000D01*
X255103D01*
Y224076D01*
X255377Y224131D01*
X256034Y224569D01*
X256421Y225149D01*
X256961Y225316D01*
X265657Y216621D01*
X265819Y216512D01*
X265875Y216316D01*
X265876Y215877D01*
X265461Y215336D01*
X265144Y214570D01*
X265036Y213748D01*
X265144Y212926D01*
X265461Y212160D01*
X265966Y211502D01*
X266624Y210997D01*
X267390Y210680D01*
X268213Y210571D01*
X269787D01*
X270610Y210680D01*
X271376Y210997D01*
X271621Y211185D01*
X272121Y210938D01*
Y208684D01*
X271621Y208437D01*
X271376Y208625D01*
X270610Y208943D01*
X269787Y209051D01*
X268213D01*
X267390Y208943D01*
X266624Y208625D01*
X265966Y208120D01*
X265461Y207462D01*
X265144Y206696D01*
X265036Y205874D01*
X265144Y205052D01*
X265461Y204286D01*
X265966Y203628D01*
X266624Y203123D01*
X267390Y202805D01*
X268213Y202697D01*
X269787D01*
X270610Y202805D01*
X271376Y203123D01*
X271621Y203311D01*
X272121Y203064D01*
Y200810D01*
X271621Y200563D01*
X271376Y200751D01*
X270610Y201068D01*
X269787Y201177D01*
X268213D01*
X267390Y201068D01*
X266624Y200751D01*
X265966Y200246D01*
X265461Y199588D01*
X265144Y198822D01*
X265036Y198000D01*
X265144Y197178D01*
X265461Y196412D01*
X265966Y195754D01*
X266624Y195249D01*
X267390Y194931D01*
X268213Y194823D01*
X269787D01*
X270610Y194931D01*
X271376Y195249D01*
X271621Y195437D01*
X272121Y195190D01*
Y193488D01*
X269500D01*
Y190126D01*
Y186764D01*
X272121D01*
Y162565D01*
X271621Y162395D01*
X271089Y163089D01*
X270184Y163783D01*
X269130Y164219D01*
X268000Y164368D01*
X266869Y164219D01*
X265816Y163783D01*
X264911Y163089D01*
X264217Y162184D01*
X263781Y161130D01*
X263632Y160000D01*
X263781Y158870D01*
X264217Y157816D01*
X264911Y156911D01*
X265816Y156217D01*
X266869Y155781D01*
X268000Y155632D01*
X269130Y155781D01*
X270184Y156217D01*
X271089Y156911D01*
X271621Y157605D01*
X272121Y157435D01*
Y132565D01*
X271621Y132395D01*
X271089Y133089D01*
X270184Y133783D01*
X269130Y134219D01*
X268000Y134368D01*
X266869Y134219D01*
X266191Y133938D01*
X264303Y135826D01*
Y140516D01*
X264189Y141092D01*
X263862Y141580D01*
X259184Y146258D01*
X259160Y146295D01*
X259125Y146750D01*
X259169Y146877D01*
X259580Y147192D01*
X260211Y148014D01*
X260516Y148752D01*
X261036Y148701D01*
X261131Y148226D01*
X261569Y147569D01*
X262226Y147131D01*
X262500Y147076D01*
Y149000D01*
Y150924D01*
X262226Y150869D01*
X261569Y150431D01*
X261238Y149935D01*
X260932Y149975D01*
X260732Y150078D01*
X260607Y151028D01*
X260211Y151986D01*
X259580Y152808D01*
X258757Y153439D01*
X257799Y153836D01*
X256772Y153971D01*
X253228D01*
X252201Y153836D01*
X251243Y153439D01*
X250420Y152808D01*
X249789Y151986D01*
X249393Y151028D01*
X249257Y150000D01*
X249393Y148972D01*
X249789Y148014D01*
X250397Y147222D01*
X250362Y147019D01*
X250261Y146722D01*
X246899D01*
X243506Y150116D01*
X243519Y150182D01*
X243351Y151027D01*
X242872Y151743D01*
X242156Y152222D01*
X241311Y152390D01*
X240466Y152222D01*
X239750Y151743D01*
X239271Y151027D01*
X239143Y150380D01*
X238632Y150183D01*
X230600Y158215D01*
Y161473D01*
X231100Y161572D01*
X231375Y160907D01*
X232041Y160040D01*
X232907Y159375D01*
X233917Y158957D01*
X234500Y158880D01*
Y163000D01*
Y167120D01*
X233917Y167043D01*
X232907Y166625D01*
X232041Y165960D01*
X231375Y165093D01*
X231100Y164428D01*
X230600Y164527D01*
Y178476D01*
X231062Y178667D01*
X239983Y169746D01*
X240504Y169398D01*
X241118Y169276D01*
X241118Y169276D01*
X246359D01*
X247009Y168842D01*
X247854Y168674D01*
X248699Y168842D01*
X249415Y169321D01*
X249893Y170037D01*
X250062Y170882D01*
X249893Y171727D01*
X249415Y172443D01*
X248699Y172922D01*
X247854Y173090D01*
X247809Y173081D01*
X247544Y173505D01*
X247783Y173816D01*
X248219Y174870D01*
X248368Y176000D01*
X248219Y177130D01*
X247783Y178184D01*
X247772Y178198D01*
Y182669D01*
X248331D01*
Y191331D01*
X247772D01*
Y195802D01*
X247783Y195816D01*
X248219Y196870D01*
X248368Y198000D01*
X248219Y199130D01*
X247783Y200184D01*
X247772Y200198D01*
Y203669D01*
X248331D01*
Y212331D01*
X247772D01*
Y216802D01*
X247783Y216816D01*
X248219Y217869D01*
X248368Y219000D01*
X248219Y220130D01*
X247783Y221184D01*
X247772Y221198D01*
Y225669D01*
X248331D01*
Y234331D01*
X247772D01*
Y238584D01*
X247783Y238598D01*
X248219Y239651D01*
X248368Y240782D01*
X248219Y241912D01*
X247783Y242966D01*
X247772Y242980D01*
Y247669D01*
X248331D01*
Y253707D01*
X248831Y253756D01*
X248889Y253464D01*
D02*
G37*
G36*
X186657Y207528D02*
Y206738D01*
X186772Y206162D01*
X187098Y205674D01*
X191317Y201455D01*
X191153Y200912D01*
X190935Y200869D01*
X190278Y200431D01*
X189840Y199774D01*
X189785Y199500D01*
X193632D01*
X193578Y199774D01*
X193254Y200258D01*
X193480Y200758D01*
X194206D01*
X194419Y200439D01*
X195135Y199960D01*
X195980Y199792D01*
X196724Y199940D01*
X196975Y199626D01*
X197019Y199528D01*
X187747Y190255D01*
X187399Y189734D01*
X187276Y189120D01*
X187276Y189120D01*
Y189094D01*
X186235Y188053D01*
X185712Y188236D01*
X185607Y189028D01*
X185211Y189986D01*
X184580Y190808D01*
X183757Y191439D01*
X182799Y191836D01*
X181772Y191971D01*
X178228D01*
X177201Y191836D01*
X176243Y191439D01*
X175420Y190808D01*
X174789Y189986D01*
X174393Y189028D01*
X174257Y188000D01*
X174393Y186972D01*
X174789Y186014D01*
X175420Y185192D01*
X176243Y184561D01*
X177201Y184164D01*
X178228Y184029D01*
X181504D01*
X181711Y183529D01*
X180602Y182420D01*
X179281D01*
X179281Y182420D01*
X178667Y182297D01*
X178146Y181949D01*
X178146Y181949D01*
X173747Y177551D01*
X172981Y177398D01*
X172265Y176920D01*
X171786Y176204D01*
X171618Y175359D01*
X171786Y174514D01*
X172265Y173798D01*
X172981Y173319D01*
X173826Y173151D01*
X174671Y173319D01*
X175387Y173798D01*
X175865Y174514D01*
X176018Y175280D01*
X179946Y179208D01*
X181267D01*
X181267Y179208D01*
X181881Y179330D01*
X182402Y179678D01*
X189053Y186330D01*
X189527Y186169D01*
X189574Y185814D01*
X190031Y184709D01*
X190760Y183760D01*
X191709Y183031D01*
X192814Y182574D01*
X193718Y182455D01*
X193897Y181927D01*
X191101Y179131D01*
X187467D01*
X186891Y179017D01*
X186403Y178690D01*
X171299Y163586D01*
X170972Y163098D01*
X170858Y162522D01*
Y160673D01*
X160234Y150049D01*
X159712Y150234D01*
X159607Y151028D01*
X159211Y151986D01*
X158580Y152808D01*
X158096Y153179D01*
X158139Y153776D01*
X158378Y153936D01*
X161875Y157433D01*
X162393Y157243D01*
X162787Y156653D01*
X163444Y156215D01*
X163718Y156160D01*
Y158084D01*
X164218D01*
Y158584D01*
X166141D01*
X166087Y158858D01*
X165648Y159514D01*
X165058Y159909D01*
X164869Y160426D01*
X168552Y164109D01*
X168878Y164597D01*
X168992Y165173D01*
Y186635D01*
X176720Y194363D01*
X177201Y194164D01*
X178228Y194029D01*
X181772D01*
X182799Y194164D01*
X183757Y194561D01*
X184580Y195192D01*
X185211Y196014D01*
X185607Y196972D01*
X185743Y198000D01*
X185607Y199028D01*
X185211Y199986D01*
X184580Y200808D01*
X183757Y201439D01*
X182799Y201836D01*
X181772Y201971D01*
X178228D01*
X177201Y201836D01*
X176243Y201439D01*
X175420Y200808D01*
X174789Y199986D01*
X174393Y199028D01*
X174257Y198000D01*
X174393Y196972D01*
X174592Y196492D01*
X166423Y188323D01*
X166096Y187835D01*
X165982Y187259D01*
Y165797D01*
X160234Y160049D01*
X159712Y160234D01*
X159607Y161028D01*
X159211Y161986D01*
X158580Y162808D01*
X157757Y163439D01*
X156799Y163836D01*
X155772Y163971D01*
X152493D01*
X152286Y164471D01*
X157462Y169647D01*
X157788Y170135D01*
X157903Y170711D01*
Y185546D01*
X176720Y204363D01*
X177201Y204164D01*
X178228Y204029D01*
X181772D01*
X182799Y204164D01*
X183757Y204561D01*
X184580Y205192D01*
X185211Y206014D01*
X185607Y206972D01*
X185712Y207766D01*
X186234Y207951D01*
X186657Y207528D01*
D02*
G37*
G36*
X174283Y228194D02*
X174257Y228000D01*
X174339Y227379D01*
X174264Y226932D01*
X173931Y226827D01*
X173483Y226738D01*
X172827Y226300D01*
X172388Y225643D01*
X172334Y225369D01*
X174257D01*
Y224369D01*
X172334D01*
X172388Y224095D01*
X172827Y223439D01*
X173483Y223000D01*
X173763Y222944D01*
X173927Y222402D01*
X164561Y213035D01*
X164234Y212547D01*
X164120Y211970D01*
Y211309D01*
X154036Y201225D01*
X153757Y201439D01*
X152799Y201836D01*
X151772Y201971D01*
X148228D01*
X147201Y201836D01*
X146243Y201439D01*
X145420Y200808D01*
X144789Y199986D01*
X144393Y199028D01*
X144288Y198234D01*
X143766Y198049D01*
X142731Y199084D01*
X142243Y199410D01*
X141667Y199525D01*
X133333D01*
X132757Y199410D01*
X132269Y199084D01*
X131234Y198049D01*
X130712Y198234D01*
X130607Y199028D01*
X130211Y199986D01*
X129580Y200808D01*
X128757Y201439D01*
X127799Y201836D01*
X126772Y201971D01*
X123228D01*
X122201Y201836D01*
X121720Y201637D01*
X120108Y203250D01*
Y204810D01*
X120608Y205048D01*
X121243Y204561D01*
X122201Y204164D01*
X123228Y204029D01*
X126772D01*
X127799Y204164D01*
X128757Y204561D01*
X129580Y205192D01*
X130211Y206014D01*
X130410Y206495D01*
X141686D01*
X142262Y206609D01*
X142751Y206936D01*
X143766Y207951D01*
X144288Y207766D01*
X144393Y206972D01*
X144789Y206014D01*
X145420Y205192D01*
X146243Y204561D01*
X147201Y204164D01*
X148228Y204029D01*
X151772D01*
X152799Y204164D01*
X153757Y204561D01*
X154580Y205192D01*
X155211Y206014D01*
X155607Y206972D01*
X155743Y208000D01*
X155607Y209028D01*
X155211Y209985D01*
X154580Y210808D01*
X153849Y211369D01*
X153916Y211744D01*
X153981Y211869D01*
X156665D01*
X157241Y211983D01*
X157729Y212310D01*
X173835Y228415D01*
X174283Y228194D01*
D02*
G37*
G36*
X61084Y213744D02*
X61151Y213369D01*
X60420Y212808D01*
X59789Y211985D01*
X59393Y211028D01*
X59257Y210000D01*
X59393Y208972D01*
X59789Y208014D01*
X60420Y207192D01*
X61243Y206561D01*
X62201Y206164D01*
X63228Y206029D01*
X66772D01*
X67799Y206164D01*
X68757Y206561D01*
X69580Y207192D01*
X70211Y208014D01*
X70410Y208495D01*
X71365D01*
X72177Y207682D01*
X72212Y207508D01*
X72538Y207019D01*
X75248Y204310D01*
X75736Y203983D01*
X76084Y203914D01*
X76171Y203652D01*
X76174Y203386D01*
X75420Y202808D01*
X74789Y201986D01*
X74393Y201028D01*
X74323Y200501D01*
X73795Y200322D01*
X73053Y201064D01*
X72564Y201391D01*
X71988Y201505D01*
X70410D01*
X70211Y201986D01*
X69580Y202808D01*
X68757Y203439D01*
X67799Y203836D01*
X66772Y203971D01*
X63228D01*
X62201Y203836D01*
X61243Y203439D01*
X60420Y202808D01*
X59789Y201986D01*
X59393Y201028D01*
X59257Y200000D01*
X59393Y198972D01*
X59789Y198014D01*
X60420Y197192D01*
X61243Y196561D01*
X62201Y196164D01*
X63228Y196029D01*
X66772D01*
X67799Y196164D01*
X68757Y196561D01*
X69580Y197192D01*
X70211Y198014D01*
X70410Y198495D01*
X71365D01*
X72177Y197682D01*
X72212Y197508D01*
X72538Y197020D01*
X75816Y193742D01*
X75837Y193127D01*
X75420Y192808D01*
X74789Y191985D01*
X74590Y191505D01*
X70410D01*
X70211Y191985D01*
X69580Y192808D01*
X68757Y193439D01*
X67799Y193836D01*
X66772Y193971D01*
X63228D01*
X62201Y193836D01*
X61243Y193439D01*
X60420Y192808D01*
X59935Y192176D01*
X59626Y192016D01*
X59287Y192079D01*
X58772Y192423D01*
X57927Y192591D01*
X57082Y192423D01*
X56366Y191945D01*
X55888Y191228D01*
X55720Y190384D01*
X55888Y189539D01*
X56366Y188822D01*
X56548Y188701D01*
Y188394D01*
X56548Y188394D01*
X56670Y187779D01*
X57018Y187258D01*
X60657Y183619D01*
X60734Y183481D01*
X60748Y183060D01*
X60420Y182808D01*
X59789Y181985D01*
X59393Y181028D01*
X59288Y180234D01*
X58766Y180049D01*
X51018Y187797D01*
Y191495D01*
X51518Y191646D01*
X51569Y191569D01*
X52226Y191131D01*
X52500Y191076D01*
Y193000D01*
Y194924D01*
X52226Y194869D01*
X51569Y194431D01*
X51518Y194354D01*
X51018Y194505D01*
Y197259D01*
X50903Y197835D01*
X50577Y198323D01*
X40408Y208492D01*
X40607Y208972D01*
X40743Y210000D01*
X40607Y211028D01*
X40211Y211985D01*
X39723Y212621D01*
X39744Y212790D01*
X39916Y213146D01*
X39917Y213147D01*
X40361Y213235D01*
X40849Y213562D01*
X41156Y213869D01*
X61019D01*
X61084Y213744D01*
D02*
G37*
G36*
X115115Y192310D02*
X115603Y191983D01*
X116179Y191869D01*
X121019D01*
X121084Y191744D01*
X121151Y191369D01*
X120420Y190808D01*
X119789Y189986D01*
X119393Y189028D01*
X119257Y188000D01*
X119393Y186972D01*
X119789Y186014D01*
X120420Y185192D01*
X121243Y184561D01*
X122201Y184164D01*
X123228Y184029D01*
X123495D01*
Y182850D01*
X120770Y180125D01*
X120444Y179637D01*
X120329Y179061D01*
Y176786D01*
X119867Y176595D01*
X116505Y179957D01*
Y187402D01*
X116561Y187439D01*
X117040Y188155D01*
X117208Y189000D01*
X117040Y189845D01*
X116561Y190561D01*
X115845Y191040D01*
X115000Y191208D01*
X114155Y191040D01*
X114087Y190994D01*
X113898Y191032D01*
X113322Y190917D01*
X112833Y190591D01*
X112507Y190103D01*
X112392Y189526D01*
X112507Y188950D01*
X112833Y188462D01*
X112916Y188380D01*
X112960Y188155D01*
X113439Y187439D01*
X113495Y187402D01*
Y180559D01*
X113033Y180367D01*
X110378Y183022D01*
X110292Y183150D01*
X99752Y193690D01*
X99264Y194017D01*
X98916Y194086D01*
X98829Y194348D01*
X98826Y194614D01*
X99580Y195192D01*
X100211Y196014D01*
X100409Y196495D01*
X101451D01*
X101585Y195995D01*
X101188Y195400D01*
X101134Y195126D01*
X104981D01*
X104926Y195400D01*
X104529Y195995D01*
X104664Y196495D01*
X110930D01*
X115115Y192310D01*
D02*
G37*
G36*
X150500Y183815D02*
X151772D01*
X152855Y183957D01*
X153864Y184375D01*
X154392Y184781D01*
X154892Y184534D01*
Y175233D01*
X154451Y174997D01*
X154388Y175040D01*
X153622Y175192D01*
X144314Y184500D01*
Y185026D01*
X144511Y185221D01*
X145162Y185179D01*
X145269Y185040D01*
X146136Y184375D01*
X147145Y183957D01*
X148228Y183815D01*
X149500D01*
Y188000D01*
X150500D01*
Y183815D01*
D02*
G37*
G36*
X118262Y170880D02*
Y162461D01*
X118291Y162315D01*
Y156879D01*
X100672D01*
X91861Y165690D01*
X91373Y166017D01*
X90797Y166131D01*
X83981D01*
X83916Y166256D01*
X83849Y166631D01*
X84580Y167192D01*
X85211Y168015D01*
X85607Y168972D01*
X85743Y170000D01*
X85607Y171028D01*
X85211Y171985D01*
X84580Y172808D01*
X83849Y173369D01*
X83916Y173744D01*
X83981Y173869D01*
X86966D01*
X100860Y159975D01*
X100847Y159909D01*
X101015Y159064D01*
X101493Y158348D01*
X102210Y157869D01*
X103054Y157701D01*
X103899Y157869D01*
X104616Y158348D01*
X105094Y159064D01*
X105262Y159909D01*
X105094Y160754D01*
X104616Y161470D01*
X103899Y161949D01*
X103054Y162117D01*
X102989Y162103D01*
X88654Y176438D01*
X88165Y176765D01*
X87589Y176879D01*
X84962D01*
X84723Y177379D01*
X85211Y178015D01*
X85607Y178972D01*
X85711Y179764D01*
X86235Y179947D01*
X87270Y178912D01*
X87791Y178564D01*
X88406Y178442D01*
X104728D01*
X104728Y178442D01*
X105342Y178564D01*
X105756Y178841D01*
X106000Y178792D01*
X106845Y178960D01*
X107561Y179439D01*
X108040Y180155D01*
X108093Y180425D01*
X108572Y180570D01*
X118262Y170880D01*
D02*
G37*
G36*
X204349Y221207D02*
Y179431D01*
X204228Y179350D01*
X203750Y178634D01*
X203582Y177789D01*
X203750Y176944D01*
X204228Y176228D01*
X204495Y176050D01*
Y174387D01*
X204033Y174196D01*
X203577Y174651D01*
X203439Y174986D01*
X202808Y175808D01*
X201986Y176439D01*
X201028Y176836D01*
X200000Y176971D01*
X198972Y176836D01*
X198014Y176439D01*
X197192Y175808D01*
X196561Y174986D01*
X196164Y174028D01*
X196029Y173000D01*
X196164Y171972D01*
X196561Y171014D01*
X197192Y170192D01*
X197941Y169617D01*
X204381Y163178D01*
Y160936D01*
X204257Y160000D01*
X204393Y158972D01*
X204789Y158015D01*
X205420Y157192D01*
X206243Y156561D01*
X207201Y156164D01*
X208228Y156029D01*
X211772D01*
X212799Y156164D01*
X213757Y156561D01*
X214580Y157192D01*
X215007Y157750D01*
X215508Y157580D01*
Y152420D01*
X215007Y152250D01*
X214580Y152808D01*
X213757Y153439D01*
X212799Y153836D01*
X211772Y153971D01*
X208228D01*
X207201Y153836D01*
X206243Y153439D01*
X205420Y152808D01*
X204789Y151986D01*
X204393Y151028D01*
X204257Y150000D01*
X204393Y148972D01*
X204789Y148014D01*
X205420Y147192D01*
X206243Y146561D01*
X207201Y146164D01*
X208228Y146029D01*
X211772D01*
X212799Y146164D01*
X213280Y146363D01*
X215508Y144135D01*
Y142420D01*
X215007Y142250D01*
X214580Y142808D01*
X213757Y143439D01*
X212799Y143836D01*
X211772Y143971D01*
X208228D01*
X207201Y143836D01*
X206720Y143637D01*
X204293Y146064D01*
X203804Y146391D01*
X203228Y146505D01*
X184506D01*
X184336Y147005D01*
X184580Y147192D01*
X185211Y148014D01*
X185607Y148972D01*
X185743Y150000D01*
X185607Y151028D01*
X185211Y151986D01*
X184580Y152808D01*
X183757Y153439D01*
X182799Y153836D01*
X181772Y153971D01*
X178228D01*
X177201Y153836D01*
X176243Y153439D01*
X175420Y152808D01*
X174789Y151986D01*
X174591Y151505D01*
X166601D01*
X166410Y151967D01*
X173427Y158985D01*
X173754Y159473D01*
X173791Y159663D01*
X174291Y159613D01*
Y156063D01*
X185709D01*
Y163937D01*
X176560D01*
X176369Y164399D01*
X185393Y173423D01*
X185841Y173202D01*
X185815Y173000D01*
X185957Y171917D01*
X186375Y170907D01*
X187040Y170041D01*
X187907Y169375D01*
X188917Y168957D01*
X189500Y168880D01*
Y173000D01*
X190000D01*
Y173500D01*
X194120D01*
X194043Y174083D01*
X193625Y175093D01*
X192959Y175960D01*
X192814Y176072D01*
X192879Y176652D01*
X202064Y185837D01*
X202391Y186325D01*
X202505Y186901D01*
Y193402D01*
X202561Y193439D01*
X203040Y194155D01*
X203208Y195000D01*
X203040Y195845D01*
X202561Y196561D01*
X201845Y197040D01*
X201000Y197208D01*
X200155Y197040D01*
X199439Y196561D01*
X198960Y195845D01*
X198792Y195000D01*
X198960Y194155D01*
X199439Y193439D01*
X199495Y193402D01*
Y187525D01*
X199073Y187103D01*
X198545Y187282D01*
X198426Y188186D01*
X197969Y189291D01*
X197240Y190240D01*
X196291Y190969D01*
X195186Y191426D01*
X194285Y191545D01*
X194106Y192073D01*
X203358Y201326D01*
X203358Y201326D01*
X203707Y201847D01*
X203829Y202461D01*
Y221478D01*
X203849Y221490D01*
X204349Y221207D01*
D02*
G37*
G36*
X98984Y154310D02*
X99472Y153983D01*
X100048Y153869D01*
X120019D01*
X120084Y153744D01*
X120151Y153369D01*
X119420Y152808D01*
X118789Y151986D01*
X118393Y151028D01*
X118257Y150000D01*
X118393Y148972D01*
X118789Y148014D01*
X119277Y147379D01*
X119038Y146879D01*
X111531D01*
X110144Y148266D01*
X109655Y148593D01*
X109079Y148707D01*
X95193D01*
X85408Y158492D01*
X85607Y158972D01*
X85743Y160000D01*
X85607Y161028D01*
X85211Y161986D01*
X84723Y162621D01*
X84962Y163121D01*
X90173D01*
X98984Y154310D01*
D02*
G37*
G36*
X148789Y148014D02*
X149420Y147192D01*
X149925Y146805D01*
X149944Y146738D01*
X149873Y146214D01*
X149567Y146009D01*
X135063Y131505D01*
X129410D01*
X129211Y131985D01*
X128580Y132808D01*
X127757Y133439D01*
X126799Y133836D01*
X125772Y133971D01*
X122228D01*
X121201Y133836D01*
X120243Y133439D01*
X119576Y132927D01*
X119076Y133135D01*
Y134719D01*
X120720Y136363D01*
X121201Y136164D01*
X122228Y136029D01*
X125772D01*
X126799Y136164D01*
X127757Y136561D01*
X128580Y137192D01*
X129211Y138014D01*
X129607Y138972D01*
X129743Y140000D01*
X129607Y141028D01*
X129211Y141985D01*
X128580Y142808D01*
X127849Y143369D01*
X127916Y143744D01*
X127981Y143869D01*
X132821D01*
X133397Y143983D01*
X133885Y144310D01*
X138070Y148495D01*
X142443D01*
X142492Y147995D01*
X142306Y147958D01*
X141860Y147869D01*
X141204Y147431D01*
X140766Y146774D01*
X140711Y146500D01*
X144558D01*
X144504Y146774D01*
X144065Y147431D01*
X143409Y147869D01*
X142963Y147958D01*
X142778Y147995D01*
X142827Y148495D01*
X148591D01*
X148789Y148014D01*
D02*
G37*
G36*
X174789D02*
X175420Y147192D01*
X175664Y147005D01*
X175494Y146505D01*
X175062D01*
X174486Y146391D01*
X173998Y146064D01*
X173672Y145576D01*
X173601Y145221D01*
X173394Y145014D01*
X172916Y144919D01*
X172200Y144440D01*
X171721Y143724D01*
X171553Y142879D01*
X171721Y142034D01*
X172200Y141318D01*
X172916Y140840D01*
X173761Y140672D01*
X173941Y140707D01*
X174305Y140365D01*
X174257Y140000D01*
X174393Y138972D01*
X174592Y138492D01*
X167605Y131505D01*
X159409D01*
X159211Y131985D01*
X158580Y132808D01*
X157757Y133439D01*
X156799Y133836D01*
X155772Y133971D01*
X152228D01*
X151201Y133836D01*
X150243Y133439D01*
X149420Y132808D01*
X148789Y131985D01*
X148591Y131505D01*
X145046D01*
X144811Y131946D01*
X144869Y132034D01*
X144924Y132308D01*
X143000D01*
Y133308D01*
X144924D01*
X144869Y133582D01*
X144431Y134239D01*
X143774Y134677D01*
X143295Y134772D01*
X143130Y135315D01*
X147766Y139951D01*
X148288Y139766D01*
X148393Y138972D01*
X148789Y138014D01*
X149420Y137192D01*
X150243Y136561D01*
X151201Y136164D01*
X152228Y136029D01*
X155772D01*
X156799Y136164D01*
X157757Y136561D01*
X158580Y137192D01*
X159211Y138014D01*
X159607Y138972D01*
X159743Y140000D01*
X159607Y141028D01*
X159408Y141508D01*
X166395Y148495D01*
X174591D01*
X174789Y148014D01*
D02*
G37*
G36*
X261293Y139441D02*
Y135202D01*
X261407Y134626D01*
X261733Y134138D01*
X264062Y131809D01*
X263781Y131131D01*
X263632Y130000D01*
X263781Y128869D01*
X264217Y127816D01*
X264911Y126911D01*
X265816Y126217D01*
X266869Y125781D01*
X267907Y125644D01*
X268169Y125199D01*
X266936Y123966D01*
X266609Y123477D01*
X266495Y122901D01*
Y119064D01*
X265816Y118783D01*
X265380Y118448D01*
X264943Y118719D01*
X263000D01*
Y119219D01*
X262500D01*
Y121143D01*
X262226Y121088D01*
X261569Y120650D01*
X261229Y120140D01*
X260710Y120246D01*
X260607Y121028D01*
X260211Y121985D01*
X259580Y122808D01*
X258757Y123439D01*
X257799Y123836D01*
X256772Y123971D01*
X253228D01*
X252201Y123836D01*
X251243Y123439D01*
X250420Y122808D01*
X249789Y121985D01*
X249393Y121028D01*
X249257Y120000D01*
X249393Y118972D01*
X249789Y118015D01*
X250420Y117192D01*
X251243Y116561D01*
X252201Y116164D01*
X253228Y116029D01*
X256772D01*
X257799Y116164D01*
X258280Y116363D01*
X259892Y114751D01*
Y113190D01*
X259392Y112952D01*
X258757Y113439D01*
X257799Y113836D01*
X256772Y113971D01*
X253228D01*
X252201Y113836D01*
X251243Y113439D01*
X250420Y112808D01*
X249789Y111986D01*
X249590Y111505D01*
X245623D01*
X243195Y113934D01*
X243208Y114000D01*
X243040Y114845D01*
X242561Y115561D01*
X241845Y116040D01*
X241000Y116208D01*
X240155Y116040D01*
X239439Y115561D01*
X238960Y114845D01*
X238792Y114000D01*
X238960Y113155D01*
X239439Y112439D01*
X240155Y111960D01*
X241000Y111792D01*
X241066Y111805D01*
X243936Y108936D01*
X244424Y108609D01*
X245000Y108495D01*
X249590D01*
X249789Y108015D01*
X250420Y107192D01*
X250664Y107005D01*
X250494Y106505D01*
X229506D01*
X229336Y107005D01*
X229580Y107192D01*
X230211Y108015D01*
X230607Y108972D01*
X230743Y110000D01*
X230607Y111028D01*
X230211Y111986D01*
X229621Y112754D01*
X229731Y113254D01*
X231445D01*
X232021Y113368D01*
X232509Y113695D01*
X248766Y129951D01*
X249288Y129766D01*
X249393Y128972D01*
X249789Y128015D01*
X250420Y127192D01*
X251243Y126561D01*
X252201Y126164D01*
X253228Y126029D01*
X256772D01*
X257799Y126164D01*
X258757Y126561D01*
X259580Y127192D01*
X260211Y128015D01*
X260607Y128972D01*
X260743Y130000D01*
X260607Y131028D01*
X260211Y131985D01*
X259580Y132808D01*
X258757Y133439D01*
X257799Y133836D01*
X256772Y133971D01*
X253493D01*
X253286Y134471D01*
X253385Y134570D01*
X253711Y135058D01*
X253826Y135634D01*
Y136029D01*
X256772D01*
X257799Y136164D01*
X258757Y136561D01*
X259580Y137192D01*
X260211Y138014D01*
X260607Y138972D01*
X260648Y139284D01*
X261184Y139518D01*
X261293Y139441D01*
D02*
G37*
G36*
X167590Y128033D02*
X161063Y121505D01*
X159409D01*
X159211Y121985D01*
X158580Y122808D01*
X157757Y123439D01*
X156799Y123836D01*
X155772Y123971D01*
X152228D01*
X151201Y123836D01*
X150243Y123439D01*
X149420Y122808D01*
X148789Y121985D01*
X148393Y121028D01*
X148257Y120000D01*
X148393Y118972D01*
X148789Y118015D01*
X149420Y117192D01*
X149664Y117005D01*
X149494Y116505D01*
X137937D01*
X130022Y124421D01*
X130268Y124881D01*
X130717Y124792D01*
X131561Y124960D01*
X132278Y125439D01*
X132315Y125495D01*
X139635D01*
X140211Y125609D01*
X140699Y125936D01*
X143258Y128495D01*
X148591D01*
X148789Y128015D01*
X149420Y127192D01*
X150243Y126561D01*
X151201Y126164D01*
X152228Y126029D01*
X155772D01*
X156799Y126164D01*
X157757Y126561D01*
X158580Y127192D01*
X159211Y128015D01*
X159409Y128495D01*
X167399D01*
X167590Y128033D01*
D02*
G37*
G36*
X114155Y134960D02*
X115000Y134792D01*
X115566Y134905D01*
X116066Y134552D01*
Y128115D01*
X116180Y127539D01*
X116506Y127051D01*
X119816Y123742D01*
X119837Y123127D01*
X119420Y122808D01*
X118789Y121985D01*
X118590Y121505D01*
X85409D01*
X85211Y121985D01*
X84739Y122600D01*
X84909Y122875D01*
Y124500D01*
X83486D01*
X83540Y124226D01*
X83684Y124010D01*
X83353Y123606D01*
X82799Y123836D01*
X81772Y123971D01*
X78228D01*
X77201Y123836D01*
X76243Y123439D01*
X75420Y122808D01*
X74789Y121985D01*
X74590Y121505D01*
X70410D01*
X70211Y121985D01*
X69580Y122808D01*
X68757Y123439D01*
X67799Y123836D01*
X66772Y123971D01*
X63228D01*
X62201Y123836D01*
X61243Y123439D01*
X60608Y122952D01*
X60108Y123190D01*
Y124750D01*
X61720Y126363D01*
X62201Y126164D01*
X63228Y126029D01*
X66772D01*
X67799Y126164D01*
X68757Y126561D01*
X69580Y127192D01*
X70211Y128015D01*
X70410Y128495D01*
X74590D01*
X74789Y128015D01*
X75420Y127192D01*
X76243Y126561D01*
X77201Y126164D01*
X78228Y126029D01*
X81772D01*
X82799Y126164D01*
X83353Y126394D01*
X83684Y125990D01*
X83540Y125774D01*
X83486Y125500D01*
X84909D01*
Y127125D01*
X84739Y127400D01*
X85211Y128015D01*
X85607Y128972D01*
X85743Y130000D01*
X85607Y131028D01*
X85211Y131985D01*
X84580Y132808D01*
X84336Y132995D01*
X84506Y133495D01*
X112000D01*
X112576Y133609D01*
X113064Y133936D01*
X114116Y134987D01*
X114155Y134960D01*
D02*
G37*
G36*
X238850Y145707D02*
X238960Y145155D01*
X239439Y144439D01*
X240155Y143960D01*
X241000Y143792D01*
X241845Y143960D01*
X242561Y144439D01*
X243040Y145155D01*
X243116Y145541D01*
X243659Y145705D01*
X245211Y144153D01*
X245700Y143826D01*
X246276Y143712D01*
X250777D01*
X250947Y143212D01*
X250420Y142808D01*
X249789Y141985D01*
X249393Y141028D01*
X249257Y140000D01*
X249393Y138972D01*
X249789Y138014D01*
X250420Y137192D01*
X250815Y136889D01*
Y136258D01*
X230822Y116264D01*
X229192D01*
X229022Y116764D01*
X229580Y117192D01*
X230211Y118015D01*
X230607Y118972D01*
X230743Y120000D01*
X230607Y121028D01*
X230211Y121985D01*
X229580Y122808D01*
X229096Y123179D01*
X229139Y123776D01*
X229378Y123936D01*
X232462Y127020D01*
X232788Y127508D01*
X232903Y128084D01*
Y141916D01*
X232788Y142492D01*
X232462Y142981D01*
X229880Y145563D01*
X230060Y146063D01*
X230709D01*
Y153196D01*
X231171Y153387D01*
X238850Y145707D01*
D02*
G37*
G36*
X174288Y119766D02*
X174393Y118972D01*
X174789Y118015D01*
X175420Y117192D01*
X176243Y116561D01*
X177201Y116164D01*
X178228Y116029D01*
X181772D01*
X182799Y116164D01*
X183757Y116561D01*
X184580Y117192D01*
X185211Y118015D01*
X185409Y118495D01*
X200253D01*
X200295Y118282D01*
X200622Y117794D01*
X204106Y114310D01*
X204595Y113983D01*
X205171Y113869D01*
X206019D01*
X206084Y113744D01*
X206151Y113369D01*
X205420Y112808D01*
X204789Y111986D01*
X204393Y111028D01*
X204257Y110000D01*
X204393Y108972D01*
X204592Y108492D01*
X192979Y96879D01*
X184962D01*
X184723Y97379D01*
X185211Y98014D01*
X185607Y98972D01*
X185743Y100000D01*
X185607Y101028D01*
X185211Y101986D01*
X184580Y102808D01*
X184336Y102995D01*
X184506Y103495D01*
X191560D01*
X191610Y102995D01*
X191118Y102897D01*
X190461Y102458D01*
X190023Y101802D01*
X189968Y101528D01*
X193816D01*
X193761Y101802D01*
X193322Y102458D01*
X192666Y102897D01*
X192174Y102995D01*
X192223Y103495D01*
X193084D01*
X193660Y103609D01*
X194148Y103936D01*
X200994Y110782D01*
X201060Y110769D01*
X201905Y110937D01*
X202621Y111415D01*
X203100Y112132D01*
X203268Y112976D01*
X203100Y113821D01*
X202621Y114538D01*
X201905Y115016D01*
X201060Y115184D01*
X200215Y115016D01*
X199499Y114538D01*
X199021Y113821D01*
X198853Y112976D01*
X198866Y112910D01*
X192460Y106505D01*
X184506D01*
X184336Y107005D01*
X184580Y107192D01*
X185211Y108015D01*
X185607Y108972D01*
X185743Y110000D01*
X185607Y111028D01*
X185211Y111986D01*
X184580Y112808D01*
X183757Y113439D01*
X182799Y113836D01*
X181772Y113971D01*
X178228D01*
X177201Y113836D01*
X176243Y113439D01*
X175420Y112808D01*
X174789Y111986D01*
X174591Y111505D01*
X167410D01*
X167123Y111448D01*
X166417Y111589D01*
X166034Y111512D01*
X165788Y111973D01*
X173766Y119951D01*
X174288Y119766D01*
D02*
G37*
G36*
X117498Y102601D02*
X117252Y102140D01*
X116913Y102208D01*
X116068Y102040D01*
X115352Y101561D01*
X115315Y101505D01*
X105989D01*
X105722Y102005D01*
X105869Y102226D01*
X105924Y102500D01*
X102076D01*
X102131Y102226D01*
X102278Y102005D01*
X102011Y101505D01*
X97894D01*
X93335Y106064D01*
X92846Y106391D01*
X92270Y106505D01*
X84506D01*
X84336Y107005D01*
X84580Y107192D01*
X85211Y108015D01*
X85409Y108495D01*
X106343D01*
X106557Y108537D01*
X107000Y108449D01*
X107845Y108617D01*
X108561Y109096D01*
X109040Y109812D01*
X109129Y110263D01*
X109672Y110428D01*
X117498Y102601D01*
D02*
G37*
G36*
X214892Y106810D02*
Y103190D01*
X214392Y102952D01*
X213757Y103439D01*
X212799Y103836D01*
X211772Y103971D01*
X208228D01*
X207201Y103836D01*
X206243Y103439D01*
X205420Y102808D01*
X204789Y101986D01*
X204393Y101028D01*
X204257Y100000D01*
X204393Y98972D01*
X204789Y98014D01*
X205420Y97192D01*
X206174Y96614D01*
X206171Y96348D01*
X206084Y96086D01*
X205736Y96017D01*
X205248Y95690D01*
X195101Y85544D01*
X194775Y85055D01*
X194660Y84479D01*
Y84074D01*
X194542Y83998D01*
X194093Y84304D01*
X194208Y84882D01*
X194040Y85727D01*
X193561Y86443D01*
X192845Y86922D01*
X192000Y87090D01*
X191155Y86922D01*
X190517Y86495D01*
X184799D01*
X184638Y86969D01*
X184731Y87041D01*
X185396Y87907D01*
X185814Y88917D01*
X185891Y89500D01*
X180000D01*
Y90500D01*
X185891D01*
X185814Y91083D01*
X185396Y92093D01*
X184731Y92959D01*
X184198Y93369D01*
X184368Y93869D01*
X193602D01*
X194178Y93983D01*
X194667Y94310D01*
X206720Y106363D01*
X207201Y106164D01*
X208228Y106029D01*
X211772D01*
X212799Y106164D01*
X213757Y106561D01*
X214392Y107048D01*
X214892Y106810D01*
D02*
G37*
G36*
X106000Y88073D02*
X105958Y88010D01*
X105790Y87165D01*
X105958Y86321D01*
X106398Y85663D01*
X106321Y85442D01*
X106150Y85202D01*
X106000Y85232D01*
X105226Y85078D01*
X104569Y84639D01*
X104131Y83983D01*
X104076Y83709D01*
X107924D01*
X107869Y83983D01*
X107611Y84369D01*
X107828Y84879D01*
X107828Y84879D01*
X108176Y84858D01*
X109869Y83166D01*
Y77368D01*
X109369Y77198D01*
X108959Y77731D01*
X108093Y78396D01*
X107083Y78815D01*
X106500Y78891D01*
Y73000D01*
Y67109D01*
X107083Y67185D01*
X108093Y67604D01*
X108959Y68269D01*
X109441Y68897D01*
X109976Y68772D01*
X109983Y68736D01*
X110310Y68248D01*
X122126Y56431D01*
X121879Y55971D01*
X120968Y55851D01*
X120007Y55453D01*
X119181Y54819D01*
X118547Y53993D01*
X118149Y53032D01*
X118029Y52121D01*
X117569Y51874D01*
X102879Y66563D01*
Y67762D01*
X103379Y68009D01*
X103907Y67604D01*
X104917Y67185D01*
X105500Y67109D01*
Y73000D01*
Y78891D01*
X104917Y78815D01*
X103907Y78396D01*
X103379Y77991D01*
X102879Y78238D01*
Y85349D01*
X102765Y85925D01*
X102438Y86413D01*
X100837Y88014D01*
X101044Y88514D01*
X105764D01*
X106000Y88073D01*
D02*
G37*
G36*
X134761Y98677D02*
X135249Y98350D01*
X135825Y98236D01*
X136682D01*
X142375Y92543D01*
X142230Y92064D01*
X142155Y92049D01*
X141439Y91571D01*
X140960Y90855D01*
X140792Y90010D01*
X140960Y89165D01*
X141439Y88449D01*
X142155Y87970D01*
X142617Y87878D01*
X152278Y78217D01*
X152767Y77891D01*
X153343Y77776D01*
X161413D01*
X163656Y75533D01*
X163511Y75055D01*
X163437Y75040D01*
X162720Y74561D01*
X162683Y74505D01*
X154937D01*
X148980Y80462D01*
X148492Y80788D01*
X147916Y80903D01*
X145001D01*
X144561Y81561D01*
X143845Y82040D01*
X143000Y82208D01*
X142155Y82040D01*
X141439Y81561D01*
X140960Y80845D01*
X140792Y80000D01*
X140960Y79155D01*
X141439Y78439D01*
X142155Y77960D01*
X142762Y77840D01*
X142993Y77320D01*
X142561Y76757D01*
X142164Y75799D01*
X142029Y74772D01*
Y71228D01*
X142164Y70201D01*
X142561Y69243D01*
X143192Y68420D01*
X144015Y67789D01*
X144972Y67393D01*
X146000Y67257D01*
X147028Y67393D01*
X147985Y67789D01*
X148808Y68420D01*
X149439Y69243D01*
X149836Y70201D01*
X149971Y71228D01*
Y74507D01*
X150471Y74714D01*
X153249Y71936D01*
X153738Y71609D01*
X154314Y71495D01*
X162683D01*
X162720Y71439D01*
X163437Y70960D01*
X163511Y70946D01*
X163656Y70467D01*
X159723Y66534D01*
X152864D01*
X152287Y66420D01*
X151799Y66093D01*
X145010Y59304D01*
X144684Y58816D01*
X144569Y58240D01*
Y54571D01*
X144684Y53995D01*
X145010Y53506D01*
X147605Y50912D01*
X148093Y50586D01*
X148669Y50471D01*
X167106D01*
X167682Y50586D01*
X168171Y50912D01*
X184379Y67121D01*
X187534D01*
X187780Y66621D01*
X187375Y66093D01*
X186957Y65083D01*
X186880Y64500D01*
X191000D01*
Y64000D01*
X191500D01*
Y59880D01*
X192083Y59957D01*
X193093Y60375D01*
X193959Y61041D01*
X194625Y61907D01*
X195043Y62917D01*
X195130Y63577D01*
X195658Y63756D01*
X201057Y58356D01*
Y54437D01*
X201172Y53861D01*
X201498Y53373D01*
X209665Y45207D01*
X209548Y44925D01*
X209426Y44000D01*
X209548Y43075D01*
X209905Y42213D01*
X210473Y41473D01*
X211213Y40905D01*
X212075Y40548D01*
X213000Y40426D01*
X213925Y40548D01*
X214787Y40905D01*
X215527Y41473D01*
X216095Y42213D01*
X216452Y43075D01*
X216574Y44000D01*
X216452Y44925D01*
X216282Y45335D01*
X216665Y45718D01*
X217075Y45548D01*
X217098Y45545D01*
X217220Y45423D01*
Y40458D01*
X216542Y39780D01*
X203400D01*
X203311Y39961D01*
X203266Y40280D01*
X204089Y40911D01*
X204783Y41816D01*
X205219Y42869D01*
X205368Y44000D01*
X205219Y45131D01*
X204783Y46184D01*
X204089Y47089D01*
X203184Y47783D01*
X202131Y48219D01*
X201000Y48368D01*
X199870Y48219D01*
X199191Y47938D01*
X197045Y50084D01*
X196556Y50410D01*
X195980Y50525D01*
X176677D01*
X176101Y50410D01*
X175613Y50084D01*
X168696Y43167D01*
X158563D01*
X157987Y43053D01*
X157499Y42727D01*
X152201Y37429D01*
X148686D01*
X148516Y37929D01*
X148960Y38269D01*
X149625Y39136D01*
X150043Y40145D01*
X150185Y41228D01*
Y42500D01*
X146000D01*
Y43000D01*
X145500D01*
Y48891D01*
X144917Y48814D01*
X143907Y48396D01*
X143041Y47731D01*
X142744Y47345D01*
X142107Y47336D01*
X132879Y56563D01*
Y67762D01*
X133379Y68009D01*
X133907Y67604D01*
X134917Y67185D01*
X135500Y67109D01*
Y73000D01*
Y78891D01*
X134917Y78815D01*
X133907Y78396D01*
X133379Y77991D01*
X132879Y78238D01*
Y80882D01*
X133752Y81754D01*
X134078Y82243D01*
X134193Y82819D01*
Y93786D01*
X134248Y93824D01*
X134727Y94540D01*
X134895Y95385D01*
X134727Y96230D01*
X134248Y96946D01*
X133532Y97425D01*
X132687Y97593D01*
X132300Y97515D01*
X131874Y97941D01*
X131903Y98084D01*
Y100881D01*
X132365Y101073D01*
X134761Y98677D01*
D02*
G37*
G36*
X96500Y67109D02*
X97083Y67185D01*
X98093Y67604D01*
X98959Y68269D01*
X99369Y68802D01*
X99869Y68632D01*
Y65940D01*
X99983Y65364D01*
X100310Y64875D01*
X115951Y49234D01*
X115766Y48712D01*
X114972Y48607D01*
X114014Y48211D01*
X113192Y47580D01*
X112561Y46757D01*
X112164Y45799D01*
X112029Y44772D01*
Y41228D01*
X112164Y40201D01*
X112363Y39720D01*
X109132Y36490D01*
X102622D01*
X102046Y36375D01*
X101558Y36049D01*
X97886Y32377D01*
X97406Y32576D01*
X96378Y32711D01*
X95350Y32576D01*
X94393Y32179D01*
X93570Y31548D01*
X92939Y30726D01*
X92542Y29768D01*
X92407Y28740D01*
Y25197D01*
X92542Y24169D01*
X92939Y23211D01*
X93570Y22389D01*
X94393Y21758D01*
X95350Y21361D01*
X95841Y21297D01*
X95808Y20797D01*
X86948D01*
X86915Y21297D01*
X87406Y21361D01*
X88363Y21758D01*
X89186Y22389D01*
X89817Y23211D01*
X90214Y24169D01*
X90349Y25197D01*
Y28740D01*
X90214Y29768D01*
X89817Y30726D01*
X89186Y31548D01*
X88363Y32179D01*
X87406Y32576D01*
X86612Y32680D01*
X86427Y33202D01*
X87191Y33966D01*
X90243D01*
X90819Y34081D01*
X91308Y34407D01*
X94492Y37592D01*
X94972Y37393D01*
X96000Y37257D01*
X97028Y37393D01*
X97986Y37789D01*
X98808Y38420D01*
X99439Y39243D01*
X99836Y40201D01*
X99971Y41228D01*
Y44772D01*
X99836Y45799D01*
X99439Y46757D01*
X98808Y47580D01*
X97986Y48211D01*
X97028Y48607D01*
X96000Y48743D01*
X94972Y48607D01*
X94015Y48211D01*
X93192Y47580D01*
X92561Y46757D01*
X92164Y45799D01*
X92029Y44772D01*
Y41228D01*
X92164Y40201D01*
X92363Y39720D01*
X90399Y37756D01*
X89937Y37947D01*
Y46580D01*
X95919Y52562D01*
X96245Y53050D01*
X96360Y53626D01*
Y58182D01*
X96245Y58758D01*
X95919Y59247D01*
X90354Y64812D01*
X89865Y65138D01*
X89289Y65253D01*
X87563D01*
X86049Y66766D01*
X86234Y67288D01*
X87028Y67393D01*
X87985Y67789D01*
X88808Y68420D01*
X89369Y69151D01*
X89744Y69084D01*
X89869Y69019D01*
Y67835D01*
X89983Y67259D01*
X90310Y66771D01*
X104495Y52586D01*
Y48410D01*
X104015Y48211D01*
X103192Y47580D01*
X102561Y46757D01*
X102164Y45799D01*
X102029Y44772D01*
Y41228D01*
X102164Y40201D01*
X102561Y39243D01*
X103192Y38420D01*
X104015Y37789D01*
X104972Y37393D01*
X106000Y37257D01*
X107028Y37393D01*
X107985Y37789D01*
X108808Y38420D01*
X109439Y39243D01*
X109836Y40201D01*
X109971Y41228D01*
Y44772D01*
X109836Y45799D01*
X109439Y46757D01*
X108808Y47580D01*
X107985Y48211D01*
X107505Y48410D01*
Y53210D01*
X107391Y53786D01*
X107064Y54274D01*
X94536Y66802D01*
X94820Y67226D01*
X94917Y67185D01*
X95500Y67109D01*
Y73000D01*
X96500D01*
Y67109D01*
D02*
G37*
G36*
X90439Y55439D02*
X91155Y54960D01*
X92000Y54792D01*
X92845Y54960D01*
X92908Y55002D01*
X93349Y54767D01*
Y54250D01*
X87808Y48709D01*
X82063D01*
Y40273D01*
X81768D01*
X81192Y40158D01*
X80703Y39832D01*
X75314Y34442D01*
X74987Y33954D01*
X74873Y33378D01*
Y32378D01*
X74392Y32179D01*
X73570Y31548D01*
X72939Y30726D01*
X72542Y29768D01*
X72407Y28740D01*
Y25197D01*
X72542Y24169D01*
X72939Y23211D01*
X73426Y22576D01*
X73188Y22076D01*
X69568D01*
X69330Y22576D01*
X69817Y23211D01*
X70214Y24169D01*
X70349Y25197D01*
Y28740D01*
X70214Y29768D01*
X69817Y30726D01*
X69186Y31548D01*
X68363Y32179D01*
X67406Y32576D01*
X66378Y32711D01*
X65350Y32576D01*
X64393Y32179D01*
X63772Y31703D01*
X59505Y35970D01*
Y43402D01*
X59561Y43439D01*
X60040Y44155D01*
X60208Y45000D01*
X60040Y45845D01*
X59690Y46369D01*
X59932Y46869D01*
X74916D01*
X75492Y46983D01*
X75981Y47310D01*
X84166Y55495D01*
X85808D01*
X85857Y54995D01*
X85671Y54958D01*
X85226Y54869D01*
X84569Y54431D01*
X84131Y53774D01*
X84076Y53500D01*
X87924D01*
X87869Y53774D01*
X87431Y54431D01*
X86774Y54869D01*
X86329Y54958D01*
X86143Y54995D01*
X86192Y55495D01*
X90402D01*
X90439Y55439D01*
D02*
G37*
G36*
X157178Y34462D02*
X157193Y34387D01*
X157671Y33671D01*
X158387Y33193D01*
X159232Y33024D01*
X160077Y33193D01*
X160793Y33671D01*
X160831Y33727D01*
X183272D01*
X184312Y32687D01*
X184337Y32533D01*
X184278Y32120D01*
X184245Y32066D01*
X183570Y31548D01*
X182939Y30726D01*
X182542Y29768D01*
X182407Y28740D01*
Y25197D01*
X182542Y24169D01*
X182939Y23211D01*
X183570Y22389D01*
X184392Y21758D01*
X185350Y21361D01*
X186378Y21226D01*
X187406Y21361D01*
X188363Y21758D01*
X189186Y22389D01*
X189817Y23211D01*
X190214Y24169D01*
X190349Y25197D01*
Y28740D01*
X190214Y29768D01*
X189817Y30726D01*
X189186Y31548D01*
X189149Y31576D01*
X189310Y32050D01*
X193446D01*
X193607Y31576D01*
X193570Y31548D01*
X192939Y30726D01*
X192542Y29768D01*
X192407Y28740D01*
Y25197D01*
X192542Y24169D01*
X192939Y23211D01*
X193570Y22389D01*
X194393Y21758D01*
X195350Y21361D01*
X196378Y21226D01*
X197406Y21361D01*
X198363Y21758D01*
X199186Y22389D01*
X199817Y23211D01*
X200214Y24169D01*
X200349Y25197D01*
Y28740D01*
X200214Y29768D01*
X199817Y30726D01*
X199186Y31548D01*
X199149Y31576D01*
X199310Y32050D01*
X213446D01*
X213607Y31576D01*
X213570Y31548D01*
X212939Y30726D01*
X212542Y29768D01*
X212407Y28740D01*
Y25197D01*
X212542Y24169D01*
X212939Y23211D01*
X213570Y22389D01*
X214392Y21758D01*
X215350Y21361D01*
X216378Y21226D01*
X217406Y21361D01*
X218363Y21758D01*
X219186Y22389D01*
X219817Y23211D01*
X220214Y24169D01*
X220349Y25197D01*
Y28740D01*
X220214Y29768D01*
X219817Y30726D01*
X219186Y31548D01*
X219149Y31576D01*
X219310Y32050D01*
X220939D01*
X222741Y30248D01*
X222542Y29768D01*
X222407Y28740D01*
Y25197D01*
X222542Y24169D01*
X222939Y23211D01*
X223570Y22389D01*
X224393Y21758D01*
X225350Y21361D01*
X226144Y21257D01*
X226329Y20734D01*
X222100Y16505D01*
X211310D01*
X210734Y16391D01*
X210245Y16064D01*
X209521Y15340D01*
X205176D01*
X204969Y15840D01*
X207953Y18824D01*
X208386Y18738D01*
X209231Y18906D01*
X209947Y19385D01*
X210425Y20101D01*
X210594Y20946D01*
X210425Y21791D01*
X209947Y22507D01*
X209231Y22985D01*
X208386Y23154D01*
X207541Y22985D01*
X206825Y22507D01*
X206346Y21791D01*
X206268Y21396D01*
X202814Y17942D01*
X191955D01*
X191804Y18442D01*
X191994Y18569D01*
X192432Y19226D01*
X192487Y19500D01*
X188640D01*
X188694Y19226D01*
X189133Y18569D01*
X189323Y18442D01*
X189171Y17942D01*
X175718D01*
X175561Y18439D01*
X176040Y19155D01*
X176208Y20000D01*
X176056Y20764D01*
X176337Y21231D01*
X176378Y21226D01*
X177406Y21361D01*
X178363Y21758D01*
X179186Y22389D01*
X179817Y23211D01*
X180214Y24169D01*
X180349Y25197D01*
Y28740D01*
X180214Y29768D01*
X179817Y30726D01*
X179186Y31548D01*
X178363Y32179D01*
X177406Y32576D01*
X176378Y32711D01*
X175350Y32576D01*
X174392Y32179D01*
X173570Y31548D01*
X172939Y30726D01*
X172542Y29768D01*
X172407Y28740D01*
Y25197D01*
X172542Y24169D01*
X172939Y23211D01*
X173408Y22600D01*
X173226Y22054D01*
X173155Y22040D01*
X172439Y21561D01*
X172138Y21112D01*
X168110D01*
X168010Y21611D01*
X168363Y21758D01*
X169186Y22389D01*
X169817Y23211D01*
X170214Y24169D01*
X170349Y25197D01*
Y28740D01*
X170214Y29768D01*
X169817Y30726D01*
X169186Y31548D01*
X168363Y32179D01*
X167406Y32576D01*
X166378Y32711D01*
X165350Y32576D01*
X164392Y32179D01*
X163570Y31548D01*
X162939Y30726D01*
X162542Y29768D01*
X162407Y28740D01*
Y25197D01*
X162542Y24169D01*
X162939Y23211D01*
X163570Y22389D01*
X164392Y21758D01*
X164746Y21611D01*
X164646Y21112D01*
X158109D01*
X158010Y21611D01*
X158363Y21758D01*
X159186Y22389D01*
X159817Y23211D01*
X160214Y24169D01*
X160349Y25197D01*
Y28740D01*
X160214Y29768D01*
X159817Y30726D01*
X159186Y31548D01*
X158363Y32179D01*
X157406Y32576D01*
X156378Y32711D01*
X155379Y32580D01*
X155340Y32613D01*
X155155Y33063D01*
X156699Y34607D01*
X157178Y34462D01*
D02*
G37*
%LPC*%
G36*
X172314Y270283D02*
X171782Y270213D01*
X170820Y269815D01*
X169995Y269181D01*
X169361Y268356D01*
X168963Y267394D01*
X168893Y266862D01*
X172314D01*
Y270283D01*
D02*
G37*
G36*
X202500Y267120D02*
X201917Y267043D01*
X200907Y266625D01*
X200041Y265960D01*
X199375Y265093D01*
X198957Y264083D01*
X198880Y263500D01*
X202500D01*
Y267120D01*
D02*
G37*
G36*
X193000Y266971D02*
X191972Y266836D01*
X191015Y266439D01*
X190192Y265808D01*
X189561Y264985D01*
X189164Y264028D01*
X189029Y263000D01*
X189164Y261972D01*
X189561Y261015D01*
X190192Y260192D01*
X191015Y259561D01*
X191972Y259164D01*
X193000Y259029D01*
X194028Y259164D01*
X194985Y259561D01*
X195808Y260192D01*
X196439Y261015D01*
X196836Y261972D01*
X196971Y263000D01*
X196836Y264028D01*
X196439Y264985D01*
X195808Y265808D01*
X194985Y266439D01*
X194028Y266836D01*
X193000Y266971D01*
D02*
G37*
G36*
X34331Y261331D02*
X25669D01*
Y252669D01*
X34331D01*
Y261331D01*
D02*
G37*
G36*
X48668Y249907D02*
X47537Y249759D01*
X46484Y249322D01*
X45579Y248628D01*
X44885Y247723D01*
X44449Y246670D01*
X44300Y245539D01*
X44444Y244447D01*
X39737Y239740D01*
X21657D01*
X21512Y239711D01*
X14866D01*
Y231444D01*
X23134D01*
Y236730D01*
X39443D01*
X39721Y236314D01*
X39625Y236083D01*
X39548Y235500D01*
X47787D01*
X47711Y236083D01*
X47293Y237093D01*
X46627Y237960D01*
X45761Y238625D01*
X44751Y239043D01*
X44091Y239130D01*
X43912Y239658D01*
X46216Y241962D01*
X46484Y241757D01*
X47537Y241320D01*
X48668Y241171D01*
X49798Y241320D01*
X50852Y241757D01*
X51757Y242451D01*
X52451Y243355D01*
X52887Y244409D01*
X53036Y245539D01*
X52887Y246670D01*
X52451Y247723D01*
X51757Y248628D01*
X50852Y249322D01*
X49798Y249759D01*
X48668Y249907D01*
D02*
G37*
G36*
X69168Y239044D02*
Y235425D01*
X72787D01*
X72711Y236008D01*
X72293Y237017D01*
X71627Y237884D01*
X70761Y238549D01*
X69751Y238967D01*
X69168Y239044D01*
D02*
G37*
G36*
X68168D02*
X67585Y238967D01*
X66575Y238549D01*
X65708Y237884D01*
X65043Y237017D01*
X64625Y236008D01*
X64548Y235425D01*
X68168D01*
Y239044D01*
D02*
G37*
G36*
X9000Y239747D02*
X7921Y239605D01*
X6915Y239188D01*
X6052Y238526D01*
X5389Y237662D01*
X4972Y236657D01*
X4831Y235577D01*
X4972Y234498D01*
X5389Y233493D01*
X6052Y232629D01*
X6915Y231966D01*
X7921Y231550D01*
X9000Y231408D01*
X10079Y231550D01*
X11085Y231966D01*
X11948Y232629D01*
X12611Y233493D01*
X13027Y234498D01*
X13170Y235577D01*
X13027Y236657D01*
X12611Y237662D01*
X11948Y238526D01*
X11085Y239188D01*
X10079Y239605D01*
X9000Y239747D01*
D02*
G37*
G36*
X53668Y238971D02*
X52640Y238836D01*
X51682Y238439D01*
X50860Y237808D01*
X50229Y236985D01*
X49832Y236028D01*
X49697Y235000D01*
X49832Y233972D01*
X50229Y233014D01*
X50860Y232192D01*
X51682Y231561D01*
X52640Y231164D01*
X53668Y231029D01*
X54696Y231164D01*
X55653Y231561D01*
X56476Y232192D01*
X57107Y233014D01*
X57503Y233972D01*
X57639Y235000D01*
X57503Y236028D01*
X57107Y236985D01*
X56476Y237808D01*
X55653Y238439D01*
X54696Y238836D01*
X53668Y238971D01*
D02*
G37*
G36*
X47787Y234500D02*
X44168D01*
Y230880D01*
X44751Y230957D01*
X45761Y231375D01*
X46627Y232041D01*
X47293Y232907D01*
X47711Y233917D01*
X47787Y234500D01*
D02*
G37*
G36*
X43168D02*
X39548D01*
X39625Y233917D01*
X40043Y232907D01*
X40708Y232041D01*
X41575Y231375D01*
X42585Y230957D01*
X43168Y230880D01*
Y234500D01*
D02*
G37*
G36*
X72787Y234425D02*
X69168D01*
Y230805D01*
X69751Y230882D01*
X70761Y231300D01*
X71627Y231965D01*
X72293Y232832D01*
X72711Y233841D01*
X72787Y234425D01*
D02*
G37*
G36*
X68168D02*
X64548D01*
X64625Y233841D01*
X65043Y232832D01*
X65708Y231965D01*
X66575Y231300D01*
X67585Y230882D01*
X68168Y230805D01*
Y234425D01*
D02*
G37*
G36*
X32701Y230924D02*
Y229500D01*
X34124D01*
X34070Y229774D01*
X33631Y230431D01*
X32975Y230869D01*
X32701Y230924D01*
D02*
G37*
G36*
X31701D02*
X31426Y230869D01*
X30770Y230431D01*
X30332Y229774D01*
X30277Y229500D01*
X31701D01*
Y230924D01*
D02*
G37*
G36*
X34124Y228500D02*
X32701D01*
Y227076D01*
X32975Y227131D01*
X33631Y227569D01*
X34070Y228226D01*
X34124Y228500D01*
D02*
G37*
G36*
X31701D02*
X30277D01*
X30332Y228226D01*
X30770Y227569D01*
X31426Y227131D01*
X31701Y227076D01*
Y228500D01*
D02*
G37*
G36*
X45500Y196924D02*
X45226Y196869D01*
X44569Y196431D01*
X44131Y195774D01*
X44076Y195500D01*
X45500D01*
Y196924D01*
D02*
G37*
G36*
Y194500D02*
X44076D01*
X44131Y194226D01*
X44569Y193569D01*
X45226Y193131D01*
X45500Y193076D01*
Y194500D01*
D02*
G37*
G36*
X36772Y183971D02*
X33228D01*
X32201Y183836D01*
X31243Y183439D01*
X30420Y182808D01*
X29789Y181985D01*
X29590Y181505D01*
X25409D01*
X25211Y181985D01*
X24580Y182808D01*
X23757Y183439D01*
X22799Y183836D01*
X21772Y183971D01*
X18228D01*
X17201Y183836D01*
X16243Y183439D01*
X15420Y182808D01*
X14789Y181985D01*
X14393Y181028D01*
X14257Y180000D01*
X14393Y178972D01*
X14789Y178015D01*
X15420Y177192D01*
X16243Y176561D01*
X17201Y176164D01*
X18228Y176029D01*
X21772D01*
X22799Y176164D01*
X23757Y176561D01*
X24580Y177192D01*
X25211Y178015D01*
X25409Y178495D01*
X29590D01*
X29789Y178015D01*
X30420Y177192D01*
X31243Y176561D01*
X32201Y176164D01*
X33228Y176029D01*
X36772D01*
X37799Y176164D01*
X38757Y176561D01*
X39580Y177192D01*
X40211Y178015D01*
X40607Y178972D01*
X40743Y180000D01*
X40607Y181028D01*
X40211Y181985D01*
X39580Y182808D01*
X38757Y183439D01*
X37799Y183836D01*
X36772Y183971D01*
D02*
G37*
G36*
Y173971D02*
X33228D01*
X32201Y173836D01*
X31243Y173439D01*
X30420Y172808D01*
X29789Y171985D01*
X29590Y171505D01*
X25409D01*
X25211Y171985D01*
X24580Y172808D01*
X23757Y173439D01*
X22799Y173836D01*
X21772Y173971D01*
X18228D01*
X17201Y173836D01*
X16243Y173439D01*
X15420Y172808D01*
X14789Y171985D01*
X14393Y171028D01*
X14257Y170000D01*
X14393Y168972D01*
X14789Y168015D01*
X15420Y167192D01*
X16243Y166561D01*
X17201Y166164D01*
X18228Y166029D01*
X21772D01*
X22799Y166164D01*
X23757Y166561D01*
X24580Y167192D01*
X25211Y168015D01*
X25409Y168495D01*
X29590D01*
X29789Y168015D01*
X30420Y167192D01*
X31243Y166561D01*
X32201Y166164D01*
X33228Y166029D01*
X36772D01*
X37799Y166164D01*
X38757Y166561D01*
X39580Y167192D01*
X40211Y168015D01*
X40607Y168972D01*
X40743Y170000D01*
X40607Y171028D01*
X40211Y171985D01*
X39580Y172808D01*
X38757Y173439D01*
X37799Y173836D01*
X36772Y173971D01*
D02*
G37*
G36*
Y163971D02*
X33228D01*
X32201Y163836D01*
X31243Y163439D01*
X30420Y162808D01*
X29789Y161986D01*
X29590Y161505D01*
X25409D01*
X25211Y161986D01*
X24580Y162808D01*
X23757Y163439D01*
X22799Y163836D01*
X21772Y163971D01*
X18228D01*
X17201Y163836D01*
X16243Y163439D01*
X15420Y162808D01*
X14789Y161986D01*
X14393Y161028D01*
X14257Y160000D01*
X14393Y158972D01*
X14789Y158015D01*
X15420Y157192D01*
X16243Y156561D01*
X17201Y156164D01*
X18228Y156029D01*
X21772D01*
X22799Y156164D01*
X23757Y156561D01*
X24580Y157192D01*
X25211Y158015D01*
X25409Y158495D01*
X29590D01*
X29789Y158015D01*
X30420Y157192D01*
X31243Y156561D01*
X32201Y156164D01*
X33228Y156029D01*
X36772D01*
X37799Y156164D01*
X38757Y156561D01*
X39580Y157192D01*
X40211Y158015D01*
X40607Y158972D01*
X40743Y160000D01*
X40607Y161028D01*
X40211Y161986D01*
X39580Y162808D01*
X38757Y163439D01*
X37799Y163836D01*
X36772Y163971D01*
D02*
G37*
G36*
Y153971D02*
X33228D01*
X32201Y153836D01*
X31243Y153439D01*
X30420Y152808D01*
X29789Y151986D01*
X29590Y151505D01*
X25409D01*
X25211Y151986D01*
X24580Y152808D01*
X23757Y153439D01*
X22799Y153836D01*
X21772Y153971D01*
X18228D01*
X17201Y153836D01*
X16243Y153439D01*
X15420Y152808D01*
X14789Y151986D01*
X14393Y151028D01*
X14257Y150000D01*
X14393Y148972D01*
X14789Y148014D01*
X15420Y147192D01*
X16243Y146561D01*
X17201Y146164D01*
X18228Y146029D01*
X21772D01*
X22799Y146164D01*
X23757Y146561D01*
X24580Y147192D01*
X25211Y148014D01*
X25409Y148495D01*
X29590D01*
X29789Y148014D01*
X30420Y147192D01*
X31243Y146561D01*
X32201Y146164D01*
X33228Y146029D01*
X36772D01*
X37799Y146164D01*
X38757Y146561D01*
X39580Y147192D01*
X40211Y148014D01*
X40607Y148972D01*
X40743Y150000D01*
X40607Y151028D01*
X40211Y151986D01*
X39580Y152808D01*
X38757Y153439D01*
X37799Y153836D01*
X36772Y153971D01*
D02*
G37*
G36*
X41500Y146651D02*
Y145227D01*
X42924D01*
X42869Y145501D01*
X42431Y146157D01*
X41774Y146596D01*
X41500Y146651D01*
D02*
G37*
G36*
X40500D02*
X40226Y146596D01*
X39569Y146157D01*
X39131Y145501D01*
X39076Y145227D01*
X40500D01*
Y146651D01*
D02*
G37*
G36*
Y144227D02*
X39076D01*
X39131Y143953D01*
X39364Y143603D01*
X38994Y143257D01*
X38757Y143439D01*
X37799Y143836D01*
X36772Y143971D01*
X33228D01*
X32201Y143836D01*
X31243Y143439D01*
X30420Y142808D01*
X29789Y141985D01*
X29590Y141505D01*
X25409D01*
X25211Y141985D01*
X24580Y142808D01*
X23757Y143439D01*
X22799Y143836D01*
X21772Y143971D01*
X18228D01*
X17201Y143836D01*
X16243Y143439D01*
X15420Y142808D01*
X14789Y141985D01*
X14393Y141028D01*
X14257Y140000D01*
X14393Y138972D01*
X14789Y138014D01*
X15420Y137192D01*
X16243Y136561D01*
X17201Y136164D01*
X18228Y136029D01*
X21772D01*
X22799Y136164D01*
X23757Y136561D01*
X24580Y137192D01*
X25211Y138014D01*
X25409Y138495D01*
X29590D01*
X29789Y138014D01*
X30420Y137192D01*
X31243Y136561D01*
X32201Y136164D01*
X33228Y136029D01*
X36772D01*
X37799Y136164D01*
X38757Y136561D01*
X39580Y137192D01*
X40211Y138014D01*
X40607Y138972D01*
X40743Y140000D01*
X40607Y141028D01*
X40211Y141985D01*
X39768Y142562D01*
X40115Y142932D01*
X40226Y142858D01*
X40500Y142803D01*
Y144227D01*
D02*
G37*
G36*
X42924D02*
X41500D01*
Y142803D01*
X41774Y142858D01*
X42431Y143296D01*
X42869Y143953D01*
X42924Y144227D01*
D02*
G37*
G36*
X36772Y133971D02*
X33228D01*
X32201Y133836D01*
X31243Y133439D01*
X30420Y132808D01*
X29789Y131985D01*
X29590Y131505D01*
X25409D01*
X25211Y131985D01*
X24580Y132808D01*
X23757Y133439D01*
X22799Y133836D01*
X21772Y133971D01*
X18228D01*
X17201Y133836D01*
X16243Y133439D01*
X15420Y132808D01*
X14789Y131985D01*
X14393Y131028D01*
X14257Y130000D01*
X14393Y128972D01*
X14789Y128015D01*
X15420Y127192D01*
X16243Y126561D01*
X17201Y126164D01*
X18228Y126029D01*
X21772D01*
X22799Y126164D01*
X23757Y126561D01*
X24580Y127192D01*
X25211Y128015D01*
X25409Y128495D01*
X29590D01*
X29789Y128015D01*
X30420Y127192D01*
X31243Y126561D01*
X32201Y126164D01*
X33228Y126029D01*
X36772D01*
X37799Y126164D01*
X38757Y126561D01*
X39580Y127192D01*
X40211Y128015D01*
X40607Y128972D01*
X40743Y130000D01*
X40607Y131028D01*
X40211Y131985D01*
X39580Y132808D01*
X38757Y133439D01*
X37799Y133836D01*
X36772Y133971D01*
D02*
G37*
G36*
Y94185D02*
X35500D01*
Y90500D01*
X40891D01*
X40815Y91083D01*
X40396Y92093D01*
X39731Y92959D01*
X38864Y93625D01*
X37855Y94043D01*
X36772Y94185D01*
D02*
G37*
G36*
X34500D02*
X33228D01*
X32145Y94043D01*
X31136Y93625D01*
X30269Y92959D01*
X29604Y92093D01*
X29186Y91083D01*
X29109Y90500D01*
X34500D01*
Y94185D01*
D02*
G37*
G36*
X21772D02*
X20500D01*
Y90500D01*
X25891D01*
X25815Y91083D01*
X25396Y92093D01*
X24731Y92959D01*
X23864Y93625D01*
X22855Y94043D01*
X21772Y94185D01*
D02*
G37*
G36*
X19500D02*
X18228D01*
X17145Y94043D01*
X16136Y93625D01*
X15269Y92959D01*
X14604Y92093D01*
X14186Y91083D01*
X14109Y90500D01*
X19500D01*
Y94185D01*
D02*
G37*
G36*
X226772Y94185D02*
X225500D01*
Y90500D01*
X230891D01*
X230815Y91083D01*
X230396Y92093D01*
X229731Y92959D01*
X228864Y93625D01*
X227855Y94043D01*
X226772Y94185D01*
D02*
G37*
G36*
X129891Y89500D02*
X124500D01*
Y85815D01*
X125772D01*
X126855Y85957D01*
X127864Y86375D01*
X128731Y87041D01*
X129396Y87907D01*
X129815Y88917D01*
X129891Y89500D01*
D02*
G37*
G36*
X123500D02*
X118109D01*
X118185Y88917D01*
X118604Y87907D01*
X119269Y87041D01*
X120136Y86375D01*
X121145Y85957D01*
X122228Y85815D01*
X123500D01*
Y89500D01*
D02*
G37*
G36*
X40891D02*
X35500D01*
Y85815D01*
X36772D01*
X37855Y85957D01*
X38864Y86375D01*
X39731Y87041D01*
X40396Y87907D01*
X40815Y88917D01*
X40891Y89500D01*
D02*
G37*
G36*
X34500D02*
X29109D01*
X29186Y88917D01*
X29604Y87907D01*
X30269Y87041D01*
X31136Y86375D01*
X32145Y85957D01*
X33228Y85815D01*
X34500D01*
Y89500D01*
D02*
G37*
G36*
X25891D02*
X20500D01*
Y85815D01*
X21772D01*
X22855Y85957D01*
X23864Y86375D01*
X24731Y87041D01*
X25396Y87907D01*
X25815Y88917D01*
X25891Y89500D01*
D02*
G37*
G36*
X19500D02*
X14109D01*
X14186Y88917D01*
X14604Y87907D01*
X15269Y87041D01*
X16136Y86375D01*
X17145Y85957D01*
X18228Y85815D01*
X19500D01*
Y89500D01*
D02*
G37*
G36*
X230891Y89500D02*
X225500D01*
Y85815D01*
X226772D01*
X227855Y85957D01*
X228864Y86375D01*
X229731Y87041D01*
X230396Y87907D01*
X230815Y88917D01*
X230891Y89500D01*
D02*
G37*
G36*
X244500Y87133D02*
Y85709D01*
X245924D01*
X245869Y85984D01*
X245431Y86640D01*
X244774Y87078D01*
X244500Y87133D01*
D02*
G37*
G36*
X243500D02*
X243226Y87078D01*
X242569Y86640D01*
X242131Y85984D01*
X242076Y85709D01*
X243500D01*
Y87133D01*
D02*
G37*
G36*
X75500Y85903D02*
Y84480D01*
X76924D01*
X76869Y84754D01*
X76431Y85410D01*
X75774Y85849D01*
X75500Y85903D01*
D02*
G37*
G36*
X74500D02*
X74226Y85849D01*
X73569Y85410D01*
X73131Y84754D01*
X73076Y84480D01*
X74500D01*
Y85903D01*
D02*
G37*
G36*
X68665Y85129D02*
Y83705D01*
X70089D01*
X70034Y83980D01*
X69596Y84636D01*
X68940Y85075D01*
X68665Y85129D01*
D02*
G37*
G36*
X67665D02*
X67391Y85075D01*
X66735Y84636D01*
X66296Y83980D01*
X66242Y83705D01*
X67665D01*
Y85129D01*
D02*
G37*
G36*
X38069Y84880D02*
Y83457D01*
X39493D01*
X39439Y83731D01*
X39000Y84387D01*
X38344Y84826D01*
X38069Y84880D01*
D02*
G37*
G36*
X37069D02*
X36795Y84826D01*
X36139Y84387D01*
X35700Y83731D01*
X35646Y83457D01*
X37069D01*
Y84880D01*
D02*
G37*
G36*
X245924Y84709D02*
X244500D01*
Y83286D01*
X244774Y83340D01*
X245431Y83779D01*
X245869Y84435D01*
X245924Y84709D01*
D02*
G37*
G36*
X243500D02*
X242076D01*
X242131Y84435D01*
X242569Y83779D01*
X243226Y83340D01*
X243500Y83286D01*
Y84709D01*
D02*
G37*
G36*
X76924Y83480D02*
X75500D01*
Y82056D01*
X75774Y82111D01*
X76431Y82549D01*
X76869Y83205D01*
X76924Y83480D01*
D02*
G37*
G36*
X74500D02*
X73076D01*
X73131Y83205D01*
X73569Y82549D01*
X74226Y82111D01*
X74500Y82056D01*
Y83480D01*
D02*
G37*
G36*
X39493Y82457D02*
X38069D01*
Y81033D01*
X38344Y81088D01*
X39000Y81526D01*
X39439Y82183D01*
X39493Y82457D01*
D02*
G37*
G36*
X37069D02*
X35646D01*
X35700Y82183D01*
X36139Y81526D01*
X36795Y81088D01*
X37069Y81033D01*
Y82457D01*
D02*
G37*
G36*
X65500Y76924D02*
Y75500D01*
X66924D01*
X66869Y75774D01*
X66431Y76431D01*
X65774Y76869D01*
X65500Y76924D01*
D02*
G37*
G36*
X64500D02*
X64226Y76869D01*
X63569Y76431D01*
X63131Y75774D01*
X63076Y75500D01*
X64500D01*
Y76924D01*
D02*
G37*
G36*
X125500Y78891D02*
X124917Y78815D01*
X123907Y78396D01*
X123040Y77731D01*
X122375Y76864D01*
X121957Y75855D01*
X121815Y74772D01*
Y73500D01*
X125500D01*
Y78891D01*
D02*
G37*
G36*
X66924Y74500D02*
X65500D01*
Y73076D01*
X65774Y73131D01*
X66431Y73569D01*
X66869Y74226D01*
X66924Y74500D01*
D02*
G37*
G36*
X64500D02*
X63076D01*
X63131Y74226D01*
X63569Y73569D01*
X64226Y73131D01*
X64500Y73076D01*
Y74500D01*
D02*
G37*
G36*
X44275Y70511D02*
Y69088D01*
X45698D01*
X45644Y69362D01*
X45205Y70018D01*
X44549Y70457D01*
X44275Y70511D01*
D02*
G37*
G36*
X43275D02*
X43000Y70457D01*
X42344Y70018D01*
X41906Y69362D01*
X41851Y69088D01*
X43275D01*
Y70511D01*
D02*
G37*
G36*
X125500Y72500D02*
X121815D01*
Y71228D01*
X121957Y70145D01*
X122375Y69136D01*
X123040Y68269D01*
X123907Y67604D01*
X124917Y67185D01*
X125500Y67109D01*
Y72500D01*
D02*
G37*
G36*
X45698Y68088D02*
X44275D01*
Y66664D01*
X44549Y66719D01*
X45205Y67157D01*
X45644Y67813D01*
X45698Y68088D01*
D02*
G37*
G36*
X43275D02*
X41851D01*
X41906Y67813D01*
X42344Y67157D01*
X43000Y66719D01*
X43275Y66664D01*
Y68088D01*
D02*
G37*
G36*
X271500Y52739D02*
Y51316D01*
X272924D01*
X272869Y51590D01*
X272431Y52246D01*
X271774Y52685D01*
X271500Y52739D01*
D02*
G37*
G36*
X270500D02*
X270226Y52685D01*
X269569Y52246D01*
X269131Y51590D01*
X269076Y51316D01*
X270500D01*
Y52739D01*
D02*
G37*
G36*
X272924Y50316D02*
X271500D01*
Y48892D01*
X271774Y48947D01*
X272431Y49385D01*
X272869Y50042D01*
X272924Y50316D01*
D02*
G37*
G36*
X270500D02*
X269076D01*
X269131Y50042D01*
X269569Y49385D01*
X270226Y48947D01*
X270500Y48892D01*
Y50316D01*
D02*
G37*
G36*
X21654Y77792D02*
X19465Y77648D01*
X17314Y77220D01*
X15237Y76515D01*
X13270Y75545D01*
X11446Y74327D01*
X9797Y72881D01*
X8350Y71231D01*
X7132Y69408D01*
X6162Y67440D01*
X5457Y65364D01*
X5029Y63212D01*
X4885Y61024D01*
X5029Y58835D01*
X5457Y56684D01*
X6162Y54607D01*
X7132Y52640D01*
X8350Y50816D01*
X9797Y49167D01*
X11446Y47721D01*
X13270Y46502D01*
X15237Y45532D01*
X17314Y44827D01*
X19465Y44399D01*
X21654Y44255D01*
X23842Y44399D01*
X25993Y44827D01*
X28070Y45532D01*
X30038Y46502D01*
X31861Y47721D01*
X33510Y49167D01*
X34957Y50816D01*
X36175Y52640D01*
X37145Y54607D01*
X37850Y56684D01*
X38278Y58835D01*
X38422Y61024D01*
X38278Y63212D01*
X37850Y65364D01*
X37145Y67440D01*
X36175Y69408D01*
X34957Y71231D01*
X33510Y72881D01*
X31861Y74327D01*
X30038Y75545D01*
X28070Y76515D01*
X25993Y77220D01*
X23842Y77648D01*
X21654Y77792D01*
D02*
G37*
G36*
X185878Y7374D02*
X182193D01*
Y6102D01*
X182335Y5019D01*
X182753Y4010D01*
X183418Y3143D01*
X184285Y2478D01*
X185295Y2060D01*
X185878Y1983D01*
Y7374D01*
D02*
G37*
G36*
X200563D02*
X196878D01*
Y1983D01*
X197461Y2060D01*
X198471Y2478D01*
X199337Y3143D01*
X200003Y4010D01*
X200421Y5019D01*
X200563Y6102D01*
Y7374D01*
D02*
G37*
G36*
X195878D02*
X192192D01*
Y6102D01*
X192335Y5019D01*
X192753Y4010D01*
X193418Y3143D01*
X194285Y2478D01*
X195295Y2060D01*
X195878Y1983D01*
Y7374D01*
D02*
G37*
G36*
X190563D02*
X186878D01*
Y1983D01*
X187461Y2060D01*
X188471Y2478D01*
X189338Y3143D01*
X190003Y4010D01*
X190421Y5019D01*
X190563Y6102D01*
Y7374D01*
D02*
G37*
G36*
X110500Y246924D02*
Y245500D01*
X111924D01*
X111869Y245774D01*
X111431Y246431D01*
X110774Y246869D01*
X110500Y246924D01*
D02*
G37*
G36*
X109500D02*
X109226Y246869D01*
X108569Y246431D01*
X108131Y245774D01*
X108076Y245500D01*
X109500D01*
Y246924D01*
D02*
G37*
G36*
X111924Y244500D02*
X110500D01*
Y243076D01*
X110774Y243131D01*
X111431Y243569D01*
X111869Y244226D01*
X111924Y244500D01*
D02*
G37*
G36*
X109500D02*
X108076D01*
X108131Y244226D01*
X108569Y243569D01*
X109226Y243131D01*
X109500Y243076D01*
Y244500D01*
D02*
G37*
G36*
X229500Y258924D02*
Y257500D01*
X230924D01*
X230869Y257774D01*
X230431Y258431D01*
X229774Y258869D01*
X229500Y258924D01*
D02*
G37*
G36*
X228500D02*
X228226Y258869D01*
X227569Y258431D01*
X227131Y257774D01*
X227076Y257500D01*
X228500D01*
Y258924D01*
D02*
G37*
G36*
X230924Y256500D02*
X229500D01*
Y255076D01*
X229774Y255131D01*
X230431Y255569D01*
X230869Y256226D01*
X230924Y256500D01*
D02*
G37*
G36*
X228500D02*
X227076D01*
X227131Y256226D01*
X227569Y255569D01*
X228226Y255131D01*
X228500Y255076D01*
Y256500D01*
D02*
G37*
G36*
X194500Y234517D02*
Y230500D01*
X198517D01*
X198426Y231186D01*
X197969Y232291D01*
X197240Y233240D01*
X196291Y233969D01*
X195186Y234426D01*
X194500Y234517D01*
D02*
G37*
G36*
X193500Y234517D02*
X192814Y234426D01*
X191709Y233969D01*
X190760Y233240D01*
X190031Y232291D01*
X189574Y231186D01*
X189483Y230500D01*
X193500D01*
Y234517D01*
D02*
G37*
G36*
X198517Y229500D02*
X194500D01*
Y225483D01*
X195186Y225574D01*
X196291Y226031D01*
X197240Y226760D01*
X197969Y227709D01*
X198426Y228814D01*
X198517Y229500D01*
D02*
G37*
G36*
X160500Y249924D02*
Y248500D01*
X161924D01*
X161869Y248774D01*
X161431Y249431D01*
X160774Y249869D01*
X160500Y249924D01*
D02*
G37*
G36*
X159500D02*
X159226Y249869D01*
X158569Y249431D01*
X158131Y248774D01*
X158076Y248500D01*
X159500D01*
Y249924D01*
D02*
G37*
G36*
X161924Y247500D02*
X160500D01*
Y246076D01*
X160774Y246131D01*
X161431Y246569D01*
X161869Y247226D01*
X161924Y247500D01*
D02*
G37*
G36*
X159500D02*
X158076D01*
X158131Y247226D01*
X158569Y246569D01*
X159226Y246131D01*
X159500Y246076D01*
Y247500D01*
D02*
G37*
G36*
X236500Y247924D02*
Y246500D01*
X237924D01*
X237869Y246774D01*
X237431Y247431D01*
X236774Y247869D01*
X236500Y247924D01*
D02*
G37*
G36*
X235500D02*
X235226Y247869D01*
X234569Y247431D01*
X234131Y246774D01*
X234076Y246500D01*
X235500D01*
Y247924D01*
D02*
G37*
G36*
X237924Y245500D02*
X236500D01*
Y244076D01*
X236774Y244131D01*
X237431Y244569D01*
X237869Y245226D01*
X237924Y245500D01*
D02*
G37*
G36*
X235500D02*
X234076D01*
X234131Y245226D01*
X234569Y244569D01*
X235226Y244131D01*
X235500Y244076D01*
Y245500D01*
D02*
G37*
G36*
X156898Y224924D02*
Y223500D01*
X158321D01*
X158267Y223774D01*
X157828Y224431D01*
X157172Y224869D01*
X156898Y224924D01*
D02*
G37*
G36*
X155898D02*
X155623Y224869D01*
X154967Y224431D01*
X154528Y223774D01*
X154474Y223500D01*
X155898D01*
Y224924D01*
D02*
G37*
G36*
X158321Y222500D02*
X156898D01*
Y221076D01*
X157172Y221131D01*
X157828Y221569D01*
X158267Y222226D01*
X158321Y222500D01*
D02*
G37*
G36*
X155898D02*
X154474D01*
X154528Y222226D01*
X154967Y221569D01*
X155623Y221131D01*
X155898Y221076D01*
Y222500D01*
D02*
G37*
G36*
X264458Y250035D02*
X263101D01*
X263002Y250016D01*
X262902D01*
X261571Y249751D01*
X261478Y249712D01*
X261380Y249693D01*
X260126Y249174D01*
X260042Y249118D01*
X259949Y249079D01*
X258821Y248325D01*
X258750Y248254D01*
X258667Y248199D01*
X257707Y247239D01*
X257651Y247155D01*
X257580Y247084D01*
X256826Y245956D01*
X256788Y245863D01*
X256732Y245780D01*
X256213Y244526D01*
X256193Y244427D01*
X256154Y244335D01*
X255890Y243004D01*
Y242903D01*
X255870Y242805D01*
Y241447D01*
X255890Y241349D01*
Y241248D01*
X256154Y239917D01*
X256193Y239825D01*
X256213Y239726D01*
X256732Y238472D01*
X256788Y238389D01*
X256826Y238296D01*
X257580Y237168D01*
X257651Y237097D01*
X257707Y237013D01*
X258667Y236053D01*
X258750Y235998D01*
X258821Y235927D01*
X259949Y235173D01*
X260042Y235134D01*
X260126Y235078D01*
X261380Y234559D01*
X261478Y234539D01*
X261571Y234501D01*
X262902Y234236D01*
X263002D01*
X263101Y234217D01*
X264458D01*
X264557Y234236D01*
X264657D01*
X265988Y234501D01*
X266081Y234539D01*
X266179Y234559D01*
X267433Y235078D01*
X267517Y235134D01*
X267610Y235173D01*
X268738Y235927D01*
X268809Y235998D01*
X268893Y236053D01*
X269852Y237013D01*
X269908Y237097D01*
X269979Y237168D01*
X270733Y238296D01*
X270771Y238389D01*
X270827Y238472D01*
X271346Y239726D01*
X271366Y239825D01*
X271405Y239917D01*
X271669Y241248D01*
Y241349D01*
X271689Y241447D01*
Y242805D01*
X271669Y242903D01*
Y243004D01*
X271405Y244335D01*
X271366Y244427D01*
X271346Y244526D01*
X270827Y245780D01*
X270771Y245863D01*
X270733Y245956D01*
X269979Y247084D01*
X269908Y247155D01*
X269852Y247239D01*
X268893Y248199D01*
X268809Y248254D01*
X268738Y248325D01*
X267610Y249079D01*
X267517Y249118D01*
X267433Y249174D01*
X266179Y249693D01*
X266081Y249712D01*
X265988Y249751D01*
X264657Y250016D01*
X264557D01*
X264458Y250035D01*
D02*
G37*
G36*
X271779Y234948D02*
Y233524D01*
X273203D01*
X273148Y233798D01*
X272709Y234455D01*
X272053Y234893D01*
X271779Y234948D01*
D02*
G37*
G36*
X270779D02*
X270505Y234893D01*
X269848Y234455D01*
X269410Y233798D01*
X269355Y233524D01*
X270779D01*
Y234948D01*
D02*
G37*
G36*
X273203Y232524D02*
X271779D01*
Y231101D01*
X272053Y231155D01*
X272709Y231594D01*
X273148Y232250D01*
X273203Y232524D01*
D02*
G37*
G36*
X270779D02*
X269355D01*
X269410Y232250D01*
X269848Y231594D01*
X270505Y231155D01*
X270779Y231101D01*
Y232524D01*
D02*
G37*
G36*
X220599Y203770D02*
Y202347D01*
X222023D01*
X221968Y202621D01*
X221529Y203277D01*
X220873Y203716D01*
X220599Y203770D01*
D02*
G37*
G36*
X219599D02*
X219325Y203716D01*
X218668Y203277D01*
X218230Y202621D01*
X218175Y202347D01*
X219599D01*
Y203770D01*
D02*
G37*
G36*
X254103Y225500D02*
X252679D01*
X252734Y225226D01*
X253172Y224569D01*
X253829Y224131D01*
X254103Y224076D01*
Y225500D01*
D02*
G37*
G36*
X268500Y193488D02*
X264850D01*
Y190626D01*
X268500D01*
Y193488D01*
D02*
G37*
G36*
Y189626D02*
X264850D01*
Y186764D01*
X268500D01*
Y189626D01*
D02*
G37*
G36*
X235500Y167120D02*
Y163500D01*
X239120D01*
X239043Y164083D01*
X238625Y165093D01*
X237960Y165960D01*
X237093Y166625D01*
X236083Y167043D01*
X235500Y167120D01*
D02*
G37*
G36*
X245000Y166971D02*
X243972Y166836D01*
X243015Y166439D01*
X242192Y165808D01*
X241561Y164986D01*
X241164Y164028D01*
X241029Y163000D01*
X241164Y161972D01*
X241561Y161014D01*
X242192Y160192D01*
X243015Y159561D01*
X243972Y159164D01*
X245000Y159029D01*
X246028Y159164D01*
X246986Y159561D01*
X247808Y160192D01*
X248439Y161014D01*
X248836Y161972D01*
X248971Y163000D01*
X248836Y164028D01*
X248439Y164986D01*
X247808Y165808D01*
X246986Y166439D01*
X246028Y166836D01*
X245000Y166971D01*
D02*
G37*
G36*
X239120Y162500D02*
X235500D01*
Y158880D01*
X236083Y158957D01*
X237093Y159375D01*
X237960Y160040D01*
X238625Y160907D01*
X239043Y161917D01*
X239120Y162500D01*
D02*
G37*
G36*
X263500Y150924D02*
Y149500D01*
X264924D01*
X264869Y149774D01*
X264431Y150431D01*
X263774Y150869D01*
X263500Y150924D01*
D02*
G37*
G36*
X264924Y148500D02*
X263500D01*
Y147076D01*
X263774Y147131D01*
X264431Y147569D01*
X264869Y148226D01*
X264924Y148500D01*
D02*
G37*
G36*
X193632Y198500D02*
X192209D01*
Y197076D01*
X192483Y197131D01*
X193139Y197569D01*
X193578Y198226D01*
X193632Y198500D01*
D02*
G37*
G36*
X191209D02*
X189785D01*
X189840Y198226D01*
X190278Y197569D01*
X190935Y197131D01*
X191209Y197076D01*
Y198500D01*
D02*
G37*
G36*
X162931Y182894D02*
Y181470D01*
X164354D01*
X164300Y181745D01*
X163861Y182401D01*
X163205Y182840D01*
X162931Y182894D01*
D02*
G37*
G36*
X161931D02*
X161656Y182840D01*
X161000Y182401D01*
X160561Y181745D01*
X160507Y181470D01*
X161931D01*
Y182894D01*
D02*
G37*
G36*
X164354Y180470D02*
X162931D01*
Y179047D01*
X163205Y179101D01*
X163861Y179540D01*
X164300Y180196D01*
X164354Y180470D01*
D02*
G37*
G36*
X161931D02*
X160507D01*
X160561Y180196D01*
X161000Y179540D01*
X161656Y179101D01*
X161931Y179047D01*
Y180470D01*
D02*
G37*
G36*
X161500Y169924D02*
Y168500D01*
X162924D01*
X162869Y168774D01*
X162431Y169431D01*
X161774Y169869D01*
X161500Y169924D01*
D02*
G37*
G36*
X160500D02*
X160226Y169869D01*
X159569Y169431D01*
X159131Y168774D01*
X159076Y168500D01*
X160500D01*
Y169924D01*
D02*
G37*
G36*
X162924Y167500D02*
X161500D01*
Y166076D01*
X161774Y166131D01*
X162431Y166569D01*
X162869Y167226D01*
X162924Y167500D01*
D02*
G37*
G36*
X160500D02*
X159076D01*
X159131Y167226D01*
X159569Y166569D01*
X160226Y166131D01*
X160500Y166076D01*
Y167500D01*
D02*
G37*
G36*
X166141Y157584D02*
X164718D01*
Y156160D01*
X164992Y156215D01*
X165648Y156653D01*
X166087Y157310D01*
X166141Y157584D01*
D02*
G37*
G36*
X143209Y205924D02*
Y204500D01*
X144632D01*
X144578Y204774D01*
X144139Y205431D01*
X143483Y205869D01*
X143209Y205924D01*
D02*
G37*
G36*
X142209D02*
X141934Y205869D01*
X141278Y205431D01*
X140840Y204774D01*
X140785Y204500D01*
X142209D01*
Y205924D01*
D02*
G37*
G36*
X144632Y203500D02*
X143209D01*
Y202076D01*
X143483Y202131D01*
X144139Y202569D01*
X144578Y203226D01*
X144632Y203500D01*
D02*
G37*
G36*
X142209D02*
X140785D01*
X140840Y203226D01*
X141278Y202569D01*
X141934Y202131D01*
X142209Y202076D01*
Y203500D01*
D02*
G37*
G36*
X53500Y209938D02*
Y208514D01*
X54924D01*
X54869Y208789D01*
X54431Y209445D01*
X53774Y209884D01*
X53500Y209938D01*
D02*
G37*
G36*
X52500D02*
X52226Y209884D01*
X51569Y209445D01*
X51131Y208789D01*
X51076Y208514D01*
X52500D01*
Y209938D01*
D02*
G37*
G36*
X54924Y207515D02*
X53500D01*
Y206091D01*
X53774Y206145D01*
X54431Y206584D01*
X54869Y207240D01*
X54924Y207515D01*
D02*
G37*
G36*
X52500D02*
X51076D01*
X51131Y207240D01*
X51569Y206584D01*
X52226Y206145D01*
X52500Y206091D01*
Y207515D01*
D02*
G37*
G36*
X53500Y194924D02*
Y193500D01*
X54924D01*
X54869Y193774D01*
X54431Y194431D01*
X53774Y194869D01*
X53500Y194924D01*
D02*
G37*
G36*
X54924Y192500D02*
X53500D01*
Y191076D01*
X53774Y191131D01*
X54431Y191569D01*
X54869Y192226D01*
X54924Y192500D01*
D02*
G37*
G36*
X104981Y194126D02*
X103557D01*
Y192702D01*
X103831Y192757D01*
X104488Y193195D01*
X104926Y193852D01*
X104981Y194126D01*
D02*
G37*
G36*
X102557D02*
X101134D01*
X101188Y193852D01*
X101627Y193195D01*
X102283Y192757D01*
X102557Y192702D01*
Y194126D01*
D02*
G37*
G36*
X95500Y177298D02*
Y175874D01*
X96924D01*
X96869Y176148D01*
X96431Y176805D01*
X95774Y177243D01*
X95500Y177298D01*
D02*
G37*
G36*
X94500D02*
X94226Y177243D01*
X93569Y176805D01*
X93131Y176148D01*
X93076Y175874D01*
X94500D01*
Y177298D01*
D02*
G37*
G36*
X96924Y174874D02*
X95500D01*
Y173450D01*
X95774Y173505D01*
X96431Y173943D01*
X96869Y174600D01*
X96924Y174874D01*
D02*
G37*
G36*
X94500D02*
X93076D01*
X93131Y174600D01*
X93569Y173943D01*
X94226Y173505D01*
X94500Y173450D01*
Y174874D01*
D02*
G37*
G36*
X108500Y170924D02*
Y169500D01*
X109924D01*
X109869Y169774D01*
X109431Y170431D01*
X108774Y170869D01*
X108500Y170924D01*
D02*
G37*
G36*
X107500D02*
X107226Y170869D01*
X106569Y170431D01*
X106131Y169774D01*
X106076Y169500D01*
X107500D01*
Y170924D01*
D02*
G37*
G36*
X109924Y168500D02*
X108500D01*
Y167076D01*
X108774Y167131D01*
X109431Y167569D01*
X109869Y168226D01*
X109924Y168500D01*
D02*
G37*
G36*
X107500D02*
X106076D01*
X106131Y168226D01*
X106569Y167569D01*
X107226Y167131D01*
X107500Y167076D01*
Y168500D01*
D02*
G37*
G36*
X194120Y172500D02*
X190500D01*
Y168880D01*
X191083Y168957D01*
X192093Y169375D01*
X192959Y170041D01*
X193625Y170907D01*
X194043Y171917D01*
X194120Y172500D01*
D02*
G37*
G36*
X115500Y151924D02*
Y150500D01*
X116924D01*
X116869Y150774D01*
X116431Y151431D01*
X115774Y151869D01*
X115500Y151924D01*
D02*
G37*
G36*
X114500D02*
X114226Y151869D01*
X113569Y151431D01*
X113131Y150774D01*
X113076Y150500D01*
X114500D01*
Y151924D01*
D02*
G37*
G36*
X116924Y149500D02*
X115500D01*
Y148076D01*
X115774Y148131D01*
X116431Y148569D01*
X116869Y149226D01*
X116924Y149500D01*
D02*
G37*
G36*
X114500D02*
X113076D01*
X113131Y149226D01*
X113569Y148569D01*
X114226Y148131D01*
X114500Y148076D01*
Y149500D01*
D02*
G37*
G36*
X144558Y145500D02*
X143135D01*
Y144076D01*
X143409Y144131D01*
X144065Y144569D01*
X144504Y145226D01*
X144558Y145500D01*
D02*
G37*
G36*
X142135D02*
X140711D01*
X140766Y145226D01*
X141204Y144569D01*
X141860Y144131D01*
X142135Y144076D01*
Y145500D01*
D02*
G37*
G36*
X167060Y143924D02*
Y142500D01*
X168484D01*
X168429Y142774D01*
X167991Y143431D01*
X167334Y143869D01*
X167060Y143924D01*
D02*
G37*
G36*
X166060D02*
X165786Y143869D01*
X165129Y143431D01*
X164691Y142774D01*
X164636Y142500D01*
X166060D01*
Y143924D01*
D02*
G37*
G36*
X168484Y141500D02*
X167060D01*
Y140076D01*
X167334Y140131D01*
X167991Y140569D01*
X168429Y141226D01*
X168484Y141500D01*
D02*
G37*
G36*
X166060D02*
X164636D01*
X164691Y141226D01*
X165129Y140569D01*
X165786Y140131D01*
X166060Y140076D01*
Y141500D01*
D02*
G37*
G36*
X263500Y121143D02*
Y119719D01*
X264924D01*
X264869Y119993D01*
X264431Y120650D01*
X263774Y121088D01*
X263500Y121143D01*
D02*
G37*
G36*
X237500Y112924D02*
Y111500D01*
X238924D01*
X238869Y111774D01*
X238431Y112431D01*
X237774Y112869D01*
X237500Y112924D01*
D02*
G37*
G36*
X236500D02*
X236226Y112869D01*
X235569Y112431D01*
X235131Y111774D01*
X235076Y111500D01*
X236500D01*
Y112924D01*
D02*
G37*
G36*
X238924Y110500D02*
X237500D01*
Y109076D01*
X237774Y109131D01*
X238431Y109569D01*
X238869Y110226D01*
X238924Y110500D01*
D02*
G37*
G36*
X236500D02*
X235076D01*
X235131Y110226D01*
X235569Y109569D01*
X236226Y109131D01*
X236500Y109076D01*
Y110500D01*
D02*
G37*
G36*
X143500Y125924D02*
Y124500D01*
X144924D01*
X144869Y124774D01*
X144431Y125431D01*
X143774Y125869D01*
X143500Y125924D01*
D02*
G37*
G36*
X142500D02*
X142226Y125869D01*
X141569Y125431D01*
X141131Y124774D01*
X141076Y124500D01*
X142500D01*
Y125924D01*
D02*
G37*
G36*
X144924Y123500D02*
X143500D01*
Y122076D01*
X143774Y122131D01*
X144431Y122569D01*
X144869Y123226D01*
X144924Y123500D01*
D02*
G37*
G36*
X142500D02*
X141076D01*
X141131Y123226D01*
X141569Y122569D01*
X142226Y122131D01*
X142500Y122076D01*
Y123500D01*
D02*
G37*
G36*
X85909Y126924D02*
Y125500D01*
X87333D01*
X87279Y125774D01*
X86840Y126431D01*
X86184Y126869D01*
X85909Y126924D01*
D02*
G37*
G36*
X87333Y124500D02*
X85909D01*
Y123076D01*
X86184Y123131D01*
X86840Y123569D01*
X87279Y124226D01*
X87333Y124500D01*
D02*
G37*
G36*
X236583Y141924D02*
Y140500D01*
X238007D01*
X237952Y140774D01*
X237514Y141431D01*
X236858Y141869D01*
X236583Y141924D01*
D02*
G37*
G36*
X235583D02*
X235309Y141869D01*
X234653Y141431D01*
X234214Y140774D01*
X234160Y140500D01*
X235583D01*
Y141924D01*
D02*
G37*
G36*
X238007Y139500D02*
X236583D01*
Y138076D01*
X236858Y138131D01*
X237514Y138569D01*
X237952Y139226D01*
X238007Y139500D01*
D02*
G37*
G36*
X235583D02*
X234160D01*
X234214Y139226D01*
X234653Y138569D01*
X235309Y138131D01*
X235583Y138076D01*
Y139500D01*
D02*
G37*
G36*
X193816Y100528D02*
X192392D01*
Y99104D01*
X192666Y99159D01*
X193322Y99597D01*
X193761Y100253D01*
X193816Y100528D01*
D02*
G37*
G36*
X191392D02*
X189968D01*
X190023Y100253D01*
X190461Y99597D01*
X191118Y99159D01*
X191392Y99104D01*
Y100528D01*
D02*
G37*
G36*
X104500Y104924D02*
Y103500D01*
X105924D01*
X105869Y103774D01*
X105431Y104431D01*
X104774Y104869D01*
X104500Y104924D01*
D02*
G37*
G36*
X103500D02*
X103226Y104869D01*
X102569Y104431D01*
X102131Y103774D01*
X102076Y103500D01*
X103500D01*
Y104924D01*
D02*
G37*
G36*
X107924Y82709D02*
X106500D01*
Y81285D01*
X106774Y81340D01*
X107431Y81778D01*
X107869Y82434D01*
X107924Y82709D01*
D02*
G37*
G36*
X105500D02*
X104076D01*
X104131Y82434D01*
X104569Y81778D01*
X105226Y81340D01*
X105500Y81285D01*
Y82709D01*
D02*
G37*
G36*
X136500Y78891D02*
Y73500D01*
X140185D01*
Y74772D01*
X140043Y75855D01*
X139625Y76864D01*
X138960Y77731D01*
X138093Y78396D01*
X137083Y78815D01*
X136500Y78891D01*
D02*
G37*
G36*
X140185Y72500D02*
X136500D01*
Y67109D01*
X137083Y67185D01*
X138093Y67604D01*
X138960Y68269D01*
X139625Y69136D01*
X140043Y70145D01*
X140185Y71228D01*
Y72500D01*
D02*
G37*
G36*
X190500Y63500D02*
X186880D01*
X186957Y62917D01*
X187375Y61907D01*
X188040Y61041D01*
X188907Y60375D01*
X189917Y59957D01*
X190500Y59880D01*
Y63500D01*
D02*
G37*
G36*
X146500Y48891D02*
Y43500D01*
X150185D01*
Y44772D01*
X150043Y45855D01*
X149625Y46864D01*
X148960Y47731D01*
X148093Y48396D01*
X147083Y48814D01*
X146500Y48891D01*
D02*
G37*
G36*
X87924Y52500D02*
X86500D01*
Y51076D01*
X86774Y51131D01*
X87431Y51569D01*
X87869Y52226D01*
X87924Y52500D01*
D02*
G37*
G36*
X85500D02*
X84076D01*
X84131Y52226D01*
X84569Y51569D01*
X85226Y51131D01*
X85500Y51076D01*
Y52500D01*
D02*
G37*
G36*
X65500Y43924D02*
Y42500D01*
X66924D01*
X66869Y42774D01*
X66431Y43431D01*
X65774Y43869D01*
X65500Y43924D01*
D02*
G37*
G36*
X64500D02*
X64226Y43869D01*
X63569Y43431D01*
X63131Y42774D01*
X63076Y42500D01*
X64500D01*
Y43924D01*
D02*
G37*
G36*
X66924Y41500D02*
X65500D01*
Y40076D01*
X65774Y40131D01*
X66431Y40569D01*
X66869Y41226D01*
X66924Y41500D01*
D02*
G37*
G36*
X64500D02*
X63076D01*
X63131Y41226D01*
X63569Y40569D01*
X64226Y40131D01*
X64500Y40076D01*
Y41500D01*
D02*
G37*
G36*
X191063Y21924D02*
Y20500D01*
X192487D01*
X192432Y20774D01*
X191994Y21431D01*
X191338Y21869D01*
X191063Y21924D01*
D02*
G37*
G36*
X190063D02*
X189789Y21869D01*
X189133Y21431D01*
X188694Y20774D01*
X188640Y20500D01*
X190063D01*
Y21924D01*
D02*
G37*
%LPD*%
D27*
X224000Y230000D02*
Y241493D01*
X244000Y261493D01*
Y263000D01*
X46457Y61465D02*
X67554D01*
X71020Y58000D01*
X39024Y48374D02*
X74916D01*
X113219Y140000D02*
X122228D01*
X108182Y145037D02*
X113219Y140000D01*
X61723Y145037D02*
X108182D01*
X36686Y120000D02*
X61723Y145037D01*
X94570Y147202D02*
X109079D01*
X81772Y160000D02*
X94570Y147202D01*
X110907Y145374D02*
X132821D01*
X109079Y147202D02*
X110907Y145374D01*
X82182Y142182D02*
X107000D01*
X80000Y140000D02*
X82182Y142182D01*
X114000Y137000D02*
X115000D01*
X112000Y135000D02*
X114000Y137000D01*
X106343Y110000D02*
X107000Y110657D01*
X80000Y110000D02*
X106343D01*
X107228Y115000D02*
X122228Y100000D01*
X61686Y115000D02*
X107228D01*
X34000Y44000D02*
X34650D01*
X39024Y48374D01*
X80000Y100000D02*
X81772D01*
X139251Y110000D02*
X154000D01*
X161686D01*
X65000Y100000D02*
X81772D01*
X19000Y235577D02*
X21657Y238235D01*
X40361D01*
X47665Y245539D01*
X48668D01*
X172363Y162522D02*
X187467Y177626D01*
X172363Y160049D02*
Y162522D01*
X157259Y144945D02*
X172363Y160049D01*
X150631Y144945D02*
X157259D01*
X135686Y130000D02*
X150631Y144945D01*
X148669Y51976D02*
X167106D01*
X183756Y68626D01*
X140101Y35923D02*
X152825D01*
X158563Y41662D01*
X169319D01*
X176677Y49020D01*
X143000Y90010D02*
X143264Y89746D01*
Y89360D02*
Y89746D01*
Y89360D02*
X153343Y79281D01*
X162037D01*
X167136Y74182D01*
Y71818D02*
Y74182D01*
X160347Y65029D02*
X167136Y71818D01*
X152864Y65029D02*
X160347D01*
X146075Y58240D02*
X152864Y65029D01*
X146075Y54571D02*
Y58240D01*
Y54571D02*
X148669Y51976D01*
X183756Y68626D02*
X192916D01*
X117602Y108084D02*
X120686Y105000D01*
X127314D01*
X130398Y101916D01*
X127688Y95374D02*
X130398Y98084D01*
X86398Y95374D02*
X127688D01*
X81772Y100000D02*
X86398Y95374D01*
X201000Y186901D02*
Y195000D01*
X191725Y177626D02*
X201000Y186901D01*
X124000Y130000D02*
X135686D01*
X188163Y206738D02*
X192638Y202264D01*
X188163Y206738D02*
Y208151D01*
X183688Y212626D02*
X188163Y208151D01*
X174626Y212626D02*
X183688D01*
X155374Y193374D02*
X174626Y212626D01*
X146312Y193374D02*
X155374D01*
X141667Y198020D02*
X146312Y193374D01*
X133333Y198020D02*
X141667D01*
X199020Y204862D02*
Y217294D01*
X183688Y232626D02*
X199020Y217294D01*
X175917Y232626D02*
X183688D01*
X156665Y213374D02*
X175917Y232626D01*
X147060Y213374D02*
X156665D01*
X195717Y202264D02*
X195980Y202000D01*
X192638Y202264D02*
X195717D01*
X128688Y193374D02*
X133333Y198020D01*
X129991Y155832D02*
X145328D01*
X129533Y155374D02*
X129991Y155832D01*
X134155Y152810D02*
X135011Y153666D01*
X131005Y152810D02*
X134155D01*
X130742Y152546D02*
X131005Y152810D01*
X205854Y177818D02*
X206000Y177673D01*
X205854Y177818D02*
Y232636D01*
X214000Y240782D01*
X127688Y115374D02*
X128662Y116348D01*
X132904D01*
X139251Y110000D01*
X143168Y79398D02*
Y79832D01*
X143000Y80000D02*
X143168Y79832D01*
X131374Y55940D02*
X141284Y46030D01*
X132687Y82819D02*
Y95385D01*
X131374Y81505D02*
X132687Y82819D01*
X131374Y55940D02*
Y81505D01*
X143168Y79398D02*
X147916D01*
X154314Y73000D01*
X109180Y90020D02*
X116988Y82212D01*
Y81599D02*
Y82212D01*
Y81599D02*
X117252Y81336D01*
X141284Y38958D02*
X141374Y38868D01*
X141284Y38958D02*
Y46030D01*
Y38778D02*
X141374Y38868D01*
X136000Y40025D02*
Y43000D01*
Y40025D02*
X140101Y35923D01*
X131000Y37313D02*
Y49686D01*
X130843Y37157D02*
X131000Y37313D01*
X111711Y17000D02*
X112000D01*
X109420Y19291D02*
X111711Y17000D01*
X141004Y33366D02*
X153330D01*
X136378Y26969D02*
Y28740D01*
X141004Y33366D01*
X125426Y19606D02*
X173233D01*
X121004Y24029D02*
X125426Y19606D01*
X203437Y16437D02*
X207946Y20946D01*
X210144Y13835D02*
X211310Y15000D01*
X222723D01*
X198731Y13835D02*
X210144D01*
X173627Y20000D02*
X174000D01*
X121004Y14272D02*
X198294D01*
X116627Y16437D02*
X203437D01*
X222723Y15000D02*
X231004Y23281D01*
X198294Y14272D02*
X198731Y13835D01*
X114336Y14146D02*
X116627Y16437D01*
X173233Y19606D02*
X173627Y20000D01*
X207946Y20946D02*
X208386D01*
X176677Y49020D02*
X195980D01*
X124000Y110000D02*
X125566D01*
X145854Y89832D02*
Y91192D01*
Y89832D02*
X150696Y84990D01*
X125566Y110000D02*
X135825Y99741D01*
X137305D01*
X150696Y84990D02*
X191892D01*
X137305Y99741D02*
X145854Y91192D01*
X131603Y108000D02*
X133000D01*
X136264Y104736D01*
X137736D01*
X152473Y90000D01*
X121060Y115374D02*
X127688D01*
X117602Y111916D02*
X121060Y115374D01*
X130977Y114060D02*
X137202Y107835D01*
X129844Y113493D02*
X130411D01*
X130977Y114060D01*
X130398Y98084D02*
Y101916D01*
X137314Y115000D02*
X163228D01*
X127688Y124626D02*
X137314Y115000D01*
X163228D02*
X178228Y130000D01*
X137202Y107835D02*
X140165D01*
X143000Y105000D01*
X157314D01*
X159479Y107165D01*
X130717Y127000D02*
X139635D01*
X100048Y155374D02*
X129533D01*
X144106Y164740D02*
X144915D01*
X145118Y164537D01*
X147558Y155000D02*
X157314D01*
X135011Y153666D02*
X146225D01*
X90797Y164626D02*
X100048Y155374D01*
X143910Y158922D02*
X144146Y158686D01*
X138474Y158922D02*
X143910D01*
X145328Y155832D02*
X147602Y158106D01*
X146225Y153666D02*
X147558Y155000D01*
X147602Y158106D02*
Y161916D01*
X132821Y160000D02*
Y161513D01*
X109228Y182043D02*
Y182086D01*
X119768Y162461D02*
Y171503D01*
X98688Y192626D02*
X109228Y182086D01*
X115000Y179333D02*
Y189000D01*
Y179333D02*
X132821Y161513D01*
X109228Y182043D02*
X119768Y171503D01*
X92060Y192626D02*
X98688D01*
X119768Y162461D02*
X122228Y160000D01*
X124000D01*
X95000Y198000D02*
X111553D01*
X116179Y193374D01*
X128688D01*
X114424Y189000D02*
X115000D01*
X113898Y189526D02*
X114424Y189000D01*
X115443Y230702D02*
X116260Y229885D01*
X118602Y216084D02*
X119114Y215572D01*
X115443Y230702D02*
Y247376D01*
X119626Y251560D01*
X118602Y216084D02*
Y239916D01*
X116260Y212837D02*
Y229885D01*
X118602Y239916D02*
X121686Y243000D01*
X214000Y219000D02*
Y230000D01*
X205789Y177789D02*
X206000Y177579D01*
Y173157D02*
Y177579D01*
X208980Y173239D02*
Y213980D01*
Y173239D02*
X219178Y163041D01*
X187467Y177626D02*
X191725D01*
X147602Y161916D02*
X156398Y170711D01*
Y186169D01*
X178228Y208000D01*
X177287Y223632D02*
Y225727D01*
X165625Y210685D02*
Y211970D01*
X177287Y223632D01*
X152940Y198000D02*
X165625Y210685D01*
X179560Y228000D02*
X180000D01*
X177287Y225727D02*
X179560Y228000D01*
X150000Y198000D02*
X152940D01*
X125000Y208000D02*
X141686D01*
X147060Y213374D01*
X118602Y209916D02*
X119114Y210428D01*
Y215572D01*
X118602Y202626D02*
Y209916D01*
X119626Y251560D02*
Y262916D01*
X116916Y265626D02*
X119626Y262916D01*
X198745Y242000D02*
X199118D01*
X214000Y240782D02*
Y252000D01*
Y230000D02*
X224000D01*
X214000Y198000D02*
X220099D01*
X229020Y189079D01*
Y179779D02*
X229095Y179704D01*
Y157592D02*
Y179704D01*
X229020Y179779D02*
Y189079D01*
X251382Y233024D02*
Y252938D01*
X246079Y268020D02*
X250279Y263819D01*
X251382Y233024D02*
X266721Y217685D01*
X250279Y254040D02*
Y263819D01*
Y254040D02*
X251382Y252938D01*
X266721Y217685D02*
X271279D01*
X181035Y265362D02*
X189377Y257020D01*
X178492Y265362D02*
X181035D01*
X212908Y261908D02*
X214000Y263000D01*
X189377Y257020D02*
X203562D01*
X191921Y246980D02*
X199806D01*
X188980Y249921D02*
Y251173D01*
X199806Y246980D02*
X210806Y257980D01*
X188980Y249921D02*
X191921Y246980D01*
X187527Y252626D02*
X188980Y251173D01*
X208450Y261908D02*
X212908D01*
X203562Y257020D02*
X208450Y261908D01*
X234000Y268020D02*
X246079D01*
X210806Y257980D02*
X223961D01*
X234000Y268020D01*
X135850Y250536D02*
Y250838D01*
X143012Y258000D01*
X150000D02*
X151772D01*
X143012D02*
X150000D01*
X115590Y265626D02*
X116916D01*
X92491D02*
X115590D01*
X78845Y251980D02*
X92491Y265626D01*
X45020Y251980D02*
X78845D01*
X40000Y257000D02*
X45020Y251980D01*
X71980Y262020D02*
X72000Y262000D01*
X61312Y164626D02*
X90797D01*
X83542Y57000D02*
X92000D01*
X74916Y48374D02*
X83542Y57000D01*
X121004Y24029D02*
Y46310D01*
X101374Y65940D02*
X121004Y46310D01*
X101374Y65940D02*
Y85349D01*
X99328Y87395D02*
X101374Y85349D01*
X85709Y87395D02*
X99328D01*
X77847Y79533D02*
X85709Y87395D01*
X41190Y79533D02*
X77847D01*
X107998Y87165D02*
X111374Y83789D01*
Y69312D02*
Y83789D01*
Y69312D02*
X131000Y49686D01*
X96695Y90020D02*
X109180D01*
X96530Y89854D02*
X96695Y90020D01*
X80146Y89854D02*
X96530D01*
X160709Y82136D02*
X171864D01*
X180000Y74000D01*
X191892Y84990D02*
X192000Y84882D01*
X98146Y84178D02*
Y84541D01*
X86089Y80076D02*
X90540Y84528D01*
Y84541D01*
X84763Y80076D02*
X86089D01*
X81000Y76314D02*
X84763Y80076D01*
X87589Y175374D02*
X103054Y159909D01*
X61312Y175374D02*
X87589D01*
X91374Y77406D02*
X98146Y84178D01*
X91374Y67835D02*
Y77406D01*
X81000Y69686D02*
Y76314D01*
X58000Y35346D02*
X66378Y26969D01*
X58000Y35346D02*
Y45000D01*
X80077Y19291D02*
X109420D01*
X90944Y17126D02*
X105440D01*
X23000Y17717D02*
X78502D01*
X105440Y17126D02*
X108420Y14146D01*
X11594Y14862D02*
X88680D01*
X90944Y17126D01*
X78502Y17717D02*
X80077Y19291D01*
X81752Y30656D02*
X86567Y35471D01*
X81752Y24029D02*
Y30656D01*
X11004Y20571D02*
X78294D01*
X86567Y35471D02*
X90243D01*
X78294Y20571D02*
X81752Y24029D01*
X90243Y35471D02*
X96000Y41228D01*
Y43000D01*
X106378Y7874D02*
Y9646D01*
X92126Y14272D02*
X101752D01*
X6378Y9646D02*
X11594Y14862D01*
X108420Y14146D02*
X114336D01*
X101752Y14272D02*
X106378Y9646D01*
X124644Y175814D02*
Y176955D01*
X124689Y177000D01*
X124644Y175814D02*
X132414Y168044D01*
X125000Y182227D02*
Y188000D01*
X121835Y179061D02*
X125000Y182227D01*
X121835Y175561D02*
Y179061D01*
Y175561D02*
X138474Y158922D01*
X140803Y168044D02*
X144106Y164740D01*
X132414Y168044D02*
X140803D01*
X87500Y187186D02*
X91686Y183000D01*
X100000D01*
X87500Y187186D02*
Y190814D01*
X88602Y196084D02*
X92060Y192626D01*
X77060Y194626D02*
X83688D01*
X65000Y200000D02*
X71988D01*
X73602Y198084D02*
Y198386D01*
X83688Y194626D02*
X87500Y190814D01*
X71988Y200000D02*
X73602Y198386D01*
Y198084D02*
X77060Y194626D01*
X88602Y196084D02*
Y199916D01*
X80000Y90000D02*
X80146Y89854D01*
X106000Y43000D02*
Y53210D01*
X91374Y67835D02*
X106000Y53210D01*
X81000Y69686D02*
X86939Y63747D01*
X89289D01*
X94854Y58182D01*
Y53626D02*
Y58182D01*
X35000Y210000D02*
X36772D01*
X49513Y197259D01*
Y187173D02*
Y197259D01*
Y187173D02*
X61312Y175374D01*
X13602Y194626D02*
X18228Y190000D01*
X13602Y194626D02*
Y211916D01*
X16312Y214626D01*
X18228Y190000D02*
X20000D01*
X40533Y215374D02*
X83688D01*
X39785Y214626D02*
X40533Y215374D01*
X16312Y214626D02*
X39785D01*
X93228Y238000D02*
X95000D01*
X87987Y232759D02*
X93228Y238000D01*
X83688Y205374D02*
X92287Y213973D01*
Y215727D01*
X94560Y218000D01*
X73602Y208084D02*
X76312Y205374D01*
X94560Y218000D02*
X95000D01*
X83688Y215374D02*
X87987Y219673D01*
X76312Y205374D02*
X83688D01*
X71988Y210000D02*
X73602Y208386D01*
Y208084D02*
Y208386D01*
X87987Y219673D02*
Y232759D01*
X98688Y222626D02*
X101398Y219916D01*
X95000Y223433D02*
X95807Y222626D01*
Y213374D02*
X98688D01*
X95000Y212567D02*
X95807Y213374D01*
X98688D02*
X101398Y216084D01*
X95000Y208000D02*
Y212567D01*
X101398Y216084D02*
Y219916D01*
X95807Y222626D02*
X98688D01*
X95000Y223433D02*
Y228000D01*
Y203433D02*
Y208000D01*
X88602Y199916D02*
X91312Y202626D01*
X94193D01*
X95000Y203433D01*
X53583Y150000D02*
X65000D01*
X58000Y154000D02*
Y161314D01*
X61312Y164626D01*
X178228Y208000D02*
X180000D01*
X167487Y165173D02*
Y187259D01*
X178228Y198000D01*
X157314Y155000D02*
X167487Y165173D01*
X178228Y198000D02*
X180000D01*
X116378Y9646D02*
X121004Y14272D01*
X153330Y33366D02*
X158508Y38544D01*
X152473Y90000D02*
X171686D01*
X86000Y41228D02*
Y44772D01*
X94854Y53626D01*
X65000Y210000D02*
X71988D01*
X6378Y25197D02*
X11004Y20571D01*
X116378Y7874D02*
Y9646D01*
X121686Y243000D02*
X128314D01*
X142635Y130000D02*
X154000D01*
X139635Y127000D02*
X142635Y130000D01*
X121060Y124626D02*
X127688D01*
X61686Y135000D02*
X112000D01*
X35000Y110000D02*
X36686D01*
X61686Y135000D01*
X20000Y120000D02*
X35000D01*
X132821Y145374D02*
X137447Y150000D01*
X35000Y120000D02*
X36686D01*
X35000Y100000D02*
X36772D01*
X41772Y105000D01*
X92270D01*
X97270Y100000D02*
X116913D01*
X92270Y105000D02*
X97270Y100000D01*
X166044Y109381D02*
X166417D01*
X163829Y107165D02*
X166044Y109381D01*
X159479Y107165D02*
X163829D01*
X155772Y100000D02*
X160772Y105000D01*
X193084D01*
X154314Y73000D02*
X164281D01*
X65000Y90000D02*
X80000D01*
X195980Y49020D02*
X201000Y44000D01*
X137447Y150000D02*
X154000D01*
X80000Y160000D02*
X81772D01*
X117602Y108084D02*
Y111916D01*
X63228Y130000D02*
X65000D01*
X58602Y125374D02*
X63228Y130000D01*
X58602Y118084D02*
Y125374D01*
Y118084D02*
X61686Y115000D01*
X122228Y100000D02*
X124000D01*
X80000Y120000D02*
X124000D01*
X122228Y140000D02*
X124000D01*
X65000Y150000D02*
X80000D01*
X65000Y130000D02*
X80000D01*
X65000Y120000D02*
X80000D01*
X65000Y110000D02*
X80000D01*
X65000Y170000D02*
X80000D01*
X65000Y180000D02*
X80000D01*
X65000Y190000D02*
X80000D01*
X20000Y100000D02*
X35000D01*
X20000Y110000D02*
X35000D01*
X20000Y130000D02*
X35000D01*
X20000Y140000D02*
X35000D01*
X20000Y150000D02*
X35000D01*
X20000Y160000D02*
X35000D01*
X20000Y170000D02*
X35000D01*
X20000Y180000D02*
X35000D01*
X20000Y190000D02*
X35000D01*
X20000Y200000D02*
X35000D01*
X20000Y210000D02*
X35000D01*
X192916Y68626D02*
X202563Y58979D01*
Y54437D02*
Y58979D01*
Y54437D02*
X213000Y44000D01*
X195835Y72066D02*
X202901Y65000D01*
X213000D01*
X165772Y150000D02*
X180000D01*
X155772Y140000D02*
X165772Y150000D01*
X154000Y140000D02*
X155772D01*
X128314Y243000D02*
X135850Y250536D01*
X118602Y202626D02*
X123228Y198000D01*
X125000D01*
Y218000D02*
X126772D01*
X131980Y223209D01*
Y235079D02*
X134921Y238020D01*
X131980Y223209D02*
Y235079D01*
X134921Y238020D02*
X139079D01*
X131839Y238000D02*
X134024Y240185D01*
X139079Y238020D02*
X144099Y233000D01*
X134024Y240185D02*
X139976D01*
X125000Y238000D02*
X131839D01*
X142161D02*
X150000D01*
X139976Y240185D02*
X142161Y238000D01*
X144099Y233000D02*
X153314D01*
X156398Y236084D02*
Y243374D01*
X151772Y248000D02*
X156398Y243374D01*
X153314Y233000D02*
X156398Y236084D01*
X150000Y248000D02*
X151772D01*
X198165Y132165D02*
X201000Y135000D01*
X187294Y132165D02*
X198165D01*
X184833Y134626D02*
X187294Y132165D01*
X176312Y134626D02*
X184833D01*
X161686Y120000D02*
X176312Y134626D01*
X154000Y120000D02*
X161686D01*
X219178Y160811D02*
X222701Y157288D01*
X219178Y160811D02*
Y163041D01*
X159232Y35232D02*
X183896D01*
X185573Y33555D01*
X221563D01*
X226378Y28740D01*
Y26969D02*
Y28740D01*
X205037Y135000D02*
X213314D01*
X202182Y137854D02*
X205037Y135000D01*
X191311Y137854D02*
X202182D01*
X188476Y135020D02*
X191311Y137854D01*
X194945Y77520D02*
X195835Y76630D01*
Y72066D02*
Y76630D01*
X197799Y80902D02*
X198000Y81103D01*
X194945Y77520D02*
Y82084D01*
X196165Y83305D02*
Y84479D01*
X194945Y82084D02*
X196165Y83305D01*
X198000Y81103D02*
X209417D01*
X216398Y98084D02*
Y111916D01*
X217987Y94759D02*
X223228Y100000D01*
X212940Y94626D02*
X216398Y98084D01*
X217987Y89674D02*
Y94759D01*
X206312Y94626D02*
X212940D01*
X209417Y81103D02*
X217987Y89674D01*
X196165Y84479D02*
X206312Y94626D01*
X223228Y100000D02*
X225000D01*
X201686Y118859D02*
X205171Y115374D01*
X212940D02*
X216398Y111916D01*
X205171Y115374D02*
X212940D01*
X229095Y157592D02*
X240843Y145843D01*
X241000Y114000D02*
X245000Y110000D01*
X255000D01*
X262798Y135202D02*
X268000Y130000D01*
X262798Y135202D02*
Y140516D01*
X241311Y150182D02*
X246276Y145217D01*
X258097D01*
X262798Y140516D01*
X221927Y114759D02*
X231445D01*
X252320Y137727D02*
X254594Y140000D01*
X255000D01*
X252320Y135634D02*
Y137727D01*
X231445Y114759D02*
X252320Y135634D01*
X221686Y105000D02*
X258314D01*
X255000Y120000D02*
X256772D01*
X261398Y115374D01*
Y108084D02*
Y115374D01*
X258314Y105000D02*
X261398Y108084D01*
X208980Y213980D02*
X214000Y219000D01*
X193084Y105000D02*
X201060Y112976D01*
X6378Y25197D02*
Y26969D01*
X151772Y258000D02*
X157146Y252626D01*
X187527D01*
X273626Y128527D02*
Y215338D01*
X271279Y217685D02*
X273626Y215338D01*
X268000Y122901D02*
X273626Y128527D01*
X268000Y115000D02*
Y122901D01*
X178228Y130000D02*
X180000D01*
X117571Y128115D02*
X121060Y124626D01*
X117571Y128115D02*
Y135342D01*
X122228Y140000D01*
X175062Y145000D02*
X203228D01*
X173761Y142879D02*
Y143252D01*
X175062Y144553D01*
Y145000D01*
X76378Y26969D02*
Y33378D01*
X81768Y38768D01*
X83539D01*
X86000Y41228D01*
X96378Y26969D02*
Y28740D01*
X102622Y34984D01*
X109756D01*
X116000Y41228D01*
Y43000D01*
X158508Y38544D02*
X159902D01*
X160165Y38808D01*
X6378Y7874D02*
Y9646D01*
X229000Y60724D02*
X253276Y85000D01*
X229000Y60684D02*
Y60724D01*
X231000Y41000D02*
X231614D01*
X253276Y85000D02*
X268000D01*
X231000Y41000D02*
X231004Y40996D01*
Y23281D02*
Y40996D01*
X154000Y100000D02*
X155772D01*
X167410Y110000D02*
X180000D01*
X166790Y109381D02*
X167410Y110000D01*
X166417Y109381D02*
X166790D01*
X218563Y108123D02*
X221686Y105000D01*
X218563Y108123D02*
Y113209D01*
X177060Y95374D02*
X193602D01*
X201686Y118859D02*
Y120000D01*
X193602Y95374D02*
X208228Y110000D01*
X210000D01*
X211772Y120000D02*
X218563Y113209D01*
X171686Y90000D02*
X177060Y95374D01*
X176686Y125000D02*
X203228D01*
X161686Y110000D02*
X176686Y125000D01*
X208228Y130000D02*
X210000D01*
X201686Y120000D02*
X206686Y125000D01*
X213314D01*
X203228D02*
X208228Y130000D01*
X206000Y173157D02*
X217013Y162144D01*
X154000Y130000D02*
X168228D01*
X178228Y140000D01*
X180000D01*
X203228Y145000D02*
X208228Y140000D01*
X210000D01*
X180000Y110000D02*
X180000Y110000D01*
X213314Y135000D02*
X217687Y130627D01*
Y128999D02*
Y130627D01*
X221686Y125000D02*
X228314D01*
X217687Y128999D02*
X221686Y125000D01*
X213314D02*
X217313Y121001D01*
X231398Y128084D02*
Y141916D01*
X228314Y125000D02*
X231398Y128084D01*
X217313Y119373D02*
Y121001D01*
Y119373D02*
X221927Y114759D01*
X210000Y120000D02*
X211772D01*
X225000Y145433D02*
Y150000D01*
Y145433D02*
X225807Y144626D01*
X228688D01*
X231398Y141916D01*
X214000Y176000D02*
X225000Y165000D01*
Y160000D02*
Y165000D01*
X150000Y228000D02*
X151772D01*
X166398Y242626D01*
X198119D01*
X198745Y242000D01*
X150000Y218000D02*
X158228D01*
X178228Y238000D01*
X180000D01*
X255000Y110000D02*
X256772D01*
X217013Y147828D02*
Y162144D01*
Y147828D02*
X219178Y145663D01*
X223228Y140000D02*
X225000D01*
X219178Y144050D02*
X223228Y140000D01*
X219178Y144050D02*
Y145663D01*
X211772Y150000D02*
X217013Y144759D01*
X210000Y150000D02*
X211772D01*
X217013Y136216D02*
Y144759D01*
X214000Y252000D02*
X214000Y252000D01*
X214000Y208000D02*
X214000Y208000D01*
X214000Y198000D02*
Y208000D01*
Y176000D02*
Y187000D01*
X214000Y252000D02*
X224000D01*
X214000Y208000D02*
X224000D01*
X214000Y187000D02*
X224000D01*
X180000Y120000D02*
X201686D01*
X223228Y130000D02*
X225000D01*
X217013Y136216D02*
X223228Y130000D01*
X210000Y100000D02*
X212500D01*
X222500Y110000D02*
X225000D01*
X255000Y100000D02*
X256772D01*
X266908Y110136D01*
Y113908D01*
X268000Y115000D01*
D28*
X41339Y56697D02*
Y70088D01*
X148776Y47547D02*
X168941D01*
X174842Y53449D01*
X168582Y67000D02*
X175866D01*
X159153Y57571D02*
X168582Y67000D01*
X151669Y57571D02*
X159153D01*
X150504Y56406D02*
X151669Y57571D01*
X136000Y57878D02*
X145925Y47953D01*
X136000Y57878D02*
Y73000D01*
X146129Y44900D02*
X148776Y47547D01*
X174842Y53449D02*
X180449D01*
X137000Y180106D02*
Y193000D01*
Y180106D02*
X144000Y173107D01*
X106075Y67925D02*
X122000Y52000D01*
X106000Y73000D02*
X106075Y72925D01*
Y67925D02*
Y72925D01*
X180000Y258000D02*
X180075Y258075D01*
X178122Y258000D02*
X180000D01*
X196004Y269890D02*
X202893Y263000D01*
X172814Y266362D02*
X176341Y269890D01*
X196004D01*
X192894Y263000D02*
X193000D01*
X164053Y257307D02*
X177429D01*
X153833Y267528D02*
X164053Y257307D01*
X141847Y267528D02*
X153833D01*
X177429Y257307D02*
X178122Y258000D01*
X137320Y263000D02*
X141847Y267528D01*
X137000Y263000D02*
X137320D01*
X78668Y245539D02*
X88018Y254890D01*
X101470D01*
X108004Y254110D02*
X114893Y261000D01*
X115000D01*
X78668Y234925D02*
Y245539D01*
X102250Y254110D02*
X108004D01*
X101470Y254890D02*
X102250Y254110D01*
X41339Y56697D02*
X45154Y52882D01*
X72775D01*
X72894Y53000D01*
X73000D01*
X13640Y227000D02*
X35668D01*
X43668Y235000D01*
X43774D01*
X35000Y76427D02*
Y90000D01*
Y76427D02*
X41339Y70088D01*
X9173Y222533D02*
X13640Y227000D01*
X18100Y90129D02*
X19871D01*
X9173Y99055D02*
X18100Y90129D01*
X9173Y99055D02*
Y222533D01*
X19871Y90129D02*
X20000Y90000D01*
X68561Y234925D02*
X68668D01*
X61637Y228000D02*
X68561Y234925D01*
X50774Y228000D02*
X61637D01*
X43774Y235000D02*
X50774Y228000D01*
X65000Y220000D02*
X78925D01*
X78668Y234925D02*
X78743Y234849D01*
Y220182D02*
Y234849D01*
Y220182D02*
X78925Y220000D01*
X80000D01*
X146129Y43129D02*
Y44900D01*
X146000Y43000D02*
X146129Y43129D01*
X180449Y53449D02*
X191000Y64000D01*
X124000Y80264D02*
Y90000D01*
X125925Y73075D02*
X126000Y73000D01*
X125925Y73075D02*
Y78339D01*
X124000Y80264D02*
X125925Y78339D01*
X20000Y90000D02*
X35000D01*
X152153Y160182D02*
X152335Y160000D01*
X144000Y173000D02*
Y173107D01*
X152335Y160000D02*
X154000D01*
X144000Y172894D02*
Y173000D01*
X73000Y63000D02*
X73106D01*
X85818Y71153D02*
X86000Y71335D01*
Y73000D01*
X202893Y263000D02*
X203000D01*
X200000Y172894D02*
Y173000D01*
Y172894D02*
X208153Y164740D01*
Y160182D02*
X208335Y160000D01*
X208153Y160182D02*
Y164740D01*
X235000Y163000D02*
X235106D01*
X241996Y156110D01*
X247854D01*
X269000Y177256D02*
Y190126D01*
X247854Y156110D02*
X269000Y177256D01*
X244894Y163000D02*
X245000D01*
X243964Y176000D02*
X244000D01*
Y240782D02*
Y252000D01*
Y219000D02*
Y240782D01*
Y198000D02*
Y219000D01*
Y187000D02*
Y198000D01*
Y176000D02*
Y187000D01*
X245000Y162893D02*
Y163000D01*
X253153Y150182D02*
X253335Y150000D01*
X255000D01*
D29*
X101496Y202582D02*
X104914Y206000D01*
X113898D01*
X142709Y183835D02*
Y187000D01*
Y183835D02*
X153543Y173000D01*
X202223Y223223D02*
X203000Y224000D01*
X202223Y202461D02*
Y223223D01*
X188882Y189120D02*
X202223Y202461D01*
X173826Y175359D02*
X179281Y180814D01*
X181267D01*
X188882Y188429D01*
Y189120D01*
X130588Y256663D02*
X130673Y256578D01*
X130588Y256663D02*
Y258496D01*
X125363Y252724D02*
X128728D01*
X129591Y251862D02*
X132037D01*
X117854Y267890D02*
X123638Y262106D01*
Y254450D02*
Y262106D01*
X128728Y252724D02*
X129591Y251862D01*
X123638Y254450D02*
X125363Y252724D01*
X74000Y271000D02*
X118084D01*
X119063Y273362D02*
X129028Y263397D01*
X126665Y256410D02*
Y262419D01*
X129028Y260057D02*
Y263397D01*
Y260057D02*
X130588Y258496D01*
X118084Y271000D02*
X126665Y262419D01*
X60457Y273362D02*
X119063D01*
X50000Y262906D02*
X60457Y273362D01*
X77000Y263124D02*
X81765Y267890D01*
X60000Y257000D02*
X74000Y271000D01*
X77000Y257000D02*
Y263124D01*
X81765Y267890D02*
X117854D01*
X241118Y170882D02*
X247854D01*
X220000Y223000D02*
X231283Y211717D01*
Y180717D02*
X241118Y170882D01*
X231283Y180717D02*
Y211717D01*
X131882Y260543D02*
Y265120D01*
Y260543D02*
X133608Y258817D01*
Y256903D02*
Y258817D01*
Y256903D02*
X133767Y256745D01*
Y253591D02*
Y256745D01*
X132037Y251862D02*
X133767Y253591D01*
X165928Y261835D02*
X174964D01*
X178492Y265362D01*
X155708Y272055D02*
X165928Y261835D01*
X131882Y265120D02*
X138817Y272055D01*
X155708D01*
X50000Y257000D02*
Y262906D01*
X105680Y181000D02*
X106000D01*
X104728Y180047D02*
X105680Y181000D01*
X88406Y180047D02*
X104728D01*
X83729Y184724D02*
X88406Y180047D01*
X61823Y184724D02*
X83729D01*
X58153Y188394D02*
X61823Y184724D01*
X58153Y188394D02*
Y190157D01*
X57927Y190384D02*
X58153Y190157D01*
X180000Y74000D02*
X191000D01*
D30*
X220000Y59500D02*
X236000Y43500D01*
X227150Y10417D02*
X236000Y19268D01*
Y43500D01*
X226378Y7874D02*
X227150Y8646D01*
Y10417D01*
X218000Y48574D02*
Y49000D01*
Y48574D02*
X220000Y46574D01*
Y39306D02*
Y46574D01*
X217694Y37000D02*
X220000Y39306D01*
X187000Y37000D02*
X217694D01*
X180000Y44000D02*
X187000Y37000D01*
X220000Y59500D02*
Y67574D01*
Y51426D02*
Y59500D01*
X218000Y49000D02*
Y49426D01*
X220000Y51426D01*
X218000Y69574D02*
Y70000D01*
Y69574D02*
X220000Y67574D01*
D31*
X95000Y248000D02*
D03*
X180000Y160000D02*
D03*
X124000Y160000D02*
D03*
X20000Y220000D02*
D03*
X35000D02*
D03*
X225000Y150000D02*
D03*
X150000Y258000D02*
D03*
D32*
X95000Y238000D02*
D03*
Y228000D02*
D03*
Y218000D02*
D03*
Y208000D02*
D03*
Y198000D02*
D03*
Y188000D02*
D03*
X125000Y208000D02*
D03*
Y198000D02*
D03*
Y188000D02*
D03*
Y248000D02*
D03*
Y238000D02*
D03*
Y228000D02*
D03*
Y218000D02*
D03*
X210000Y160000D02*
D03*
Y150000D02*
D03*
X180000Y150000D02*
D03*
Y140000D02*
D03*
Y130000D02*
D03*
Y120000D02*
D03*
Y110000D02*
D03*
Y100000D02*
D03*
X210000Y140000D02*
D03*
Y130000D02*
D03*
Y120000D02*
D03*
Y110000D02*
D03*
Y100000D02*
D03*
Y90000D02*
D03*
X180000Y90000D02*
D03*
X124000Y100000D02*
D03*
Y110000D02*
D03*
Y120000D02*
D03*
Y130000D02*
D03*
Y140000D02*
D03*
Y150000D02*
D03*
Y90000D02*
D03*
X154000Y110000D02*
D03*
Y120000D02*
D03*
Y130000D02*
D03*
Y140000D02*
D03*
Y90000D02*
D03*
Y100000D02*
D03*
Y150000D02*
D03*
Y160000D02*
D03*
X20000Y210000D02*
D03*
Y200000D02*
D03*
Y190000D02*
D03*
Y180000D02*
D03*
Y170000D02*
D03*
Y160000D02*
D03*
Y150000D02*
D03*
Y140000D02*
D03*
Y130000D02*
D03*
Y120000D02*
D03*
Y110000D02*
D03*
Y100000D02*
D03*
Y90000D02*
D03*
X80000Y220000D02*
D03*
Y210000D02*
D03*
Y200000D02*
D03*
Y190000D02*
D03*
Y180000D02*
D03*
Y170000D02*
D03*
Y160000D02*
D03*
Y150000D02*
D03*
Y140000D02*
D03*
Y130000D02*
D03*
Y120000D02*
D03*
Y110000D02*
D03*
Y100000D02*
D03*
Y90000D02*
D03*
X65000Y220000D02*
D03*
Y210000D02*
D03*
Y200000D02*
D03*
Y190000D02*
D03*
Y180000D02*
D03*
Y170000D02*
D03*
Y160000D02*
D03*
Y150000D02*
D03*
X35000D02*
D03*
Y140000D02*
D03*
Y130000D02*
D03*
Y120000D02*
D03*
Y110000D02*
D03*
Y100000D02*
D03*
Y90000D02*
D03*
Y160000D02*
D03*
Y170000D02*
D03*
Y180000D02*
D03*
Y190000D02*
D03*
Y200000D02*
D03*
Y210000D02*
D03*
X65000Y90000D02*
D03*
Y100000D02*
D03*
Y140000D02*
D03*
Y130000D02*
D03*
Y120000D02*
D03*
Y110000D02*
D03*
X225000Y140000D02*
D03*
Y130000D02*
D03*
Y120000D02*
D03*
Y110000D02*
D03*
Y100000D02*
D03*
Y90000D02*
D03*
X255000Y150000D02*
D03*
Y140000D02*
D03*
Y130000D02*
D03*
Y120000D02*
D03*
Y110000D02*
D03*
Y100000D02*
D03*
Y90000D02*
D03*
X150000Y188000D02*
D03*
X180000D02*
D03*
Y198000D02*
D03*
Y208000D02*
D03*
Y218000D02*
D03*
Y228000D02*
D03*
Y238000D02*
D03*
X150000Y198000D02*
D03*
Y208000D02*
D03*
Y218000D02*
D03*
Y228000D02*
D03*
Y238000D02*
D03*
Y248000D02*
D03*
X180000D02*
D03*
Y258000D02*
D03*
D33*
X146000Y73000D02*
D03*
X136000D02*
D03*
X126000D02*
D03*
X116000D02*
D03*
X106000D02*
D03*
X96000D02*
D03*
X86000D02*
D03*
X146000Y43000D02*
D03*
X136000D02*
D03*
X126000D02*
D03*
X116000D02*
D03*
X106000D02*
D03*
X96000D02*
D03*
D34*
X86000D02*
D03*
D35*
X73000Y63000D02*
D03*
Y53000D02*
D03*
X191000Y64000D02*
D03*
Y74000D02*
D03*
X190000Y173000D02*
D03*
X200000D02*
D03*
X105000Y261000D02*
D03*
X115000D02*
D03*
X235000Y163000D02*
D03*
X245000D02*
D03*
X134000Y173000D02*
D03*
X144000D02*
D03*
X203000Y263000D02*
D03*
X193000D02*
D03*
X68668Y234925D02*
D03*
X78668D02*
D03*
X43668Y235000D02*
D03*
X53668D02*
D03*
D36*
X224000Y252000D02*
D03*
X214000Y198000D02*
D03*
X244000D02*
D03*
X180000Y74000D02*
D03*
Y44000D02*
D03*
X60000Y257000D02*
D03*
X78668Y245539D02*
D03*
X48668D02*
D03*
X201000Y44000D02*
D03*
Y74000D02*
D03*
X137000Y193000D02*
D03*
Y223000D02*
D03*
X224000Y187000D02*
D03*
X224000Y230000D02*
D03*
Y208000D02*
D03*
X244000Y240782D02*
D03*
X214000D02*
D03*
X244000Y176000D02*
D03*
X214000D02*
D03*
X244000Y219000D02*
D03*
X214000D02*
D03*
X40000Y257000D02*
D03*
X214000Y263000D02*
D03*
X244000D02*
D03*
X268000Y115000D02*
D03*
Y85000D02*
D03*
Y130000D02*
D03*
Y160000D02*
D03*
X194000Y252000D02*
D03*
X194000Y187000D02*
D03*
Y230000D02*
D03*
X194000Y208000D02*
D03*
X137000Y263000D02*
D03*
Y233000D02*
D03*
D37*
X244000Y252000D02*
D03*
X50000Y257000D02*
D03*
X244000Y187000D02*
D03*
X244000Y230000D02*
D03*
Y208000D02*
D03*
X30000Y257000D02*
D03*
X214000Y252000D02*
D03*
X214000Y187000D02*
D03*
Y230000D02*
D03*
X214000Y208000D02*
D03*
D38*
X82000Y262000D02*
D03*
X77000Y257000D02*
D03*
X72000Y262000D02*
D03*
X213000Y54000D02*
D03*
X218000Y49000D02*
D03*
X213000Y44000D02*
D03*
Y75000D02*
D03*
X218000Y70000D02*
D03*
X213000Y65000D02*
D03*
D39*
X269000Y221622D02*
D03*
Y213748D02*
D03*
Y205874D02*
D03*
Y198000D02*
D03*
D40*
Y190126D02*
D03*
D41*
X9000Y235577D02*
D03*
D42*
X19000D02*
D03*
D43*
X6378Y7874D02*
D03*
X226378D02*
D03*
X216378D02*
D03*
X196378D02*
D03*
X186378D02*
D03*
X176378D02*
D03*
X166378D02*
D03*
X156378D02*
D03*
X146378D02*
D03*
X136378D02*
D03*
X126378D02*
D03*
X116378D02*
D03*
X106378D02*
D03*
X96378D02*
D03*
X86378D02*
D03*
X76378D02*
D03*
X66378D02*
D03*
X56378D02*
D03*
X46378D02*
D03*
X36378D02*
D03*
X26378D02*
D03*
X16378D02*
D03*
X226378Y26969D02*
D03*
X156378D02*
D03*
X146378D02*
D03*
X136378D02*
D03*
X126378D02*
D03*
X116378D02*
D03*
X106378D02*
D03*
X96378D02*
D03*
X86378D02*
D03*
X76378D02*
D03*
X66378D02*
D03*
X56378D02*
D03*
X46378D02*
D03*
X36378D02*
D03*
X26378D02*
D03*
X16378D02*
D03*
X166378D02*
D03*
X176378D02*
D03*
X186378D02*
D03*
X196378D02*
D03*
X216378D02*
D03*
X6378D02*
D03*
D44*
X220099Y201847D02*
D03*
X229000Y257000D02*
D03*
X236000Y246000D02*
D03*
X271279Y233024D02*
D03*
X190563Y20000D02*
D03*
X103057Y194626D02*
D03*
X174257Y224869D02*
D03*
X142709Y204000D02*
D03*
X156398Y223000D02*
D03*
X160000Y248000D02*
D03*
X110000Y245000D02*
D03*
X65000Y42000D02*
D03*
X162431Y180970D02*
D03*
X166560Y142000D02*
D03*
X143000Y132808D02*
D03*
X142635Y146000D02*
D03*
X143000Y124000D02*
D03*
X85409Y125000D02*
D03*
X104000Y103000D02*
D03*
X115000Y150000D02*
D03*
X106000Y83209D02*
D03*
X108000Y169000D02*
D03*
X254603Y226000D02*
D03*
X164218Y158084D02*
D03*
X161000Y168000D02*
D03*
X263000Y149000D02*
D03*
Y119219D02*
D03*
X237000Y111000D02*
D03*
X236083Y140000D02*
D03*
X191892Y101028D02*
D03*
X191709Y199000D02*
D03*
X95000Y175374D02*
D03*
X46000Y195000D02*
D03*
X41000Y144727D02*
D03*
X32201Y229000D02*
D03*
X53000Y208014D02*
D03*
Y193000D02*
D03*
X86000Y53000D02*
D03*
X43775Y68588D02*
D03*
X37569Y82957D02*
D03*
X75000Y83980D02*
D03*
X68165Y83205D02*
D03*
X65000Y75000D02*
D03*
X271000Y50816D02*
D03*
X244000Y85209D02*
D03*
D45*
X46457Y61465D02*
D03*
X71020Y58000D02*
D03*
X107000Y142182D02*
D03*
X115000Y137000D02*
D03*
X107000Y110657D02*
D03*
X34000Y44000D02*
D03*
X143000Y80000D02*
D03*
X117252Y81336D02*
D03*
X141284Y38778D02*
D03*
X130843Y37157D02*
D03*
X112000Y17000D02*
D03*
X143000Y90010D02*
D03*
X132687Y95385D02*
D03*
X131603Y108000D02*
D03*
X129844Y113493D02*
D03*
X130717Y127000D02*
D03*
X130742Y152546D02*
D03*
X144146Y158686D02*
D03*
X145118Y164537D02*
D03*
X132821Y160000D02*
D03*
X115000Y189000D02*
D03*
X101496Y202582D02*
D03*
X113898Y206000D02*
D03*
X142709Y187000D02*
D03*
X219762Y223000D02*
D03*
X203000Y224000D02*
D03*
X199020Y204862D02*
D03*
X205789Y177789D02*
D03*
X195980Y202000D02*
D03*
X201000Y195000D02*
D03*
X173826Y175359D02*
D03*
X153543Y173000D02*
D03*
X116260Y212837D02*
D03*
X130673Y256578D02*
D03*
X126665Y256410D02*
D03*
X199118Y242000D02*
D03*
X247854Y170882D02*
D03*
X90540Y84541D02*
D03*
X98146D02*
D03*
X103054Y159909D02*
D03*
X106000Y181000D02*
D03*
X107998Y87165D02*
D03*
X58000Y45000D02*
D03*
X92126Y14272D02*
D03*
X124689Y177000D02*
D03*
X100000Y183000D02*
D03*
X57927Y190384D02*
D03*
X41190Y79533D02*
D03*
X92000Y57000D02*
D03*
X53583Y150000D02*
D03*
X58000Y154000D02*
D03*
X174000Y20000D02*
D03*
X23000Y17717D02*
D03*
X116913Y100000D02*
D03*
X164281Y73000D02*
D03*
X160709Y82136D02*
D03*
X192000Y84882D02*
D03*
X197799Y80902D02*
D03*
X241000Y146000D02*
D03*
Y114000D02*
D03*
X241311Y150182D02*
D03*
X225000Y160000D02*
D03*
X222701Y157288D02*
D03*
X201000Y135000D02*
D03*
X201060Y112976D02*
D03*
X173761Y142879D02*
D03*
X208386Y20946D02*
D03*
X160165Y38808D02*
D03*
X159232Y35232D02*
D03*
X229000Y60684D02*
D03*
X231614Y41000D02*
D03*
X166417Y109381D02*
D03*
X188476Y135020D02*
D03*
D46*
X150504Y56406D02*
D03*
X175866Y67000D02*
D03*
X122000Y52000D02*
D03*
X172814Y266362D02*
D03*
M02*
