M48
;Layer_Color=9474304
;FILE_FORMAT=2:5
INCH,TZ
;TYPE=PLATED
T1F00S00C0.01181
T2F00S00C0.01575
T3F00S00C0.03150
T4F00S00C0.03346
T5F00S00C0.03543
T6F00S00C0.03937
%
T01
X190563Y20000
X86000Y53000
X65000Y42000
Y75000
X68165Y83205
X75000Y83980
X106000Y83209
X104000Y103000
X85409Y125000
X115000Y150000
X108000Y169000
X95000Y175374
X162431Y180970
X161000Y168000
X164218Y158084
X166560Y142000
X142635Y146000
X143000Y132808
Y124000
X41000Y144727
X37569Y82957
X43775Y68588
X191892Y101028
X237000Y111000
X236083Y140000
X263000Y149000
Y119219
X244000Y85209
X271000Y50816
X271279Y233024
X254603Y226000
X236000Y246000
X229000Y257000
X220099Y201847
X191709Y199000
X174257Y224869
X156398Y223000
X160000Y248000
X110000Y245000
X103057Y194626
X142709Y204000
X53000Y208014
Y193000
X46000Y195000
X32201Y229000
T02
X208386Y20946
X174000Y20000
X112000Y17000
X92126Y14272
X23000Y17717
X34000Y44000
X58000Y45000
X71020Y58000
X92000Y57000
X90540Y84541
X98146
X107998Y87165
X117252Y81336
X116913Y100000
X132687Y95385
X131603Y108000
X129844Y113493
X130717Y127000
X130742Y152546
X132821Y160000
X144146Y158686
X145118Y164537
X153543Y173000
X173826Y175359
X173761Y142879
X166417Y109381
X160709Y82136
X164281Y73000
X143000Y80000
Y90010
X141284Y38778
X130843Y37157
X159232Y35232
X160165Y38808
X107000Y110657
Y142182
X115000Y137000
X103054Y159909
X106000Y181000
X100000Y183000
X124689Y177000
X58000Y154000
X53583Y150000
X41190Y79533
X46457Y61465
X192000Y84882
X197799Y80902
X201060Y112976
X201000Y135000
X188476Y135020
X222701Y157288
X225000Y160000
X241311Y150182
X241000Y146000
X247854Y170882
X205789Y177789
X241000Y114000
X229000Y60684
X231614Y41000
X201000Y195000
X199020Y204862
X195980Y202000
X203000Y224000
X219762Y223000
X199118Y242000
X130673Y256578
X126665Y256410
X116260Y212837
X113898Y206000
X101496Y202582
X115000Y189000
X142709Y187000
X57927Y190384
T03
X20000Y90000
Y100000
Y110000
Y120000
Y130000
Y140000
Y150000
Y160000
Y170000
Y180000
X35000
Y170000
Y160000
Y150000
Y140000
Y130000
Y120000
Y110000
Y100000
Y90000
X65000
Y100000
Y110000
Y120000
Y130000
Y140000
Y150000
Y160000
Y170000
Y180000
X80000
Y170000
Y160000
Y150000
Y140000
Y130000
Y120000
Y110000
Y100000
Y90000
X86000Y73000
X96000
X106000
X116000
X126000
X136000
X146000
X150504Y56406
X146000Y43000
X136000
X126000
X116000
X106000
X96000
X86000
X73000Y53000
Y63000
X122000Y52000
X124000Y90000
Y100000
Y110000
Y120000
Y130000
Y140000
Y150000
Y160000
X134000Y173000
X144000
X154000Y160000
Y150000
Y140000
Y130000
Y120000
Y110000
Y100000
Y90000
X180000Y90000
Y100000
Y110000
Y120000
Y130000
Y140000
Y150000
Y160000
X190000Y173000
X200000
X214000Y176000
X210000Y160000
Y150000
Y140000
Y130000
Y120000
Y110000
Y100000
Y90000
X225000Y90000
Y100000
Y110000
Y120000
Y130000
Y140000
Y150000
X235000Y163000
X245000
X244000Y176000
X255000Y150000
Y140000
Y130000
Y120000
Y110000
Y100000
Y90000
X268000Y85000
Y115000
Y130000
Y160000
X213000Y75000
X218000Y70000
X213000Y65000
Y54000
X218000Y49000
X213000Y44000
X201000
X180000
X175866Y67000
X180000Y74000
X191000
X201000
X191000Y64000
X194000Y187000
X180000Y188000
Y198000
Y208000
Y218000
Y228000
Y238000
Y248000
Y258000
X193000Y263000
X203000
X214000
X214000Y252000
X224000
X244000
Y263000
Y240782
X244000Y230000
X244000Y219000
X244000Y208000
X244000Y198000
Y187000
X224000
X214000
Y198000
X214000Y208000
X224000
X214000Y219000
Y230000
X224000
X214000Y240782
X194000Y230000
X194000Y252000
Y208000
X150000
Y198000
Y188000
X137000Y193000
X125000Y198000
Y208000
Y218000
Y228000
Y238000
Y248000
X115000Y261000
X105000
X95000Y248000
Y238000
Y228000
Y218000
Y208000
Y198000
Y188000
X80000Y190000
Y200000
Y210000
Y220000
X65000
Y210000
Y200000
Y190000
X35000
Y200000
Y210000
Y220000
X20000
Y210000
Y200000
Y190000
X43668Y235000
X53668
X68668Y234925
X78668
Y245539
X77000Y257000
X82000Y262000
X72000
X48668Y245539
X137000Y233000
Y223000
X150000Y218000
Y228000
Y238000
Y248000
Y258000
X137000Y263000
X172814Y266362
X125000Y188000
T04
X269000Y190126
Y198000
Y205874
Y213748
Y221622
T05
X30000Y257000
X40000
X50000
X60000
T06
X176378Y7874
X186378
X196378
X196378Y26969
X186378
X176378
X216378
X226378
Y7874
X216378
X166378
X156378
X146378
X136378
X126378
X116378
X106378
X96378
X86378
X76378
X66378
X56378
X46378
X36378
X26378
Y26969
X36378
X46378
X56378
X66378
X76378
X86378
X96378
X106378
X116378
X126378
X136378
X146378
X156378
X166378
X16378
X6378
Y7874
X16378
X19000Y235577
X9000
M30
